<svg xmlns="http://www.w3.org/2000/svg" xmlns:xlink="http://www.w3.org/1999/xlink" width="500" zoomAndPan="magnify" viewBox="0 0 375 374.999991" height="500" preserveAspectRatio="xMidYMid meet" version="1.2"><defs><clipPath id="96ea3236a0"><path d="M 175 252 L 200 252 L 200 372.453125 L 175 372.453125 Z M 175 252 "/></clipPath><clipPath id="3eaf13731e"><path d="M 7.324219 189 L 88 189 L 88 317 L 7.324219 317 Z M 7.324219 189 "/></clipPath><clipPath id="c7ef1418cd"><path d="M 287 189 L 367.324219 189 L 367.324219 317 L 287 317 Z M 287 189 "/></clipPath><clipPath id="a66d762755"><path d="M 91 2.703125 L 241 2.703125 L 241 133 L 91 133 Z M 91 2.703125 "/></clipPath></defs><g id="2e4f81f658"><path style=" stroke:none;fill-rule:evenodd;fill:#f49617;fill-opacity:1;" d="M 116.988281 245.304688 L 258.007812 245.304688 L 258.007812 263.351562 L 116.988281 263.351562 Z M 116.988281 245.304688 "/><g clip-rule="nonzero" clip-path="url(#96ea3236a0)"><path style=" stroke:none;fill-rule:evenodd;fill:#f49617;fill-opacity:1;" d="M 175.132812 252.65625 L 199.863281 252.65625 L 199.863281 372.289062 L 175.132812 372.289062 Z M 175.132812 252.65625 "/></g><path style=" stroke:none;fill-rule:nonzero;fill:#f49617;fill-opacity:1;" d="M 86.914062 272.707031 C 85.578125 286.742188 72.878906 296.765625 58.84375 294.761719 C 44.808594 293.425781 34.785156 280.726562 36.789062 266.691406 L 45.480469 193.84375 C 46.816406 179.808594 59.511719 169.785156 73.546875 171.789062 C 87.582031 173.125 97.609375 185.824219 95.601562 199.859375 Z M 86.914062 272.707031 "/><path style=" stroke:none;fill-rule:evenodd;fill:#f49617;fill-opacity:1;" d="M 78.226562 106.960938 C 92.929688 106.960938 104.960938 118.992188 104.960938 133.695312 C 104.960938 148.398438 92.929688 160.429688 78.226562 160.429688 C 63.523438 160.429688 51.492188 148.398438 51.492188 133.695312 C 51.492188 118.992188 63.523438 106.960938 78.226562 106.960938 Z M 78.226562 106.960938 "/><path style=" stroke:none;fill-rule:nonzero;fill:#f49617;fill-opacity:1;" d="M 72.210938 195.179688 C 68.203125 190.503906 68.871094 183.820312 72.878906 180.476562 C 77.558594 176.46875 84.242188 177.136719 87.582031 181.148438 L 114.316406 211.890625 L 139.714844 211.890625 C 145.726562 211.890625 150.40625 216.566406 150.40625 222.582031 C 150.40625 228.597656 145.726562 233.277344 139.714844 233.277344 L 109.636719 233.277344 C 106.964844 233.277344 103.625 231.941406 101.617188 229.933594 L 71.542969 195.851562 Z M 72.210938 195.179688 "/><path style=" stroke:none;fill-rule:nonzero;fill:#f49617;fill-opacity:1;" d="M 59.511719 294.761719 C 52.832031 293.425781 46.816406 279.390625 47.484375 272.707031 C 48.820312 266.023438 55.503906 261.347656 62.1875 262.683594 C 62.1875 262.683594 131.691406 274.042969 161.769531 350.902344 C 164.441406 357.585938 161.097656 364.9375 154.417969 366.941406 C 147.734375 369.617188 140.382812 366.273438 138.375 359.589844 C 114.316406 296.097656 60.183594 294.761719 60.183594 294.761719 Z M 59.511719 294.761719 "/><g clip-rule="nonzero" clip-path="url(#3eaf13731e)"><path style=" stroke:none;fill-rule:nonzero;fill:#f49617;fill-opacity:1;" d="M 84.910156 308.796875 C 86.914062 309.464844 88.25 312.140625 87.582031 314.144531 C 86.914062 316.148438 84.242188 317.484375 82.238281 316.816406 C 82.238281 316.816406 75.554688 314.8125 66.863281 312.808594 C 60.851562 311.472656 54.167969 311.472656 48.152344 311.472656 C 32.113281 311.472656 18.746094 311.472656 14.734375 292.757812 C 14.066406 289.414062 13.398438 285.40625 12.730469 280.726562 C 12.730469 276.71875 12.0625 272.039062 12.0625 267.359375 C 12.0625 261.347656 12.0625 256 12.0625 251.320312 C 12.0625 231.941406 12.0625 216.566406 8.050781 193.84375 C 7.382812 191.839844 9.390625 189.167969 11.394531 189.167969 C 13.398438 188.5 16.070312 190.503906 16.070312 192.507812 C 20.082031 215.898438 20.082031 231.269531 20.082031 251.320312 C 20.082031 256.667969 20.082031 261.347656 20.082031 267.359375 C 20.082031 271.371094 20.082031 276.050781 20.75 280.058594 C 20.75 284.070312 21.417969 287.410156 22.085938 290.753906 C 24.761719 302.78125 35.453125 302.78125 47.484375 302.78125 C 54.167969 302.78125 60.851562 302.78125 67.535156 304.121094 C 76.890625 306.125 83.574219 308.128906 83.574219 308.128906 Z M 84.910156 308.796875 "/></g><path style=" stroke:none;fill-rule:nonzero;fill:#f49617;fill-opacity:1;" d="M 43.472656 307.460938 L 54.167969 307.460938 L 54.167969 368.945312 L 43.472656 368.945312 Z M 43.472656 307.460938 "/><path style=" stroke:none;fill-rule:nonzero;fill:#f49617;fill-opacity:1;" d="M 68.203125 360.925781 C 70.875 360.925781 73.546875 363.601562 73.546875 366.273438 C 73.546875 368.945312 70.875 371.621094 68.203125 371.621094 L 29.4375 371.621094 C 26.765625 371.621094 24.09375 368.945312 24.09375 366.273438 C 24.09375 363.601562 26.765625 360.925781 29.4375 360.925781 Z M 68.203125 360.925781 "/><path style=" stroke:none;fill-rule:nonzero;fill:#f49617;fill-opacity:1;" d="M 288.082031 272.707031 C 289.417969 286.742188 302.117188 296.765625 316.152344 294.761719 C 330.1875 293.425781 340.210938 280.726562 338.207031 266.691406 L 329.519531 193.84375 C 328.183594 179.808594 315.484375 169.785156 301.449219 171.789062 C 287.414062 173.125 277.390625 185.824219 279.394531 199.859375 Z M 288.082031 272.707031 "/><path style=" stroke:none;fill-rule:evenodd;fill:#f49617;fill-opacity:1;" d="M 296.769531 106.960938 C 282.066406 106.960938 270.039062 118.992188 270.039062 133.695312 C 270.039062 148.398438 282.066406 160.429688 296.769531 160.429688 C 311.472656 160.429688 323.503906 148.398438 323.503906 133.695312 C 323.503906 118.992188 311.472656 106.960938 296.769531 106.960938 Z M 296.769531 106.960938 "/><path style=" stroke:none;fill-rule:nonzero;fill:#f49617;fill-opacity:1;" d="M 302.785156 195.179688 C 306.796875 190.503906 306.125 183.820312 302.117188 180.476562 C 297.4375 176.46875 290.753906 177.136719 287.414062 181.148438 L 260.679688 211.890625 L 235.285156 211.890625 C 229.269531 211.890625 224.589844 216.566406 224.589844 222.582031 C 224.589844 228.597656 229.269531 233.277344 235.285156 233.277344 L 265.359375 233.277344 C 268.03125 233.277344 271.375 231.941406 273.378906 229.933594 L 303.453125 195.851562 Z M 302.785156 195.179688 "/><path style=" stroke:none;fill-rule:nonzero;fill:#f49617;fill-opacity:1;" d="M 316.152344 294.761719 C 322.835938 293.425781 328.851562 279.390625 328.183594 272.707031 C 326.84375 266.023438 320.160156 261.347656 313.480469 262.683594 C 313.480469 262.683594 243.972656 274.042969 213.898438 350.902344 C 211.222656 357.585938 214.566406 364.9375 221.25 366.941406 C 227.933594 369.617188 235.285156 366.273438 237.289062 359.589844 C 261.347656 296.097656 315.484375 294.761719 315.484375 294.761719 Z M 316.152344 294.761719 "/><g clip-rule="nonzero" clip-path="url(#c7ef1418cd)"><path style=" stroke:none;fill-rule:nonzero;fill:#f49617;fill-opacity:1;" d="M 290.085938 308.796875 C 288.082031 309.464844 286.746094 312.140625 287.414062 314.144531 C 288.082031 316.148438 290.753906 317.484375 292.761719 316.816406 C 292.761719 316.816406 299.445312 314.8125 308.132812 312.808594 C 314.148438 311.472656 320.832031 311.472656 326.84375 311.472656 C 342.886719 311.472656 356.25 311.472656 360.261719 292.757812 C 360.929688 289.414062 361.597656 285.40625 362.265625 280.726562 C 362.265625 276.71875 362.933594 272.039062 362.933594 267.359375 C 362.933594 261.347656 362.933594 256 362.933594 251.320312 C 362.933594 231.941406 362.933594 216.566406 366.945312 193.84375 C 367.613281 191.839844 365.609375 189.167969 363.601562 189.167969 C 361.597656 188.5 358.925781 190.503906 358.925781 192.507812 C 354.914062 215.898438 354.914062 231.269531 354.914062 251.320312 C 354.914062 256.667969 354.914062 261.347656 354.914062 267.359375 C 354.914062 271.371094 354.914062 276.050781 354.246094 280.058594 C 354.246094 284.070312 353.578125 287.410156 352.910156 290.753906 C 350.238281 302.78125 339.542969 302.78125 327.511719 302.78125 C 320.832031 302.78125 314.148438 302.78125 307.464844 304.121094 C 298.105469 306.125 291.421875 308.128906 291.421875 308.128906 Z M 290.085938 308.796875 "/></g><path style=" stroke:none;fill-rule:nonzero;fill:#f49617;fill-opacity:1;" d="M 320.832031 307.460938 L 320.832031 368.945312 L 331.523438 368.945312 L 331.523438 307.460938 Z M 320.832031 307.460938 "/><path style=" stroke:none;fill-rule:nonzero;fill:#f49617;fill-opacity:1;" d="M 306.796875 360.925781 C 304.121094 360.925781 301.449219 363.601562 301.449219 366.273438 C 301.449219 368.945312 304.121094 371.621094 306.796875 371.621094 L 345.558594 371.621094 C 348.230469 371.621094 350.90625 368.945312 350.90625 366.273438 C 350.90625 363.601562 348.230469 360.925781 345.558594 360.925781 Z M 306.796875 360.925781 "/><path style=" stroke:none;fill-rule:evenodd;fill:#f49617;fill-opacity:1;" d="M 141.050781 125.007812 C 143.054688 125.675781 145.058594 125.675781 146.394531 125.675781 L 205.210938 125.675781 L 236.621094 157.085938 L 236.621094 125.675781 C 252.660156 125.675781 266.027344 112.308594 266.027344 96.269531 L 266.027344 56.835938 C 266.027344 44.808594 258.675781 34.113281 248.652344 29.4375 C 248.652344 30.773438 248.652344 31.441406 248.652344 32.777344 L 248.652344 42.132812 C 252.660156 45.476562 255.332031 50.824219 255.332031 56.835938 L 255.332031 96.269531 C 255.332031 106.960938 246.644531 115.652344 235.953125 115.652344 L 225.257812 115.652344 L 225.257812 132.359375 L 208.550781 115.652344 L 149.738281 115.652344 L 139.714844 125.675781 Z M 141.050781 125.007812 "/><g clip-rule="nonzero" clip-path="url(#a66d762755)"><path style=" stroke:none;fill-rule:evenodd;fill:#f49617;fill-opacity:1;" d="M 121 2.703125 L 211.222656 2.703125 C 227.265625 2.703125 240.628906 16.070312 240.628906 32.109375 L 240.628906 71.539062 C 240.628906 87.582031 227.265625 100.945312 211.222656 100.945312 L 152.410156 100.945312 L 121 132.359375 L 121 100.945312 C 104.960938 100.945312 91.59375 87.582031 91.59375 71.539062 L 91.59375 32.109375 C 91.59375 16.070312 104.960938 2.703125 121 2.703125 Z M 131.023438 40.796875 C 137.039062 40.796875 142.386719 46.144531 142.386719 52.160156 C 142.386719 58.175781 137.039062 63.519531 131.023438 63.519531 C 125.007812 63.519531 119.664062 58.175781 119.664062 52.160156 C 119.664062 46.144531 125.007812 40.796875 131.023438 40.796875 Z M 166.445312 40.796875 C 172.460938 40.796875 177.808594 46.144531 177.808594 52.160156 C 177.808594 58.175781 172.460938 63.519531 166.445312 63.519531 C 160.429688 63.519531 155.085938 58.175781 155.085938 52.160156 C 155.085938 46.144531 160.429688 40.796875 166.445312 40.796875 Z M 201.867188 40.796875 C 207.882812 40.796875 213.230469 46.144531 213.230469 52.160156 C 213.230469 58.175781 207.882812 63.519531 201.867188 63.519531 C 195.851562 63.519531 190.507812 58.175781 190.507812 52.160156 C 190.507812 46.144531 195.851562 40.796875 201.867188 40.796875 Z M 201.867188 40.796875 "/></g></g></svg>