<svg xmlns="http://www.w3.org/2000/svg" xmlns:xlink="http://www.w3.org/1999/xlink" width="500" zoomAndPan="magnify" viewBox="0 0 375 374.999991" height="500" preserveAspectRatio="xMidYMid meet" version="1.2"><g id="4f3713be86"><path style=" stroke:none;fill-rule:nonzero;fill:#f49617;fill-opacity:1;" d="M 350 275 L 212.5 275 C 205.613281 275 200 269.382812 200 262.5 L 200 137.5 L 362.5 137.5 L 362.5 262.5 C 362.5 269.382812 356.882812 275 350 275 Z M 287.5 312.5 L 87.5 312.5 L 87.5 275 C 90.015625 275 92.527344 274.902344 95.019531 274.683594 C 99.097656 274.292969 102.585938 271.679688 104.175781 267.773438 L 108.25 257.59375 C 113.160156 256.128906 117.871094 254.175781 122.363281 251.734375 L 132.496094 256.054688 C 136.304688 257.691406 140.671875 257.078125 143.824219 254.441406 C 145.75 252.855469 147.582031 251.148438 149.363281 249.363281 C 151.148438 247.582031 152.855469 245.75 154.46875 243.824219 C 157.078125 240.671875 157.691406 236.328125 156.054688 232.496094 L 151.734375 222.363281 C 154.175781 217.871094 156.128906 213.160156 157.59375 208.25 L 167.773438 204.175781 C 167.796875 204.148438 167.796875 204.148438 167.796875 204.148438 C 171.679688 202.585938 174.292969 199.097656 174.683594 195.019531 C 174.902344 192.527344 175 190.015625 175 187.5 C 175 184.984375 174.902344 182.46875 174.683594 179.980469 C 174.292969 175.902344 171.679688 172.410156 167.773438 170.824219 L 157.59375 166.746094 C 156.128906 161.839844 154.175781 157.128906 151.734375 152.636719 L 156.054688 142.503906 C 157.691406 138.671875 157.078125 134.324219 154.441406 131.175781 C 152.855469 129.246094 151.148438 127.417969 149.363281 125.632812 C 147.582031 123.851562 145.75 122.144531 143.824219 120.53125 C 140.671875 117.917969 136.304688 117.308594 132.496094 118.945312 L 122.363281 123.265625 C 117.871094 120.824219 113.160156 118.871094 108.25 117.40625 L 104.148438 107.203125 C 102.585938 103.320312 99.097656 100.707031 95.019531 100.316406 C 92.527344 100.097656 90.015625 99.976562 87.5 99.976562 L 87.5 62.5 L 287.5 62.5 L 287.5 75 L 212.5 75 C 198.707031 75 187.5 86.207031 187.5 100 L 187.5 262.5 C 187.5 276.292969 198.707031 287.5 212.5 287.5 L 287.5 287.5 Z M 275 362.5 L 100 362.5 C 93.113281 362.5 87.5 356.882812 87.5 350 L 87.5 325 L 287.5 325 L 287.5 350 C 287.5 356.882812 281.882812 362.5 275 362.5 Z M 56.273438 239.402344 C 54.539062 238.355469 52.417969 238.183594 50.5625 238.988281 L 38.429688 244.214844 C 37.0625 243.042969 35.742188 241.820312 34.472656 240.527344 C 33.203125 239.257812 31.957031 237.9375 30.785156 236.570312 L 36.011719 224.414062 C 36.792969 222.558594 36.644531 220.457031 35.59375 218.726562 C 32.46875 213.550781 30.152344 207.957031 28.6875 202.097656 C 28.199219 200.144531 26.804688 198.558594 24.953125 197.800781 L 12.695312 192.894531 C 12.574219 191.113281 12.5 189.304688 12.5 187.5 C 12.5 185.691406 12.574219 183.886719 12.695312 182.105469 L 24.953125 177.195312 C 26.804688 176.441406 28.199219 174.851562 28.6875 172.898438 C 30.152344 167.039062 32.46875 161.449219 35.59375 156.273438 C 36.644531 154.539062 36.792969 152.417969 36.011719 150.5625 L 30.785156 138.425781 C 31.957031 137.058594 33.203125 135.742188 34.472656 134.472656 C 35.742188 133.179688 37.0625 131.957031 38.429688 130.785156 L 50.585938 136.011719 C 52.417969 136.792969 54.539062 136.644531 56.273438 135.59375 C 61.449219 132.46875 67.039062 130.152344 72.898438 128.6875 C 74.851562 128.199219 76.441406 126.804688 77.195312 124.949219 L 82.105469 112.695312 C 85.667969 112.425781 89.304688 112.425781 92.894531 112.695312 L 97.804688 124.949219 C 98.558594 126.804688 100.144531 128.199219 102.097656 128.6875 C 107.957031 130.152344 113.550781 132.46875 118.726562 135.59375 C 120.457031 136.644531 122.558594 136.792969 124.414062 136.011719 L 136.570312 130.785156 C 137.9375 131.957031 139.257812 133.179688 140.527344 134.472656 C 141.820312 135.742188 143.042969 137.058594 144.214844 138.425781 L 138.988281 150.5625 C 138.207031 152.417969 138.355469 154.539062 139.402344 156.273438 C 142.527344 161.449219 144.847656 167.039062 146.3125 172.898438 C 146.800781 174.851562 148.191406 176.441406 150.046875 177.195312 L 162.304688 182.105469 C 162.425781 183.886719 162.5 185.691406 162.5 187.5 C 162.5 189.304688 162.425781 191.113281 162.304688 192.894531 L 150.046875 197.800781 C 148.191406 198.558594 146.800781 200.144531 146.3125 202.097656 C 144.847656 207.957031 142.527344 213.550781 139.402344 218.726562 C 138.355469 220.457031 138.207031 222.558594 138.988281 224.414062 L 144.214844 236.570312 C 143.042969 237.9375 141.820312 239.257812 140.527344 240.527344 C 139.257812 241.820312 137.9375 243.042969 136.570312 244.214844 L 124.4375 238.988281 C 122.558594 238.183594 120.457031 238.355469 118.726562 239.402344 C 113.550781 242.527344 107.957031 244.847656 102.097656 246.3125 C 100.144531 246.800781 98.558594 248.191406 97.804688 250.046875 L 92.894531 262.304688 C 89.332031 262.574219 85.691406 262.574219 82.105469 262.304688 L 77.195312 250.046875 C 76.441406 248.191406 74.851562 246.800781 72.898438 246.3125 C 67.039062 244.847656 61.449219 242.527344 56.273438 239.402344 Z M 100 12.5 L 275 12.5 C 281.882812 12.5 287.5 18.117188 287.5 25 L 287.5 50 L 87.5 50 L 87.5 25 C 87.5 18.117188 93.113281 12.5 100 12.5 Z M 362.5 100 L 362.5 125 L 200 125 L 200 100 C 200 93.113281 205.613281 87.5 212.5 87.5 L 350 87.5 C 356.882812 87.5 362.5 93.113281 362.5 100 Z M 350 75 L 300 75 L 300 25 C 300 11.207031 288.792969 0 275 0 L 100 0 C 86.207031 0 75 11.207031 75 25 L 75 102.148438 C 73.191406 103.367188 71.703125 105.078125 70.824219 107.226562 L 66.746094 117.40625 C 61.839844 118.871094 57.105469 120.824219 52.636719 123.265625 L 42.503906 118.945312 C 38.671875 117.308594 34.328125 117.917969 31.175781 120.554688 C 29.25 122.144531 27.417969 123.851562 25.632812 125.632812 C 23.851562 127.417969 22.144531 129.246094 20.554688 131.175781 C 17.921875 134.324219 17.308594 138.671875 18.945312 142.503906 L 23.289062 152.636719 C 20.824219 157.128906 18.871094 161.839844 17.40625 166.746094 L 7.203125 170.847656 C 3.320312 172.410156 0.707031 175.902344 0.34375 179.980469 C 0.0976562 182.46875 0 184.984375 0 187.5 C 0 190.015625 0.0976562 192.527344 0.34375 195.019531 C 0.707031 199.097656 3.320312 202.585938 7.226562 204.175781 L 17.40625 208.25 C 18.871094 213.160156 20.824219 217.871094 23.289062 222.363281 L 18.945312 232.496094 C 17.308594 236.328125 17.921875 240.671875 20.554688 243.824219 C 22.144531 245.75 23.851562 247.582031 25.632812 249.363281 C 27.417969 251.148438 29.25 252.855469 31.175781 254.46875 C 34.328125 257.078125 38.671875 257.691406 42.503906 256.054688 L 52.636719 251.734375 C 57.105469 254.175781 61.839844 256.128906 66.746094 257.59375 L 70.851562 267.796875 C 71.703125 269.945312 73.191406 271.628906 75 272.851562 L 75 350 C 75 363.792969 86.207031 375 100 375 L 275 375 C 288.792969 375 300 363.792969 300 350 L 300 287.5 L 350 287.5 C 363.792969 287.5 375 276.292969 375 262.5 L 375 100 C 375 86.207031 363.792969 75 350 75 "/><path style=" stroke:none;fill-rule:nonzero;fill:#f49617;fill-opacity:1;" d="M 50 187.5 C 50 171.214844 60.472656 157.347656 75 152.171875 L 75 165.964844 C 67.554688 170.3125 62.5 178.296875 62.5 187.5 C 62.5 196.703125 67.554688 204.6875 75 209.03125 L 75 222.828125 C 60.472656 217.652344 50 203.785156 50 187.5 Z M 87.5 175 C 94.382812 175 100 180.613281 100 187.5 C 100 194.382812 94.382812 200 87.5 200 C 80.613281 200 75 194.382812 75 187.5 C 75 180.613281 80.613281 175 87.5 175 Z M 125 187.5 C 125 208.179688 108.179688 225 87.5 225 L 87.5 212.5 C 101.292969 212.5 112.5 201.292969 112.5 187.5 C 112.5 173.707031 101.292969 162.5 87.5 162.5 L 87.5 150 C 108.179688 150 125 166.820312 125 187.5 Z M 137.5 187.5 C 137.5 159.9375 115.0625 137.5 87.5 137.5 C 59.9375 137.5 37.5 159.9375 37.5 187.5 C 37.5 215.0625 59.9375 237.5 87.5 237.5 C 115.0625 237.5 137.5 215.0625 137.5 187.5 "/><path style=" stroke:none;fill-rule:nonzero;fill:#f49617;fill-opacity:1;" d="M 225 187.5 L 225 162.5 L 337.5 162.5 L 337.523438 187.5 Z M 337.5 150 L 225 150 C 218.113281 150 212.5 155.613281 212.5 162.5 L 212.5 187.5 C 212.5 194.382812 218.113281 200 225 200 L 337.5 200 C 344.382812 200 350 194.382812 350 187.5 L 350 162.5 C 350 155.613281 344.382812 150 337.5 150 "/><path style=" stroke:none;fill-rule:nonzero;fill:#f49617;fill-opacity:1;" d="M 162.5 37.5 L 168.75 37.5 C 172.191406 37.5 175 34.691406 175 31.25 C 175 27.808594 172.191406 25 168.75 25 L 162.5 25 C 159.058594 25 156.25 27.808594 156.25 31.25 C 156.25 34.691406 159.058594 37.5 162.5 37.5 "/><path style=" stroke:none;fill-rule:nonzero;fill:#f49617;fill-opacity:1;" d="M 193.75 37.5 L 212.5 37.5 C 215.941406 37.5 218.75 34.691406 218.75 31.25 C 218.75 27.808594 215.941406 25 212.5 25 L 193.75 25 C 190.308594 25 187.5 27.808594 187.5 31.25 C 187.5 34.691406 190.308594 37.5 193.75 37.5 "/><path style=" stroke:none;fill-rule:nonzero;fill:#f49617;fill-opacity:1;" d="M 200 337.5 L 175 337.5 C 171.558594 337.5 168.75 340.308594 168.75 343.75 C 168.75 347.191406 171.558594 350 175 350 L 200 350 C 203.441406 350 206.25 347.191406 206.25 343.75 C 206.25 340.308594 203.441406 337.5 200 337.5 "/><path style=" stroke:none;fill-rule:nonzero;fill:#f49617;fill-opacity:1;" d="M 225 100 L 218.75 100 C 215.308594 100 212.5 102.808594 212.5 106.25 C 212.5 109.691406 215.308594 112.5 218.75 112.5 L 225 112.5 C 228.441406 112.5 231.25 109.691406 231.25 106.25 C 231.25 102.808594 228.441406 100 225 100 "/><path style=" stroke:none;fill-rule:nonzero;fill:#f49617;fill-opacity:1;" d="M 256.25 100 L 250 100 C 246.558594 100 243.75 102.808594 243.75 106.25 C 243.75 109.691406 246.558594 112.5 250 112.5 L 256.25 112.5 C 259.691406 112.5 262.5 109.691406 262.5 106.25 C 262.5 102.808594 259.691406 100 256.25 100 "/><path style=" stroke:none;fill-rule:nonzero;fill:#f49617;fill-opacity:1;" d="M 312.5 112.5 L 343.75 112.5 C 347.191406 112.5 350 109.691406 350 106.25 C 350 102.808594 347.191406 100 343.75 100 L 312.5 100 C 309.058594 100 306.25 102.808594 306.25 106.25 C 306.25 109.691406 309.058594 112.5 312.5 112.5 "/><path style=" stroke:none;fill-rule:nonzero;fill:#f49617;fill-opacity:1;" d="M 287.5 212.5 L 231.25 212.5 C 227.808594 212.5 225 215.308594 225 218.75 C 225 222.191406 227.808594 225 231.25 225 L 287.5 225 C 290.941406 225 293.75 222.191406 293.75 218.75 C 293.75 215.308594 290.941406 212.5 287.5 212.5 "/><path style=" stroke:none;fill-rule:nonzero;fill:#f49617;fill-opacity:1;" d="M 275 237.5 L 231.25 237.5 C 227.808594 237.5 225 240.308594 225 243.75 C 225 247.191406 227.808594 250 231.25 250 L 275 250 C 278.441406 250 281.25 247.191406 281.25 243.75 C 281.25 240.308594 278.441406 237.5 275 237.5 "/><path style=" stroke:none;fill-rule:nonzero;fill:#f49617;fill-opacity:1;" d="M 331.25 212.5 L 312.5 212.5 C 309.058594 212.5 306.25 215.308594 306.25 218.75 C 306.25 222.191406 309.058594 225 312.5 225 L 331.25 225 C 334.691406 225 337.5 222.191406 337.5 218.75 C 337.5 215.308594 334.691406 212.5 331.25 212.5 "/><path style=" stroke:none;fill-rule:nonzero;fill:#f49617;fill-opacity:1;" d="M 318.75 237.5 L 300 237.5 C 296.558594 237.5 293.75 240.308594 293.75 243.75 C 293.75 247.191406 296.558594 250 300 250 L 318.75 250 C 322.191406 250 325 247.191406 325 243.75 C 325 240.308594 322.191406 237.5 318.75 237.5 "/></g></svg>