<svg xmlns="http://www.w3.org/2000/svg" xmlns:xlink="http://www.w3.org/1999/xlink" width="500" zoomAndPan="magnify" viewBox="0 0 375 374.999991" height="500" preserveAspectRatio="xMidYMid meet" version="1.2"><g id="011fe0eee0"><path style=" stroke:none;fill-rule:nonzero;fill:#f49617;fill-opacity:1;" d="M 250.695312 192.816406 L 290.984375 192.816406 C 290.203125 209.0625 285.644531 225.1875 277.238281 239.773438 C 262.65625 265.011719 238.300781 282.238281 210.554688 288.539062 C 235.113281 262.710938 249.476562 228.671875 250.695312 192.816406 Z M 192.398438 192.816406 L 240.652344 192.816406 C 239.257812 230.632812 222.347656 266.683594 193.574219 291.425781 C 193.183594 291.449219 192.792969 291.527344 192.398438 291.527344 Z M 133.980469 192.816406 L 182.351562 192.816406 L 182.351562 291.058594 C 181.957031 291.042969 181.566406 290.988281 181.175781 290.964844 C 152.40625 266.210938 135.375 230.632812 133.980469 192.816406 Z M 83.621094 192.816406 L 123.929688 192.816406 C 125.15625 228.671875 139.492188 262.707031 164.070312 288.539062 C 136.328125 282.242188 111.96875 265.011719 97.386719 239.773438 C 88.984375 225.1875 84.402344 209.0625 83.621094 192.816406 Z M 210.554688 87.050781 C 238.296875 93.351562 262.65625 110.574219 277.238281 135.8125 C 285.644531 150.40625 290.203125 166.523438 290.984375 182.769531 L 250.695312 182.769531 C 249.449219 146.921875 235.113281 112.882812 210.554688 87.050781 Z M 164.070312 87.050781 C 139.511719 112.882812 125.152344 146.921875 123.929688 182.769531 L 83.621094 182.769531 C 84.402344 166.523438 88.988281 150.398438 97.390625 135.8125 C 111.96875 110.574219 136.332031 93.351562 164.070312 87.050781 Z M 182.351562 84.527344 L 182.351562 182.769531 L 133.980469 182.769531 C 135.375 144.980469 152.40625 109.371094 181.175781 84.621094 C 181.566406 84.597656 181.957031 84.546875 182.351562 84.527344 Z M 192.398438 83.992188 C 192.816406 84.015625 193.207031 84.058594 193.601562 84.085938 C 222.347656 108.839844 239.257812 144.984375 240.652344 182.777344 L 192.398438 182.777344 Z M 187.226562 73.835938 C 146.59375 73.890625 109.027344 95.605469 88.710938 130.8125 C 68.371094 166.058594 68.371094 209.523438 88.710938 244.769531 C 108.953125 279.808594 142.308594 301.476562 187.296875 301.570312 C 232.3125 301.476562 265.667969 279.808594 285.90625 244.769531 C 306.25 209.523438 306.25 166.058594 285.90625 130.8125 C 265.574219 95.605469 228.023438 73.890625 187.390625 73.835938 C 187.367188 73.835938 187.316406 73.835938 187.292969 73.835938 C 187.269531 73.835938 187.25 73.835938 187.226562 73.835938 Z M 187.226562 73.835938 "/><path style=" stroke:none;fill-rule:nonzero;fill:#f49617;fill-opacity:1;" d="M 44.433594 204.359375 L 53.160156 204.359375 C 53.628906 204.359375 53.84375 204.730469 53.84375 205.5625 L 53.84375 210.269531 C 53.84375 211.097656 53.625 211.46875 53.160156 211.46875 L 44.433594 211.46875 C 43.964844 211.46875 43.75 211.097656 43.75 210.269531 L 43.75 205.5625 C 43.742188 204.730469 43.964844 204.359375 44.433594 204.359375 Z M 26.371094 204.359375 L 35.09375 204.359375 C 35.5625 204.359375 35.78125 204.730469 35.78125 205.5625 L 35.78125 210.269531 C 35.78125 211.097656 35.5625 211.46875 35.09375 211.46875 L 26.371094 211.46875 C 25.90625 211.46875 25.683594 211.097656 25.683594 210.269531 L 25.683594 205.5625 C 25.683594 204.730469 25.90625 204.359375 26.371094 204.359375 Z M 8.308594 204.359375 L 17.03125 204.359375 C 17.5 204.359375 17.71875 204.730469 17.71875 205.5625 L 17.71875 210.269531 C 17.71875 211.097656 17.5 211.46875 17.03125 211.46875 L 8.308594 211.46875 C 7.84375 211.46875 7.621094 211.097656 7.621094 210.269531 L 7.621094 205.5625 C 7.621094 204.730469 7.84375 204.359375 8.308594 204.359375 Z M 36.371094 175.882812 L 51.242188 175.882812 C 53.035156 175.882812 53.84375 176.691406 53.84375 178.433594 L 53.84375 196.980469 C 53.84375 198.726562 53.035156 199.511719 51.242188 199.511719 L 36.371094 199.511719 C 34.582031 199.511719 33.773438 198.726562 33.773438 196.980469 L 33.773438 178.433594 C 33.773438 176.691406 34.582031 175.882812 36.371094 175.882812 Z M 10.21875 175.882812 L 25.097656 175.882812 C 26.886719 175.882812 27.695312 176.691406 27.695312 178.433594 L 27.695312 196.980469 C 27.695312 198.726562 26.886719 199.511719 25.097656 199.511719 L 10.21875 199.511719 C 8.429688 199.511719 7.621094 198.726562 7.621094 196.980469 L 7.621094 178.433594 C 7.621094 176.691406 8.429688 175.882812 10.21875 175.882812 Z M 44.433594 163.949219 L 53.160156 163.949219 C 53.628906 163.949219 53.84375 164.316406 53.84375 165.152344 L 53.84375 169.855469 C 53.84375 170.664062 53.625 171.058594 53.160156 171.058594 L 44.433594 171.058594 C 43.964844 171.058594 43.75 170.664062 43.75 169.855469 L 43.75 165.152344 C 43.742188 164.316406 43.964844 163.949219 44.433594 163.949219 Z M 26.371094 163.949219 L 35.09375 163.949219 C 35.5625 163.949219 35.78125 164.316406 35.78125 165.152344 L 35.78125 169.855469 C 35.78125 170.664062 35.5625 171.058594 35.09375 171.058594 L 26.371094 171.058594 C 25.90625 171.058594 25.683594 170.664062 25.683594 169.855469 L 25.683594 165.152344 C 25.683594 164.316406 25.90625 163.949219 26.371094 163.949219 Z M 8.308594 163.949219 L 17.03125 163.949219 C 17.5 163.949219 17.71875 164.316406 17.71875 165.152344 L 17.71875 169.855469 C 17.71875 170.664062 17.5 171.058594 17.03125 171.058594 L 8.308594 171.058594 C 7.84375 171.058594 7.621094 170.664062 7.621094 169.855469 L 7.621094 165.152344 C 7.621094 164.316406 7.84375 163.949219 8.308594 163.949219 Z M 6.742188 158.710938 C 2.234375 158.710938 0.175781 160.667969 0.175781 164.929688 L 0.175781 210.464844 C 0.175781 214.746094 2.234375 216.714844 6.742188 216.714844 L 54.726562 216.714844 C 59.234375 216.714844 61.292969 214.746094 61.292969 210.464844 L 61.292969 164.929688 C 61.292969 160.667969 59.234375 158.710938 54.726562 158.710938 Z M 6.742188 158.710938 "/><path style=" stroke:none;fill-rule:nonzero;fill:#f49617;fill-opacity:1;" d="M 187.300781 0.574219 C 183.039062 0.574219 178.921875 2.257812 175.882812 5.300781 C 172.84375 8.3125 171.148438 12.429688 171.148438 16.722656 C 171.148438 21.648438 173.402344 26.328125 177.28125 29.386719 C 179.3125 31.625 178.28125 33.386719 176.496094 34.074219 C 167.453125 36.078125 160.8125 43.164062 160.8125 52.9375 L 160.8125 55.015625 C 160.8125 57.304688 161.109375 58.578125 164.363281 58.578125 L 210.261719 58.578125 C 213.523438 58.578125 213.792969 57.304688 213.792969 55.015625 L 213.792969 52.9375 C 213.792969 43.164062 207.175781 36.054688 198.132812 34.074219 C 196.34375 33.386719 195.316406 31.648438 197.300781 29.441406 C 201.195312 26.378906 203.480469 21.671875 203.480469 16.722656 C 203.480469 12.429688 201.765625 8.3125 198.75 5.300781 C 195.707031 2.257812 191.589844 0.574219 187.300781 0.574219 Z M 187.300781 0.574219 "/><path style=" stroke:none;fill-rule:nonzero;fill:#f49617;fill-opacity:1;" d="M 331.492188 189.65625 L 331.492188 213.28125 C 331.492188 213.917969 331.613281 213.867188 332.203125 214.066406 L 342.199219 217.152344 C 343.300781 217.472656 344.28125 217.546875 345.386719 217.546875 L 360.339844 217.546875 C 365.707031 217.546875 368.839844 216.25 369.867188 211.074219 L 374.257812 188.972656 C 374.96875 185.542969 373.960938 179.832031 367.886719 179.832031 L 358.476562 179.832031 C 355.734375 179.832031 355 178.40625 355.417969 176.378906 L 356.617188 170.320312 C 357.914062 163.804688 352.816406 157.929688 349.242188 157.875 C 345.664062 157.824219 346.546875 162.015625 345.464844 167.429688 C 344.386719 172.847656 336.15625 183.019531 334.242188 185.375 L 331.839844 188.558594 C 331.519531 188.945312 331.492188 189.164062 331.492188 189.65625 Z M 331.492188 189.65625 "/><path style=" stroke:none;fill-rule:nonzero;fill:#f49617;fill-opacity:1;" d="M 318.359375 214.53125 C 316.617188 214.53125 315.222656 213.652344 315.222656 211.980469 L 315.222656 190.835938 C 315.222656 189.164062 316.617188 188.308594 318.359375 188.308594 L 323.652344 188.308594 C 325.390625 188.308594 326.785156 189.164062 326.785156 190.835938 L 326.785156 211.980469 C 326.785156 213.644531 325.390625 214.53125 323.652344 214.53125 Z M 318.359375 214.53125 "/><path style=" stroke:none;fill-rule:nonzero;fill:#f49617;fill-opacity:1;" d="M 197.003906 331.746094 C 198.453125 331.746094 199.96875 332.308594 200.65625 333.558594 L 213.890625 357.980469 C 215.679688 361.296875 215.089844 365.433594 210.480469 365.410156 L 162.867188 365.410156 C 159.609375 365.410156 159.195312 362.46875 160.488281 360.140625 L 169.875 342.8125 C 170.339844 341.933594 171.417969 341.535156 172.449219 341.535156 C 173.457031 341.535156 174.554688 341.933594 175.023438 342.832031 L 183.722656 358.9375 C 185.265625 361.894531 189.703125 359.570312 188.136719 356.609375 L 184.558594 349.769531 L 193.382812 333.546875 C 194.0625 332.308594 195.589844 331.746094 197.003906 331.746094 Z M 180.855469 325.074219 C 183.996094 325.074219 186.515625 327.601562 186.515625 330.714844 C 186.515625 333.851562 183.996094 336.375 180.855469 336.375 C 177.746094 336.375 175.222656 333.828125 175.222656 330.714844 C 175.222656 327.601562 177.746094 325.074219 180.855469 325.074219 Z M 158.535156 316.84375 C 154.167969 316.84375 150.667969 320.46875 150.667969 324.957031 L 150.667969 366.765625 C 150.667969 371.25 154.167969 374.847656 158.535156 374.847656 L 216.097656 374.847656 C 220.460938 374.847656 223.964844 371.25 223.964844 366.765625 L 223.964844 324.957031 C 223.964844 320.46875 220.460938 316.84375 216.097656 316.84375 Z M 158.535156 316.84375 "/><path style=" stroke:none;fill-rule:nonzero;fill:#f49617;fill-opacity:1;" d="M 287.96875 277.5625 C 281.355469 285.527344 280.9375 298.757812 289.90625 307.753906 C 289.953125 307.796875 290.007812 307.851562 290.054688 307.898438 L 313.679688 328.214844 C 314.65625 329.074219 316.128906 329.074219 317.132812 328.214844 L 340.734375 307.898438 C 340.808594 307.851562 340.855469 307.800781 340.902344 307.753906 C 349.847656 298.757812 349.457031 285.527344 342.839844 277.5625 C 339.257812 273.269531 333.796875 270.75 328.136719 270.875 C 323.457031 270.96875 318.949219 273.566406 315.390625 277.835938 C 311.839844 273.566406 307.332031 270.972656 302.183594 270.875 C 297.011719 270.75 291.527344 273.269531 287.96875 277.5625 Z M 287.96875 277.5625 "/><path style=" stroke:none;fill-rule:nonzero;fill:#f49617;fill-opacity:1;" d="M 58.59375 270.847656 C 55.796875 270.847656 54.988281 273.539062 53.574219 276.042969 L 52.6875 277.5625 L 36.5625 277.5625 C 32.300781 277.5625 28.867188 281.109375 28.867188 285.503906 L 28.867188 320.910156 C 28.867188 325.320312 32.296875 328.875 36.5625 328.875 L 92.949219 328.875 C 97.214844 328.875 100.644531 325.320312 100.644531 320.910156 L 100.644531 285.503906 C 100.644531 281.109375 97.214844 277.5625 92.949219 277.5625 L 76.820312 277.5625 L 75.9375 276.042969 C 74.515625 273.539062 73.707031 270.847656 70.914062 270.847656 Z M 64.746094 289.835938 C 72.417969 289.835938 78.640625 296.0625 78.640625 303.730469 C 78.640625 311.40625 72.417969 317.628906 64.746094 317.628906 C 57.078125 317.628906 50.875 311.40625 50.875 303.730469 C 50.875 296.0625 57.078125 289.835938 64.746094 289.835938 Z M 64.746094 289.835938 "/><path style=" stroke:none;fill-rule:nonzero;fill:#f49617;fill-opacity:1;" d="M 78.9375 77.027344 C 75.828125 77.027344 73.300781 74.507812 73.300781 71.394531 C 73.300781 68.285156 75.828125 65.78125 78.9375 65.78125 C 82.046875 65.78125 84.546875 68.285156 84.546875 71.394531 C 84.546875 74.507812 82.046875 77.027344 78.9375 77.027344 Z M 62.539062 77.027344 C 59.429688 77.027344 56.902344 74.507812 56.902344 71.394531 C 56.902344 68.285156 59.429688 65.78125 62.539062 65.78125 C 65.652344 65.78125 68.175781 68.285156 68.175781 71.394531 C 68.175781 74.507812 65.652344 77.027344 62.539062 77.027344 Z M 46.148438 77.027344 C 43.039062 77.027344 40.539062 74.507812 40.539062 71.394531 C 40.539062 68.285156 43.039062 65.78125 46.148438 65.78125 C 49.257812 65.78125 51.785156 68.285156 51.785156 71.394531 C 51.785156 74.507812 49.257812 77.027344 46.148438 77.027344 Z M 83.46875 46.570312 L 41.613281 46.570312 C 34.53125 46.570312 28.871094 51.714844 28.871094 58.671875 L 28.871094 84.433594 C 28.871094 91.363281 34.53125 96.6875 41.613281 96.6875 L 45.78125 96.6875 L 47.820312 102.667969 C 48.480469 104.53125 51.203125 105.191406 52.667969 103.890625 L 60.949219 96.6875 L 83.472656 96.6875 C 90.554688 96.6875 96.3125 91.363281 96.3125 84.433594 L 96.3125 58.671875 C 96.308594 51.714844 90.550781 46.570312 83.46875 46.570312 Z M 83.46875 46.570312 "/><path style=" stroke:none;fill-rule:evenodd;fill:#f49617;fill-opacity:1;" d="M 332.742188 51.957031 C 334.902344 51.714844 337.621094 59.582031 338.769531 69.554688 C 339.945312 79.554688 339.136719 87.835938 336.984375 88.082031 C 335.363281 88.277344 333.402344 83.917969 332.003906 77.101562 C 334.605469 75.707031 336.074219 72.863281 335.730469 69.921875 C 335.386719 66.988281 333.28125 64.585938 330.4375 63.824219 C 330.222656 56.855469 331.125 52.152344 332.742188 51.957031 Z M 333.972656 44.191406 C 332.183594 44.308594 330.515625 44.847656 329.289062 45.683594 C 322.628906 50.335938 313.410156 54.894531 304.640625 57.421875 C 303.609375 68.128906 305.449219 80.558594 309.34375 89.355469 C 318.21875 89.84375 327.851562 91.953125 335.101562 94.992188 C 336.988281 95.777344 338.015625 95.605469 340.003906 95.359375 C 344.097656 94.894531 345.9375 83.105469 344.265625 68.917969 C 342.59375 54.75 338.089844 43.894531 333.972656 44.191406 Z M 333.972656 44.191406 "/><path style=" stroke:none;fill-rule:evenodd;fill:#f49617;fill-opacity:1;" d="M 300.277344 58.5 C 298.414062 58.917969 296.574219 59.203125 294.839844 59.382812 L 285.351562 60.484375 C 280.550781 60.949219 277.410156 68.839844 278.148438 76.699219 C 279.25 84.5 284.128906 91.429688 288.929688 90.796875 L 291.332031 90.5 L 297.925781 107.039062 C 298.511719 108.511719 299.765625 109.171875 301.425781 108.976562 L 311.347656 107.792969 C 313.679688 107.53125 314.433594 105.8125 313.65625 103.875 L 311.640625 98.804688 C 311.152344 97.554688 310.585938 97.109375 309.433594 96.300781 L 306.8125 94.484375 C 301.179688 81.535156 299.492188 69.609375 300.277344 58.5 Z M 300.277344 58.5 "/></g></svg>