<svg xmlns="http://www.w3.org/2000/svg" xmlns:xlink="http://www.w3.org/1999/xlink" width="500" zoomAndPan="magnify" viewBox="0 0 375 374.999991" height="500" preserveAspectRatio="xMidYMid meet" version="1.2"><defs><clipPath id="368aa192eb"><path d="M 5.375 17 L 369.875 17 L 369.875 291 L 5.375 291 Z M 5.375 17 "/></clipPath><clipPath id="a1e0fa938f"><path d="M 5.375 222 L 369.875 222 L 369.875 231 L 5.375 231 Z M 5.375 222 "/></clipPath></defs><g id="6fd76ebca4"><path style=" stroke:none;fill-rule:nonzero;fill:#f49617;fill-opacity:1;" d="M 182.320312 180.296875 C 181.84375 180.296875 181.363281 180.214844 180.886719 180.039062 C 178.753906 179.25 177.664062 176.875 178.457031 174.742188 L 217.335938 69.878906 C 218.125 67.742188 220.492188 66.65625 222.632812 67.449219 C 224.769531 68.238281 225.855469 70.613281 225.066406 72.746094 L 186.183594 177.609375 C 185.574219 179.265625 184 180.296875 182.320312 180.296875 Z M 182.320312 180.296875 "/><path style=" stroke:none;fill-rule:nonzero;fill:#f49617;fill-opacity:1;" d="M 89.859375 160.742188 C 76.433594 160.742188 65.515625 150.390625 65.515625 137.675781 L 65.515625 91.34375 C 65.515625 89.070312 67.363281 87.226562 69.636719 87.226562 C 71.910156 87.226562 73.757812 89.070312 73.757812 91.34375 L 73.757812 137.675781 C 73.757812 145.851562 80.976562 152.5 89.859375 152.5 C 98.742188 152.5 105.960938 145.851562 105.960938 137.675781 L 105.960938 91.34375 C 105.960938 89.070312 107.808594 87.226562 110.082031 87.226562 C 112.355469 87.226562 114.203125 89.070312 114.203125 91.34375 L 114.203125 137.675781 C 114.203125 150.390625 103.285156 160.742188 89.859375 160.742188 Z M 89.859375 160.742188 "/><path style=" stroke:none;fill-rule:nonzero;fill:#f49617;fill-opacity:1;" d="M 129.621094 160.742188 C 128.960938 160.742188 128.292969 160.585938 127.667969 160.246094 C 125.664062 159.167969 124.914062 156.671875 125.996094 154.667969 L 161.414062 88.921875 C 162.492188 86.921875 164.992188 86.171875 166.992188 87.25 C 168.996094 88.328125 169.746094 90.828125 168.664062 92.828125 L 133.246094 158.574219 C 132.511719 159.949219 131.085938 160.742188 129.621094 160.742188 Z M 129.621094 160.742188 "/><path style=" stroke:none;fill-rule:nonzero;fill:#f49617;fill-opacity:1;" d="M 165.046875 160.742188 C 163.582031 160.742188 162.164062 159.957031 161.414062 158.574219 L 125.996094 92.828125 C 124.914062 90.828125 125.664062 88.328125 127.667969 87.25 C 129.671875 86.171875 132.167969 86.921875 133.246094 88.921875 L 168.664062 154.667969 C 169.746094 156.671875 168.996094 159.167969 166.992188 160.246094 C 166.375 160.578125 165.707031 160.742188 165.046875 160.742188 Z M 165.046875 160.742188 "/><path style=" stroke:none;fill-rule:nonzero;fill:#f49617;fill-opacity:1;" d="M 258.703125 160.742188 C 245.28125 160.742188 234.359375 150.390625 234.359375 137.675781 L 234.359375 91.34375 C 234.359375 89.070312 236.207031 87.226562 238.480469 87.226562 C 240.757812 87.226562 242.601562 89.070312 242.601562 91.34375 L 242.601562 137.675781 C 242.601562 145.851562 249.820312 152.5 258.703125 152.5 C 267.585938 152.5 274.808594 145.851562 274.808594 137.675781 L 274.808594 91.34375 C 274.808594 89.070312 276.652344 87.226562 278.925781 87.226562 C 281.203125 87.226562 283.046875 89.070312 283.046875 91.34375 L 283.046875 137.675781 C 283.039062 150.390625 272.121094 160.742188 258.703125 160.742188 Z M 258.703125 160.742188 "/><path style=" stroke:none;fill-rule:nonzero;fill:#f49617;fill-opacity:1;" d="M 305.28125 165.207031 C 303.007812 165.207031 301.160156 163.363281 301.160156 161.085938 L 301.136719 86.410156 C 301.136719 84.136719 302.980469 82.289062 305.257812 82.289062 C 307.53125 82.289062 309.375 84.136719 309.375 86.410156 L 309.402344 161.085938 C 309.410156 163.363281 307.5625 165.199219 305.28125 165.207031 C 305.289062 165.207031 305.28125 165.207031 305.28125 165.207031 Z M 305.28125 165.207031 "/><path style=" stroke:none;fill-rule:nonzero;fill:#f49617;fill-opacity:1;" d="M 147.71875 270.023438 C 140.203125 270.023438 134.085938 263.90625 134.085938 256.390625 C 134.085938 248.875 140.203125 242.761719 147.71875 242.761719 C 155.234375 242.761719 161.347656 248.875 161.347656 256.390625 C 161.347656 263.90625 155.234375 270.023438 147.71875 270.023438 Z M 147.71875 251.003906 C 144.742188 251.003906 142.328125 253.417969 142.328125 256.390625 C 142.328125 259.367188 144.742188 261.78125 147.71875 261.78125 C 150.691406 261.78125 153.105469 259.367188 153.105469 256.390625 C 153.105469 253.417969 150.691406 251.003906 147.71875 251.003906 Z M 147.71875 251.003906 "/><path style=" stroke:none;fill-rule:nonzero;fill:#f49617;fill-opacity:1;" d="M 187.460938 270.023438 C 179.945312 270.023438 173.832031 263.90625 173.832031 256.390625 C 173.832031 248.875 179.945312 242.761719 187.460938 242.761719 C 194.976562 242.761719 201.09375 248.875 201.09375 256.390625 C 201.09375 263.90625 194.976562 270.023438 187.460938 270.023438 Z M 187.460938 251.003906 C 184.488281 251.003906 182.074219 253.417969 182.074219 256.390625 C 182.074219 259.367188 184.488281 261.78125 187.460938 261.78125 C 190.4375 261.78125 192.851562 259.367188 192.851562 256.390625 C 192.851562 253.417969 190.4375 251.003906 187.460938 251.003906 Z M 187.460938 251.003906 "/><path style=" stroke:none;fill-rule:nonzero;fill:#f49617;fill-opacity:1;" d="M 227.207031 270.023438 C 219.691406 270.023438 213.578125 263.90625 213.578125 256.390625 C 213.578125 248.875 219.691406 242.761719 227.207031 242.761719 C 234.722656 242.761719 240.839844 248.875 240.839844 256.390625 C 240.839844 263.90625 234.722656 270.023438 227.207031 270.023438 Z M 227.207031 251.003906 C 224.234375 251.003906 221.820312 253.417969 221.820312 256.390625 C 221.820312 259.367188 224.234375 261.78125 227.207031 261.78125 C 230.183594 261.78125 232.597656 259.367188 232.597656 256.390625 C 232.597656 253.417969 230.183594 251.003906 227.207031 251.003906 Z M 227.207031 251.003906 "/><g clip-rule="nonzero" clip-path="url(#368aa192eb)"><path style=" stroke:none;fill-rule:nonzero;fill:#f49617;fill-opacity:1;" d="M 344.003906 290.648438 L 30.921875 290.648438 C 16.820312 290.648438 5.339844 279.175781 5.339844 265.070312 L 5.339844 42.691406 C 5.339844 28.59375 16.8125 17.113281 30.921875 17.113281 L 344.003906 17.113281 C 358.113281 17.113281 369.582031 28.582031 369.582031 42.691406 L 369.582031 265.070312 C 369.582031 279.175781 358.113281 290.648438 344.003906 290.648438 Z M 30.921875 25.351562 C 21.363281 25.351562 13.582031 33.132812 13.582031 42.691406 L 13.582031 265.070312 C 13.582031 274.628906 21.363281 282.40625 30.921875 282.40625 L 344.003906 282.40625 C 353.5625 282.40625 361.34375 274.628906 361.34375 265.070312 L 361.34375 42.691406 C 361.34375 33.132812 353.5625 25.351562 344.003906 25.351562 Z M 30.921875 25.351562 "/></g><g clip-rule="nonzero" clip-path="url(#a1e0fa938f)"><path style=" stroke:none;fill-rule:nonzero;fill:#f49617;fill-opacity:1;" d="M 365.464844 230.375 L 9.460938 230.375 C 7.1875 230.375 5.339844 228.53125 5.339844 226.253906 C 5.339844 223.980469 7.1875 222.136719 9.460938 222.136719 L 365.464844 222.136719 C 367.738281 222.136719 369.582031 223.980469 369.582031 226.253906 C 369.582031 228.53125 367.738281 230.375 365.464844 230.375 Z M 365.464844 230.375 "/></g><path style=" stroke:none;fill-rule:nonzero;fill:#f49617;fill-opacity:1;" d="M 253.296875 328.6875 C 251.023438 328.6875 249.179688 326.84375 249.179688 324.566406 L 249.179688 286.527344 C 249.179688 284.253906 251.023438 282.40625 253.296875 282.40625 C 255.574219 282.40625 257.417969 284.253906 257.417969 286.527344 L 257.417969 324.566406 C 257.417969 326.84375 255.574219 328.6875 253.296875 328.6875 Z M 123.582031 328.6875 C 121.304688 328.6875 119.460938 326.84375 119.460938 324.566406 L 119.460938 286.527344 C 119.460938 284.253906 121.304688 282.40625 123.582031 282.40625 C 125.855469 282.40625 127.699219 284.253906 127.699219 286.527344 L 127.699219 324.566406 C 127.699219 326.84375 125.855469 328.6875 123.582031 328.6875 Z M 123.582031 328.6875 "/><path style=" stroke:none;fill-rule:nonzero;fill:#f49617;fill-opacity:1;" d="M 275.730469 357.949219 L 99.195312 357.949219 C 88.855469 357.949219 80.449219 349.539062 80.449219 339.203125 C 80.449219 328.859375 88.863281 320.457031 99.195312 320.457031 L 275.730469 320.457031 C 286.070312 320.457031 294.476562 328.871094 294.476562 339.203125 C 294.484375 349.539062 286.070312 357.949219 275.730469 357.949219 Z M 99.195312 328.6875 C 93.402344 328.6875 88.6875 333.402344 88.6875 339.195312 C 88.6875 344.988281 93.402344 349.703125 99.195312 349.703125 L 275.730469 349.703125 C 281.523438 349.703125 286.238281 344.988281 286.238281 339.195312 C 286.238281 333.402344 281.523438 328.6875 275.730469 328.6875 Z M 99.195312 328.6875 "/></g></svg>