<svg xmlns="http://www.w3.org/2000/svg" xmlns:xlink="http://www.w3.org/1999/xlink" width="500" zoomAndPan="magnify" viewBox="0 0 375 374.999991" height="500" preserveAspectRatio="xMidYMid meet" version="1.2"><defs><clipPath id="87aafb2447"><path d="M 4.21875 101 L 160 101 L 160 248 L 4.21875 248 Z M 4.21875 101 "/></clipPath><clipPath id="5445478adf"><path d="M 228 202 L 370.96875 202 L 370.96875 325 L 228 325 Z M 228 202 "/></clipPath></defs><g id="d8a1ba21ba"><path style=" stroke:none;fill-rule:nonzero;fill:#f49617;fill-opacity:1;" d="M 215.824219 339.957031 L 140.847656 339.957031 C 137.515625 339.957031 134.597656 337.039062 134.597656 333.707031 C 134.597656 330.375 137.515625 327.460938 140.847656 327.460938 L 215.824219 327.460938 C 219.15625 327.460938 222.074219 330.375 222.074219 333.707031 C 222.074219 337.039062 219.15625 339.957031 215.824219 339.957031 Z M 215.824219 339.957031 "/><path style=" stroke:none;fill-rule:nonzero;fill:#f49617;fill-opacity:1;" d="M 212.078125 47.539062 L 144.59375 47.539062 C 131.683594 47.539062 120.851562 36.710938 120.851562 23.796875 L 120.851562 6.300781 C 120.851562 2.96875 123.769531 0.0546875 127.101562 0.0546875 C 130.433594 0.0546875 133.347656 2.96875 133.347656 6.300781 L 133.347656 23.796875 C 133.347656 30.042969 138.347656 35.042969 144.59375 35.042969 L 212.078125 35.042969 C 218.324219 35.042969 223.324219 30.042969 223.324219 23.796875 L 223.324219 6.300781 C 223.324219 2.96875 226.238281 0.0546875 229.570312 0.0546875 C 232.902344 0.0546875 235.820312 2.96875 235.820312 6.300781 L 235.820312 23.796875 C 235.820312 36.710938 225.40625 47.539062 212.078125 47.539062 Z M 212.078125 47.539062 "/><path style=" stroke:none;fill-rule:nonzero;fill:#f49617;fill-opacity:1;" d="M 279.140625 299.136719 C 277.890625 299.136719 277.058594 298.71875 276.226562 298.300781 C 274.140625 297.050781 272.890625 294.96875 272.890625 292.886719 L 272.890625 234.570312 C 272.890625 232.488281 274.140625 230.40625 276.226562 229.15625 C 278.308594 227.90625 280.808594 228.320312 282.472656 229.15625 L 329.125 258.3125 C 330.792969 259.5625 332.042969 261.644531 332.042969 263.726562 C 332.042969 265.8125 330.792969 267.894531 329.125 269.144531 L 282.472656 298.300781 C 281.640625 299.136719 280.390625 299.136719 279.140625 299.136719 Z M 285.390625 245.816406 L 285.390625 281.640625 L 314.128906 263.726562 Z M 285.390625 245.816406 "/><path style=" stroke:none;fill-rule:nonzero;fill:#f49617;fill-opacity:1;" d="M 333.707031 178.335938 L 262.894531 178.335938 C 245.398438 178.335938 230.820312 164.171875 230.820312 146.261719 L 230.820312 81.695312 C 230.820312 64.203125 244.984375 49.621094 262.894531 49.621094 L 333.707031 49.621094 C 351.203125 49.621094 365.78125 63.785156 365.78125 81.695312 L 365.78125 146.261719 C 365.78125 163.757812 351.203125 178.335938 333.707031 178.335938 Z M 262.894531 62.117188 C 252.066406 62.117188 243.316406 70.867188 243.316406 81.695312 L 243.316406 146.261719 C 243.316406 157.09375 252.066406 165.839844 262.894531 165.839844 L 333.707031 165.839844 C 344.539062 165.839844 353.285156 157.09375 353.285156 146.261719 L 353.285156 81.695312 C 353.285156 70.867188 344.539062 62.117188 333.707031 62.117188 Z M 262.894531 62.117188 "/><path style=" stroke:none;fill-rule:nonzero;fill:#f49617;fill-opacity:1;" d="M 359.535156 144.59375 C 357.867188 144.59375 356.203125 143.761719 354.953125 142.511719 L 329.542969 114.1875 C 327.875 112.519531 324.960938 110.023438 321.628906 110.023438 C 318.296875 110.023438 315.378906 112.105469 313.714844 114.1875 L 288.722656 142.511719 C 287.472656 143.761719 285.804688 144.59375 284.140625 144.59375 C 282.472656 144.59375 280.808594 143.761719 279.558594 142.511719 L 263.726562 125.019531 C 263.3125 124.601562 262.0625 123.351562 260.8125 123.351562 C 259.5625 123.351562 258.3125 124.601562 257.480469 125.019531 L 241.652344 142.511719 C 239.152344 145.011719 235.402344 145.429688 232.902344 142.929688 C 230.40625 140.429688 229.988281 136.679688 232.488281 134.183594 L 248.316406 116.6875 C 255.398438 108.773438 265.8125 108.773438 272.890625 116.6875 L 284.140625 129.183594 L 304.550781 106.273438 C 309.546875 100.859375 315.378906 97.941406 321.628906 97.941406 C 327.875 97.941406 333.707031 100.859375 338.707031 106.273438 L 364.117188 134.597656 C 366.617188 137.097656 366.199219 141.261719 363.699219 143.347656 C 362.449219 143.761719 360.785156 144.59375 359.535156 144.59375 Z M 359.535156 144.59375 "/><path style=" stroke:none;fill-rule:nonzero;fill:#f49617;fill-opacity:1;" d="M 284.140625 95.027344 C 280.808594 95.027344 277.890625 92.109375 277.890625 88.777344 C 277.890625 85.445312 280.808594 82.53125 284.140625 82.53125 C 287.472656 82.53125 290.386719 85.445312 290.386719 88.777344 C 290.386719 92.109375 287.472656 95.027344 284.140625 95.027344 Z M 284.140625 95.027344 "/><path style=" stroke:none;fill-rule:nonzero;fill:#f49617;fill-opacity:1;" d="M 68.367188 217.074219 C 52.953125 217.074219 40.457031 206.660156 40.457031 193.75 C 40.457031 180.835938 52.953125 170.421875 68.367188 170.421875 C 83.78125 170.421875 96.277344 180.835938 96.277344 193.75 C 96.277344 206.246094 83.78125 217.074219 68.367188 217.074219 Z M 68.367188 182.5 C 60.035156 182.5 52.953125 187.5 52.953125 193.332031 C 52.953125 199.164062 60.035156 204.160156 68.367188 204.160156 C 76.699219 204.160156 83.78125 199.164062 83.78125 193.332031 C 83.78125 187.5 76.699219 182.5 68.367188 182.5 Z M 68.367188 182.5 "/><path style=" stroke:none;fill-rule:nonzero;fill:#f49617;fill-opacity:1;" d="M 90.027344 199.578125 C 86.695312 199.578125 83.78125 196.664062 83.78125 193.332031 L 83.78125 139.179688 C 83.78125 135.847656 86.695312 132.933594 90.027344 132.933594 L 117.519531 132.933594 C 120.851562 132.933594 123.769531 135.847656 123.769531 139.179688 C 123.769531 142.511719 120.851562 145.429688 117.519531 145.429688 L 96.277344 145.429688 L 96.277344 193.75 C 96.277344 197.082031 93.359375 199.578125 90.027344 199.578125 Z M 90.027344 199.578125 "/><g clip-rule="nonzero" clip-path="url(#87aafb2447)"><path style=" stroke:none;fill-rule:nonzero;fill:#f49617;fill-opacity:1;" d="M 124.183594 247.898438 L 39.625 247.898438 C 20.046875 247.898438 4.21875 232.070312 4.21875 212.492188 L 4.21875 137.097656 C 4.21875 117.519531 20.046875 101.691406 39.625 101.691406 L 124.183594 101.691406 C 143.761719 101.691406 159.589844 117.519531 159.589844 137.097656 L 159.589844 212.492188 C 159.589844 232.070312 143.761719 247.898438 124.183594 247.898438 Z M 39.625 114.1875 C 27.128906 114.1875 16.714844 124.601562 16.714844 137.097656 L 16.714844 212.492188 C 16.714844 224.988281 27.128906 235.402344 39.625 235.402344 L 124.183594 235.402344 C 136.679688 235.402344 147.09375 224.988281 147.09375 212.492188 L 147.09375 137.097656 C 147.09375 124.601562 136.679688 114.1875 124.183594 114.1875 Z M 39.625 114.1875 "/></g><g clip-rule="nonzero" clip-path="url(#5445478adf)"><path style=" stroke:none;fill-rule:nonzero;fill:#f49617;fill-opacity:1;" d="M 343.289062 324.960938 L 256.230469 324.960938 C 241.234375 324.960938 228.738281 312.882812 228.738281 297.46875 L 228.738281 229.988281 C 228.738281 214.992188 240.816406 202.496094 256.230469 202.496094 L 343.289062 202.496094 C 358.285156 202.496094 370.78125 214.992188 370.78125 229.988281 L 370.78125 297.46875 C 370.363281 312.464844 358.285156 324.960938 343.289062 324.960938 Z M 256.230469 215.410156 C 247.898438 215.410156 241.234375 222.074219 241.234375 230.40625 L 241.234375 297.886719 C 241.234375 306.214844 247.898438 312.882812 256.230469 312.882812 L 343.289062 312.882812 C 351.621094 312.882812 358.285156 306.214844 358.285156 297.886719 L 358.285156 229.988281 C 358.285156 221.65625 351.621094 214.992188 343.289062 214.992188 L 256.230469 214.992188 Z M 256.230469 215.410156 "/></g><path style=" stroke:none;fill-rule:nonzero;fill:#f49617;fill-opacity:1;" d="M 268.726562 374.945312 L 87.945312 374.945312 C 71.699219 374.945312 57.953125 361.617188 57.953125 344.957031 L 57.953125 241.652344 C 57.953125 238.320312 60.871094 235.402344 64.203125 235.402344 C 67.535156 235.402344 70.449219 238.320312 70.449219 241.652344 L 70.449219 344.957031 C 70.449219 354.535156 78.363281 362.449219 87.945312 362.449219 L 268.726562 362.449219 C 278.308594 362.449219 286.222656 354.535156 286.222656 344.957031 L 286.222656 318.296875 C 286.222656 314.964844 289.136719 312.046875 292.46875 312.046875 C 295.800781 312.046875 298.71875 314.964844 298.71875 318.296875 L 298.71875 344.957031 C 298.71875 361.617188 285.390625 374.945312 268.726562 374.945312 Z M 292.46875 215.410156 C 289.136719 215.410156 286.222656 212.492188 286.222656 209.160156 L 286.222656 172.085938 C 286.222656 168.753906 289.136719 165.839844 292.46875 165.839844 C 295.800781 165.839844 298.71875 168.753906 298.71875 172.085938 L 298.71875 209.160156 C 298.71875 212.492188 295.800781 215.410156 292.46875 215.410156 Z M 64.203125 114.1875 C 60.871094 114.1875 57.953125 111.273438 57.953125 107.9375 L 57.953125 30.042969 C 57.953125 13.800781 71.28125 0.0546875 87.945312 0.0546875 L 268.726562 0.0546875 C 284.972656 0.0546875 298.71875 13.382812 298.71875 30.042969 L 298.71875 56.289062 C 298.71875 59.621094 295.800781 62.535156 292.46875 62.535156 C 289.136719 62.535156 286.222656 59.621094 286.222656 56.289062 L 286.222656 30.042969 C 286.222656 20.464844 278.308594 12.550781 268.726562 12.550781 L 87.945312 12.550781 C 78.363281 12.550781 70.449219 20.464844 70.449219 30.042969 L 70.449219 108.355469 C 70.449219 111.6875 67.949219 114.1875 64.203125 114.1875 Z M 64.203125 114.1875 "/></g></svg>