<svg xmlns="http://www.w3.org/2000/svg" xmlns:xlink="http://www.w3.org/1999/xlink" width="500" zoomAndPan="magnify" viewBox="0 0 375 374.999991" height="500" preserveAspectRatio="xMidYMid meet" version="1.2"><defs><clipPath id="e9649e76c0"><path d="M 0 21.328125 L 375 21.328125 L 375 353.578125 L 0 353.578125 Z M 0 21.328125 "/></clipPath></defs><g id="8f57b487ab"><g clip-rule="nonzero" clip-path="url(#e9649e76c0)"><path style=" stroke:none;fill-rule:nonzero;fill:#f49617;fill-opacity:1;" d="M 146.628906 187.414062 C 146.628906 186.707031 146.664062 186 146.730469 185.292969 C 146.800781 184.585938 146.90625 183.886719 147.042969 183.191406 C 147.183594 182.496094 147.355469 181.808594 147.5625 181.128906 C 147.765625 180.449219 148.003906 179.78125 148.277344 179.128906 C 148.546875 178.472656 148.851562 177.832031 149.183594 177.207031 C 149.519531 176.582031 149.882812 175.972656 150.277344 175.382812 C 150.671875 174.792969 151.09375 174.222656 151.542969 173.675781 C 151.996094 173.128906 152.46875 172.601562 152.972656 172.101562 C 153.472656 171.597656 154 171.125 154.546875 170.671875 C 155.09375 170.222656 155.664062 169.800781 156.253906 169.40625 C 156.84375 169.011719 157.453125 168.648438 158.078125 168.316406 C 158.703125 167.980469 159.34375 167.675781 160 167.40625 C 160.652344 167.132812 161.320312 166.894531 162 166.691406 C 162.679688 166.484375 163.367188 166.3125 164.0625 166.171875 C 164.757812 166.035156 165.457031 165.929688 166.164062 165.863281 C 166.871094 165.792969 167.578125 165.757812 168.285156 165.757812 C 168.996094 165.757812 169.703125 165.792969 170.410156 165.863281 C 171.117188 165.929688 171.816406 166.035156 172.511719 166.171875 C 173.207031 166.3125 173.894531 166.484375 174.574219 166.691406 C 175.253906 166.894531 175.917969 167.132812 176.574219 167.40625 C 177.230469 167.675781 177.871094 167.980469 178.496094 168.316406 C 179.121094 168.648438 179.730469 169.011719 180.320312 169.40625 C 180.910156 169.800781 181.476562 170.222656 182.027344 170.671875 C 182.574219 171.125 183.101562 171.597656 183.601562 172.101562 C 184.101562 172.601562 184.578125 173.128906 185.027344 173.675781 C 185.480469 174.222656 185.902344 174.792969 186.296875 175.382812 C 186.6875 175.972656 187.054688 176.582031 187.386719 177.207031 C 187.722656 177.832031 188.023438 178.472656 188.296875 179.128906 C 188.566406 179.78125 188.808594 180.449219 189.011719 181.128906 C 189.21875 181.808594 189.390625 182.496094 189.527344 183.191406 C 189.667969 183.886719 189.773438 184.585938 189.839844 185.292969 C 189.910156 186 189.945312 186.707031 189.945312 187.414062 C 189.945312 188.125 189.910156 188.832031 189.839844 189.539062 C 189.773438 190.246094 189.667969 190.945312 189.527344 191.640625 C 189.390625 192.335938 189.21875 193.023438 189.011719 193.703125 C 188.808594 194.382812 188.566406 195.050781 188.296875 195.703125 C 188.023438 196.359375 187.722656 197 187.386719 197.625 C 187.054688 198.25 186.6875 198.859375 186.296875 199.449219 C 185.902344 200.039062 185.480469 200.609375 185.027344 201.15625 C 184.578125 201.703125 184.101562 202.230469 183.601562 202.730469 C 183.101562 203.230469 182.574219 203.707031 182.027344 204.160156 C 181.476562 204.609375 180.910156 205.03125 180.320312 205.425781 C 179.730469 205.820312 179.121094 206.183594 178.496094 206.515625 C 177.871094 206.851562 177.230469 207.15625 176.574219 207.425781 C 175.917969 207.699219 175.253906 207.9375 174.574219 208.140625 C 173.894531 208.347656 173.207031 208.519531 172.511719 208.660156 C 171.816406 208.796875 171.117188 208.902344 170.410156 208.96875 C 169.703125 209.039062 168.996094 209.074219 168.285156 209.074219 C 167.578125 209.074219 166.871094 209.039062 166.164062 208.96875 C 165.457031 208.898438 164.757812 208.792969 164.0625 208.65625 C 163.367188 208.515625 162.679688 208.34375 162.003906 208.136719 C 161.324219 207.929688 160.65625 207.691406 160.003906 207.417969 C 159.347656 207.148438 158.707031 206.84375 158.082031 206.511719 C 157.457031 206.175781 156.847656 205.8125 156.257812 205.417969 C 155.671875 205.023438 155.101562 204.601562 154.554688 204.152344 C 154.003906 203.699219 153.480469 203.226562 152.980469 202.722656 C 152.476562 202.222656 152 201.699219 151.550781 201.148438 C 151.101562 200.601562 150.679688 200.03125 150.285156 199.441406 C 149.890625 198.855469 149.527344 198.246094 149.191406 197.621094 C 148.859375 196.996094 148.554688 196.355469 148.28125 195.699219 C 148.011719 195.046875 147.773438 194.378906 147.566406 193.699219 C 147.359375 193.023438 147.1875 192.335938 147.046875 191.640625 C 146.910156 190.945312 146.804688 190.242188 146.734375 189.539062 C 146.664062 188.832031 146.628906 188.125 146.628906 187.414062 Z M 144.570312 149.160156 C 148.746094 146.558594 153.230469 144.707031 158.023438 143.597656 L 159.242188 138.726562 L 160.730469 132.789062 C 165.769531 132.085938 170.804688 132.085938 175.839844 132.789062 L 177.332031 138.726562 L 178.574219 143.597656 C 183.363281 144.707031 187.847656 146.5625 192.027344 149.160156 L 196.328125 146.597656 L 201.597656 143.449219 C 205.648438 146.523438 209.207031 150.082031 212.28125 154.132812 L 209.132812 159.382812 L 206.550781 163.703125 C 209.148438 167.882812 211.007812 172.367188 212.132812 177.15625 L 217.003906 178.375 L 222.941406 179.886719 C 223.617188 184.914062 223.617188 189.945312 222.941406 194.972656 L 217.003906 196.484375 L 212.132812 197.703125 C 211.007812 202.492188 209.148438 206.976562 206.550781 211.15625 L 209.132812 215.457031 L 212.28125 220.726562 C 209.203125 224.773438 205.640625 228.332031 201.597656 231.410156 L 196.328125 228.261719 L 192.027344 225.683594 C 187.847656 228.285156 183.367188 230.140625 178.574219 231.257812 L 177.335938 236.125 L 175.84375 242.066406 C 170.808594 242.761719 165.769531 242.761719 160.734375 242.066406 L 159.246094 236.125 L 158.027344 231.257812 C 153.238281 230.128906 148.753906 228.269531 144.574219 225.675781 L 140.25 228.253906 L 135.003906 231.402344 C 130.953125 228.332031 127.390625 224.769531 124.320312 220.71875 L 127.449219 215.449219 L 130.03125 211.148438 C 127.433594 206.96875 125.574219 202.484375 124.445312 197.695312 L 119.597656 196.476562 L 113.660156 194.964844 C 112.957031 189.9375 112.957031 184.90625 113.660156 179.878906 L 119.597656 178.367188 L 124.46875 177.148438 C 125.578125 172.355469 127.429688 167.871094 130.027344 163.695312 L 127.449219 159.371094 L 124.320312 154.125 C 127.390625 150.074219 130.953125 146.515625 135.003906 143.441406 L 140.25 146.589844 Z M 136.261719 187.417969 C 136.261719 188.464844 136.3125 189.511719 136.414062 190.554688 C 136.515625 191.601562 136.671875 192.636719 136.875 193.664062 C 137.082031 194.695312 137.335938 195.710938 137.640625 196.714844 C 137.945312 197.71875 138.296875 198.703125 138.699219 199.671875 C 139.101562 200.640625 139.546875 201.589844 140.042969 202.515625 C 140.535156 203.4375 141.074219 204.339844 141.65625 205.210938 C 142.242188 206.082031 142.863281 206.921875 143.53125 207.734375 C 144.195312 208.546875 144.898438 209.320312 145.640625 210.0625 C 146.382812 210.804688 147.160156 211.507812 147.96875 212.175781 C 148.78125 212.839844 149.621094 213.464844 150.492188 214.046875 C 151.367188 214.628906 152.265625 215.167969 153.191406 215.660156 C 154.113281 216.15625 155.0625 216.605469 156.03125 217.003906 C 157 217.40625 157.984375 217.761719 158.988281 218.066406 C 159.992188 218.367188 161.011719 218.625 162.039062 218.828125 C 163.066406 219.03125 164.105469 219.1875 165.148438 219.289062 C 166.191406 219.390625 167.238281 219.445312 168.285156 219.445312 C 169.335938 219.445312 170.382812 219.390625 171.425781 219.289062 C 172.46875 219.1875 173.507812 219.03125 174.535156 218.828125 C 175.5625 218.625 176.578125 218.367188 177.582031 218.066406 C 178.585938 217.761719 179.574219 217.40625 180.542969 217.003906 C 181.511719 216.605469 182.457031 216.15625 183.382812 215.660156 C 184.308594 215.167969 185.207031 214.628906 186.078125 214.046875 C 186.953125 213.464844 187.792969 212.839844 188.605469 212.175781 C 189.414062 211.507812 190.191406 210.804688 190.933594 210.0625 C 191.675781 209.320312 192.378906 208.546875 193.042969 207.734375 C 193.707031 206.921875 194.332031 206.082031 194.914062 205.210938 C 195.5 204.339844 196.035156 203.4375 196.53125 202.515625 C 197.027344 201.589844 197.472656 200.640625 197.875 199.671875 C 198.277344 198.703125 198.628906 197.71875 198.933594 196.714844 C 199.238281 195.710938 199.492188 194.695312 199.699219 193.664062 C 199.902344 192.636719 200.054688 191.601562 200.160156 190.554688 C 200.261719 189.511719 200.3125 188.464844 200.3125 187.417969 C 200.3125 186.367188 200.261719 185.320312 200.160156 184.277344 C 200.054688 183.234375 199.902344 182.199219 199.699219 181.167969 C 199.492188 180.140625 199.238281 179.125 198.933594 178.121094 C 198.628906 177.117188 198.277344 176.128906 197.875 175.160156 C 197.472656 174.191406 197.027344 173.246094 196.53125 172.320312 C 196.035156 171.394531 195.5 170.496094 194.914062 169.625 C 194.332031 168.753906 193.707031 167.910156 193.042969 167.101562 C 192.378906 166.289062 191.675781 165.511719 190.933594 164.769531 C 190.191406 164.03125 189.414062 163.324219 188.605469 162.660156 C 187.792969 161.996094 186.953125 161.371094 186.078125 160.789062 C 185.207031 160.207031 184.308594 159.667969 183.382812 159.171875 C 182.457031 158.679688 181.511719 158.230469 180.542969 157.828125 C 179.574219 157.425781 178.585938 157.074219 177.582031 156.769531 C 176.578125 156.464844 175.5625 156.210938 174.535156 156.007812 C 173.507812 155.800781 172.46875 155.648438 171.425781 155.546875 C 170.382812 155.441406 169.335938 155.390625 168.285156 155.390625 C 167.238281 155.390625 166.191406 155.445312 165.148438 155.546875 C 164.105469 155.652344 163.070312 155.808594 162.042969 156.011719 C 161.011719 156.21875 159.996094 156.472656 158.996094 156.777344 C 157.992188 157.082031 157.003906 157.4375 156.035156 157.839844 C 155.066406 158.242188 154.121094 158.6875 153.195312 159.183594 C 152.273438 159.679688 151.375 160.214844 150.503906 160.800781 C 149.632812 161.382812 148.789062 162.007812 147.980469 162.671875 C 147.167969 163.335938 146.394531 164.039062 145.652344 164.78125 C 144.910156 165.523438 144.207031 166.296875 143.542969 167.109375 C 142.875 167.917969 142.253906 168.761719 141.667969 169.632812 C 141.085938 170.503906 140.546875 171.402344 140.054688 172.328125 C 139.558594 173.25 139.109375 174.199219 138.707031 175.167969 C 138.304688 176.132812 137.953125 177.121094 137.648438 178.125 C 137.34375 179.125 137.085938 180.140625 136.882812 181.171875 C 136.675781 182.199219 136.523438 183.234375 136.417969 184.277344 C 136.3125 185.320312 136.261719 186.367188 136.261719 187.414062 Z M 243.273438 118.664062 C 243.050781 118.410156 242.800781 118.179688 242.535156 117.976562 C 242.265625 117.769531 241.980469 117.589844 241.675781 117.441406 C 241.371094 117.292969 241.054688 117.171875 240.730469 117.085938 C 240.402344 116.996094 240.070312 116.941406 239.730469 116.921875 C 239.394531 116.898438 239.054688 116.910156 238.722656 116.953125 C 238.386719 116.996094 238.058594 117.070312 237.734375 117.179688 C 237.414062 117.289062 237.109375 117.425781 236.8125 117.59375 C 236.519531 117.765625 236.246094 117.960938 235.992188 118.183594 L 220.207031 131.988281 C 220.023438 132.15625 219.847656 132.328125 219.683594 132.515625 C 219.460938 132.769531 219.261719 133.042969 219.09375 133.335938 C 218.921875 133.628906 218.785156 133.9375 218.675781 134.257812 C 218.566406 134.578125 218.488281 134.910156 218.445312 135.246094 C 218.402344 135.582031 218.390625 135.917969 218.414062 136.257812 C 218.4375 136.59375 218.492188 136.925781 218.578125 137.253906 C 218.667969 137.582031 218.785156 137.898438 218.9375 138.199219 C 219.085938 138.503906 219.265625 138.789062 219.472656 139.058594 C 219.679688 139.328125 219.910156 139.574219 220.164062 139.796875 L 235.992188 153.648438 C 236.246094 153.875 236.519531 154.074219 236.8125 154.25 C 237.105469 154.421875 237.414062 154.566406 237.738281 154.675781 C 238.058594 154.789062 238.390625 154.867188 238.726562 154.914062 C 239.066406 154.960938 239.40625 154.976562 239.746094 154.953125 C 240.085938 154.933594 240.421875 154.878906 240.75 154.792969 C 241.082031 154.703125 241.398438 154.585938 241.707031 154.4375 C 242.011719 154.285156 242.300781 154.105469 242.570312 153.898438 C 242.84375 153.691406 243.089844 153.460938 243.316406 153.203125 C 243.539062 152.945312 243.738281 152.667969 243.90625 152.375 C 244.078125 152.078125 244.214844 151.769531 244.324219 151.445312 C 244.433594 151.121094 244.507812 150.789062 244.550781 150.453125 C 244.59375 150.113281 244.605469 149.773438 244.578125 149.433594 C 244.554688 149.09375 244.496094 148.757812 244.40625 148.429688 C 244.316406 148.101562 244.195312 147.785156 244.039062 147.480469 C 243.886719 147.175781 243.703125 146.886719 243.496094 146.617188 C 243.285156 146.351562 243.046875 146.105469 242.789062 145.882812 L 231.394531 135.914062 L 242.789062 125.945312 C 243.042969 125.722656 243.273438 125.476562 243.480469 125.207031 C 243.6875 124.9375 243.863281 124.652344 244.011719 124.347656 C 244.164062 124.042969 244.28125 123.730469 244.371094 123.402344 C 244.457031 123.074219 244.511719 122.742188 244.535156 122.402344 C 244.558594 122.066406 244.546875 121.730469 244.503906 121.394531 C 244.457031 121.058594 244.382812 120.730469 244.273438 120.410156 C 244.167969 120.085938 244.027344 119.78125 243.859375 119.488281 C 243.691406 119.191406 243.496094 118.917969 243.273438 118.664062 Z M 374.816406 44.371094 L 374.816406 191.277344 C 374.816406 192.03125 374.78125 192.785156 374.703125 193.535156 C 374.628906 194.285156 374.519531 195.03125 374.371094 195.769531 C 374.222656 196.511719 374.039062 197.242188 373.820312 197.964844 C 373.601562 198.683594 373.34375 199.394531 373.054688 200.089844 C 372.765625 200.789062 372.445312 201.46875 372.089844 202.132812 C 371.734375 202.800781 371.34375 203.445312 370.925781 204.074219 C 370.507812 204.699219 370.058594 205.304688 369.578125 205.886719 C 369.101562 206.472656 368.59375 207.03125 368.058594 207.5625 C 367.527344 208.097656 366.96875 208.601562 366.386719 209.082031 C 365.800781 209.558594 365.195312 210.007812 364.570312 210.429688 C 363.941406 210.847656 363.296875 211.234375 362.632812 211.59375 C 361.964844 211.949219 361.285156 212.269531 360.589844 212.558594 C 359.890625 212.847656 359.183594 213.101562 358.460938 213.324219 C 357.738281 213.542969 357.007812 213.726562 356.269531 213.875 C 355.527344 214.023438 354.78125 214.132812 354.03125 214.207031 C 353.28125 214.28125 352.527344 214.320312 351.773438 214.320312 L 220.523438 214.320312 L 218.464844 210.882812 C 219.160156 209.390625 219.789062 207.859375 220.355469 206.308594 L 232.253906 203.308594 L 232.359375 202.46875 L 351.773438 202.46875 C 352.507812 202.464844 353.234375 202.390625 353.953125 202.246094 C 354.675781 202.101562 355.375 201.890625 356.050781 201.609375 C 356.730469 201.328125 357.371094 200.980469 357.980469 200.574219 C 358.59375 200.164062 359.15625 199.703125 359.675781 199.183594 C 360.195312 198.664062 360.660156 198.097656 361.066406 197.488281 C 361.476562 196.878906 361.820312 196.234375 362.101562 195.558594 C 362.382812 194.878906 362.597656 194.179688 362.742188 193.460938 C 362.886719 192.742188 362.957031 192.015625 362.960938 191.28125 L 362.960938 71.902344 L 173.03125 71.902344 L 173.03125 122.0625 C 171.457031 121.957031 169.882812 121.894531 168.285156 121.894531 C 165.914062 121.890625 163.550781 122.023438 161.191406 122.292969 L 161.191406 44.371094 C 161.195312 43.617188 161.234375 42.863281 161.308594 42.113281 C 161.386719 41.363281 161.5 40.617188 161.648438 39.878906 C 161.796875 39.140625 161.980469 38.410156 162.199219 37.6875 C 162.421875 36.96875 162.675781 36.257812 162.964844 35.5625 C 163.253906 34.867188 163.578125 34.1875 163.933594 33.519531 C 164.289062 32.855469 164.679688 32.210938 165.097656 31.585938 C 165.515625 30.957031 165.964844 30.351562 166.445312 29.769531 C 166.921875 29.1875 167.429688 28.628906 167.960938 28.097656 C 168.496094 27.5625 169.054688 27.058594 169.636719 26.578125 C 170.21875 26.101562 170.824219 25.652344 171.449219 25.230469 C 172.078125 24.8125 172.722656 24.425781 173.386719 24.066406 C 174.050781 23.710938 174.734375 23.390625 175.429688 23.101562 C 176.125 22.808594 176.832031 22.554688 177.554688 22.335938 C 178.277344 22.113281 179.007812 21.929688 179.746094 21.78125 C 180.484375 21.632812 181.230469 21.519531 181.980469 21.445312 C 182.730469 21.371094 183.484375 21.332031 184.238281 21.328125 L 351.773438 21.328125 C 352.527344 21.332031 353.28125 21.371094 354.03125 21.445312 C 354.78125 21.519531 355.527344 21.632812 356.265625 21.78125 C 357.003906 21.929688 357.734375 22.113281 358.457031 22.335938 C 359.175781 22.554688 359.886719 22.808594 360.582031 23.101562 C 361.277344 23.390625 361.957031 23.710938 362.625 24.066406 C 363.289062 24.425781 363.933594 24.8125 364.5625 25.230469 C 365.1875 25.652344 365.792969 26.101562 366.375 26.578125 C 366.957031 27.058594 367.515625 27.5625 368.046875 28.097656 C 368.582031 28.628906 369.089844 29.1875 369.566406 29.769531 C 370.046875 30.351562 370.496094 30.957031 370.914062 31.585938 C 371.332031 32.210938 371.722656 32.855469 372.078125 33.519531 C 372.433594 34.1875 372.757812 34.867188 373.046875 35.5625 C 373.335938 36.257812 373.589844 36.96875 373.8125 37.6875 C 374.03125 38.410156 374.214844 39.140625 374.363281 39.878906 C 374.511719 40.617188 374.625 41.363281 374.699219 42.113281 C 374.777344 42.863281 374.816406 43.617188 374.816406 44.371094 Z M 192.546875 46.617188 C 192.546875 46.273438 192.515625 45.9375 192.449219 45.605469 C 192.378906 45.269531 192.28125 44.949219 192.152344 44.632812 C 192.019531 44.320312 191.859375 44.019531 191.671875 43.738281 C 191.480469 43.457031 191.265625 43.195312 191.027344 42.953125 C 190.785156 42.710938 190.523438 42.496094 190.242188 42.308594 C 189.960938 42.121094 189.660156 41.960938 189.347656 41.828125 C 189.03125 41.699219 188.707031 41.601562 188.375 41.535156 C 188.042969 41.464844 187.703125 41.433594 187.363281 41.433594 L 186.882812 41.433594 C 186.542969 41.433594 186.203125 41.464844 185.871094 41.53125 C 185.539062 41.597656 185.214844 41.695312 184.898438 41.828125 C 184.585938 41.957031 184.285156 42.117188 184.003906 42.304688 C 183.71875 42.496094 183.457031 42.710938 183.21875 42.949219 C 182.976562 43.191406 182.761719 43.453125 182.574219 43.734375 C 182.382812 44.019531 182.222656 44.316406 182.09375 44.632812 C 181.964844 44.945312 181.863281 45.269531 181.796875 45.605469 C 181.730469 45.9375 181.699219 46.273438 181.699219 46.617188 C 181.699219 46.957031 181.730469 47.292969 181.796875 47.625 C 181.863281 47.960938 181.964844 48.285156 182.09375 48.597656 C 182.222656 48.914062 182.382812 49.210938 182.574219 49.496094 C 182.761719 49.777344 182.976562 50.039062 183.21875 50.28125 C 183.457031 50.519531 183.71875 50.734375 184.003906 50.925781 C 184.285156 51.113281 184.585938 51.273438 184.898438 51.402344 C 185.214844 51.535156 185.539062 51.632812 185.871094 51.699219 C 186.203125 51.765625 186.542969 51.796875 186.882812 51.796875 L 187.363281 51.796875 C 187.703125 51.796875 188.042969 51.765625 188.375 51.699219 C 188.707031 51.628906 189.03125 51.53125 189.347656 51.402344 C 189.660156 51.269531 189.960938 51.109375 190.242188 50.921875 C 190.523438 50.734375 190.785156 50.519531 191.027344 50.277344 C 191.265625 50.035156 191.480469 49.773438 191.671875 49.492188 C 191.859375 49.210938 192.019531 48.910156 192.152344 48.597656 C 192.28125 48.285156 192.378906 47.960938 192.449219 47.625 C 192.515625 47.292969 192.546875 46.957031 192.546875 46.617188 Z M 209.714844 46.617188 C 209.714844 46.273438 209.683594 45.9375 209.617188 45.605469 C 209.550781 45.269531 209.453125 44.945312 209.320312 44.632812 C 209.191406 44.316406 209.03125 44.019531 208.84375 43.734375 C 208.652344 43.453125 208.4375 43.191406 208.199219 42.949219 C 207.957031 42.707031 207.695312 42.492188 207.414062 42.304688 C 207.128906 42.117188 206.832031 41.957031 206.515625 41.824219 C 206.203125 41.695312 205.878906 41.597656 205.542969 41.53125 C 205.210938 41.464844 204.871094 41.433594 204.53125 41.433594 L 204.050781 41.433594 C 203.710938 41.433594 203.371094 41.464844 203.039062 41.53125 C 202.703125 41.597656 202.378906 41.695312 202.066406 41.828125 C 201.75 41.957031 201.453125 42.117188 201.171875 42.304688 C 200.886719 42.496094 200.625 42.710938 200.382812 42.949219 C 200.144531 43.191406 199.929688 43.453125 199.738281 43.734375 C 199.550781 44.019531 199.390625 44.316406 199.261719 44.632812 C 199.128906 44.945312 199.03125 45.269531 198.964844 45.605469 C 198.898438 45.9375 198.867188 46.273438 198.867188 46.617188 C 198.867188 46.957031 198.898438 47.292969 198.964844 47.625 C 199.03125 47.960938 199.128906 48.285156 199.261719 48.597656 C 199.390625 48.914062 199.550781 49.210938 199.738281 49.496094 C 199.929688 49.777344 200.144531 50.039062 200.382812 50.28125 C 200.625 50.519531 200.886719 50.734375 201.171875 50.925781 C 201.453125 51.113281 201.75 51.273438 202.066406 51.402344 C 202.378906 51.535156 202.703125 51.632812 203.039062 51.699219 C 203.371094 51.765625 203.710938 51.796875 204.050781 51.796875 L 204.53125 51.796875 C 204.871094 51.800781 205.210938 51.765625 205.542969 51.699219 C 205.878906 51.632812 206.199219 51.535156 206.515625 51.40625 C 206.828125 51.273438 207.128906 51.113281 207.410156 50.925781 C 207.695312 50.738281 207.957031 50.519531 208.195312 50.28125 C 208.4375 50.039062 208.652344 49.777344 208.839844 49.496094 C 209.03125 49.210938 209.191406 48.914062 209.320312 48.597656 C 209.449219 48.285156 209.546875 47.960938 209.613281 47.625 C 209.679688 47.292969 209.714844 46.957031 209.714844 46.617188 Z M 226.882812 46.617188 C 226.882812 46.273438 226.851562 45.9375 226.785156 45.605469 C 226.71875 45.269531 226.621094 44.945312 226.488281 44.632812 C 226.359375 44.316406 226.199219 44.019531 226.011719 43.734375 C 225.820312 43.453125 225.605469 43.191406 225.367188 42.949219 C 225.125 42.707031 224.863281 42.492188 224.578125 42.304688 C 224.296875 42.117188 223.996094 41.957031 223.683594 41.824219 C 223.367188 41.695312 223.042969 41.597656 222.710938 41.53125 C 222.378906 41.464844 222.039062 41.433594 221.699219 41.433594 L 221.214844 41.433594 C 220.875 41.433594 220.539062 41.464844 220.207031 41.53125 C 219.871094 41.597656 219.546875 41.695312 219.234375 41.828125 C 218.917969 41.957031 218.621094 42.117188 218.335938 42.304688 C 218.054688 42.496094 217.792969 42.710938 217.550781 42.949219 C 217.3125 43.191406 217.097656 43.453125 216.90625 43.734375 C 216.71875 44.019531 216.558594 44.316406 216.425781 44.632812 C 216.296875 44.945312 216.199219 45.269531 216.132812 45.605469 C 216.066406 45.9375 216.03125 46.273438 216.03125 46.617188 C 216.03125 46.957031 216.066406 47.292969 216.132812 47.625 C 216.199219 47.960938 216.296875 48.285156 216.425781 48.597656 C 216.558594 48.914062 216.71875 49.210938 216.90625 49.496094 C 217.097656 49.777344 217.3125 50.039062 217.550781 50.28125 C 217.792969 50.519531 218.054688 50.734375 218.335938 50.925781 C 218.621094 51.113281 218.917969 51.273438 219.234375 51.402344 C 219.546875 51.535156 219.871094 51.632812 220.207031 51.699219 C 220.539062 51.765625 220.875 51.796875 221.214844 51.796875 L 221.699219 51.796875 C 222.039062 51.800781 222.375 51.765625 222.710938 51.699219 C 223.042969 51.632812 223.367188 51.535156 223.683594 51.40625 C 223.996094 51.273438 224.296875 51.113281 224.578125 50.925781 C 224.863281 50.734375 225.125 50.519531 225.363281 50.28125 C 225.605469 50.039062 225.820312 49.777344 226.007812 49.496094 C 226.199219 49.210938 226.359375 48.914062 226.488281 48.597656 C 226.617188 48.285156 226.714844 47.960938 226.78125 47.625 C 226.847656 47.292969 226.882812 46.957031 226.882812 46.617188 Z M 354.316406 46.617188 C 354.316406 46.273438 354.28125 45.9375 354.214844 45.605469 C 354.148438 45.269531 354.046875 44.949219 353.917969 44.632812 C 353.789062 44.320312 353.628906 44.019531 353.4375 43.738281 C 353.25 43.457031 353.035156 43.195312 352.792969 42.953125 C 352.554688 42.710938 352.292969 42.496094 352.007812 42.308594 C 351.726562 42.121094 351.429688 41.960938 351.113281 41.828125 C 350.800781 41.699219 350.476562 41.601562 350.140625 41.535156 C 349.808594 41.464844 349.472656 41.433594 349.132812 41.433594 L 266.421875 41.433594 C 266.082031 41.433594 265.742188 41.464844 265.410156 41.53125 C 265.074219 41.597656 264.75 41.695312 264.4375 41.828125 C 264.121094 41.957031 263.824219 42.117188 263.542969 42.304688 C 263.257812 42.496094 262.996094 42.710938 262.753906 42.949219 C 262.515625 43.191406 262.300781 43.453125 262.109375 43.734375 C 261.921875 44.019531 261.761719 44.316406 261.632812 44.632812 C 261.5 44.945312 261.402344 45.269531 261.335938 45.605469 C 261.269531 45.9375 261.238281 46.273438 261.238281 46.617188 C 261.238281 46.957031 261.269531 47.292969 261.335938 47.625 C 261.402344 47.960938 261.5 48.285156 261.632812 48.597656 C 261.761719 48.914062 261.921875 49.210938 262.109375 49.496094 C 262.300781 49.777344 262.515625 50.039062 262.753906 50.28125 C 262.996094 50.519531 263.257812 50.734375 263.542969 50.925781 C 263.824219 51.113281 264.121094 51.273438 264.4375 51.402344 C 264.75 51.535156 265.074219 51.632812 265.410156 51.699219 C 265.742188 51.765625 266.082031 51.796875 266.421875 51.796875 L 349.128906 51.796875 C 349.46875 51.796875 349.808594 51.765625 350.140625 51.699219 C 350.472656 51.628906 350.796875 51.53125 351.113281 51.402344 C 351.425781 51.269531 351.726562 51.109375 352.007812 50.921875 C 352.289062 50.734375 352.550781 50.519531 352.792969 50.277344 C 353.03125 50.035156 353.246094 49.773438 353.4375 49.492188 C 353.625 49.210938 353.785156 48.910156 353.917969 48.597656 C 354.046875 48.285156 354.144531 47.960938 354.210938 47.625 C 354.28125 47.292969 354.3125 46.957031 354.3125 46.617188 Z M 292.738281 153.164062 C 292.960938 153.421875 293.207031 153.652344 293.476562 153.859375 C 293.746094 154.066406 294.03125 154.246094 294.335938 154.394531 C 294.636719 154.546875 294.953125 154.664062 295.28125 154.753906 C 295.609375 154.839844 295.941406 154.894531 296.28125 154.917969 C 296.617188 154.941406 296.957031 154.929688 297.292969 154.886719 C 297.628906 154.839844 297.957031 154.765625 298.277344 154.65625 C 298.597656 154.546875 298.90625 154.40625 299.199219 154.238281 C 299.492188 154.066406 299.765625 153.871094 300.019531 153.648438 L 315.84375 139.796875 C 316.097656 139.574219 316.328125 139.328125 316.535156 139.058594 C 316.742188 138.789062 316.917969 138.503906 317.070312 138.199219 C 317.21875 137.894531 317.335938 137.578125 317.425781 137.253906 C 317.511719 136.925781 317.566406 136.59375 317.589844 136.253906 C 317.613281 135.917969 317.601562 135.582031 317.558594 135.246094 C 317.515625 134.910156 317.4375 134.582031 317.328125 134.261719 C 317.222656 133.9375 317.082031 133.632812 316.914062 133.339844 C 316.746094 133.042969 316.550781 132.769531 316.328125 132.515625 C 316.164062 132.328125 315.988281 132.152344 315.804688 131.988281 L 300.019531 118.179688 C 299.765625 117.957031 299.492188 117.757812 299.199219 117.585938 C 298.90625 117.414062 298.597656 117.273438 298.277344 117.164062 C 297.953125 117.054688 297.625 116.976562 297.289062 116.929688 C 296.949219 116.886719 296.613281 116.875 296.273438 116.894531 C 295.933594 116.917969 295.601562 116.972656 295.273438 117.058594 C 294.945312 117.148438 294.628906 117.265625 294.320312 117.417969 C 294.015625 117.566406 293.730469 117.746094 293.460938 117.953125 C 293.191406 118.160156 292.945312 118.390625 292.71875 118.648438 C 292.496094 118.902344 292.300781 119.175781 292.128906 119.472656 C 291.960938 119.765625 291.820312 120.074219 291.710938 120.398438 C 291.605469 120.71875 291.527344 121.046875 291.484375 121.386719 C 291.441406 121.722656 291.429688 122.0625 291.453125 122.398438 C 291.476562 122.738281 291.535156 123.074219 291.621094 123.402344 C 291.710938 123.730469 291.832031 124.046875 291.984375 124.347656 C 292.136719 124.652344 292.316406 124.941406 292.523438 125.207031 C 292.730469 125.476562 292.964844 125.722656 293.222656 125.945312 L 304.597656 135.914062 L 293.222656 145.882812 C 292.964844 146.105469 292.734375 146.351562 292.527344 146.621094 C 292.320312 146.890625 292.144531 147.175781 291.992188 147.480469 C 291.84375 147.78125 291.722656 148.097656 291.632812 148.425781 C 291.546875 148.753906 291.492188 149.085938 291.46875 149.425781 C 291.445312 149.761719 291.457031 150.101562 291.5 150.4375 C 291.546875 150.773438 291.621094 151.101562 291.730469 151.421875 C 291.839844 151.742188 291.980469 152.050781 292.148438 152.34375 C 292.316406 152.636719 292.515625 152.910156 292.738281 153.164062 Z M 266.25 162.460938 L 279.769531 112.03125 C 279.855469 111.703125 279.910156 111.367188 279.933594 111.027344 C 279.953125 110.691406 279.941406 110.351562 279.898438 110.015625 C 279.851562 109.675781 279.777344 109.347656 279.664062 109.027344 C 279.554688 108.703125 279.414062 108.394531 279.246094 108.101562 C 279.074219 107.808594 278.875 107.53125 278.652344 107.277344 C 278.425781 107.023438 278.179688 106.789062 277.910156 106.585938 C 277.640625 106.378906 277.351562 106.199219 277.046875 106.050781 C 276.742188 105.898438 276.425781 105.78125 276.097656 105.691406 C 275.765625 105.605469 275.433594 105.550781 275.09375 105.53125 C 274.753906 105.507812 274.414062 105.519531 274.078125 105.5625 C 273.742188 105.609375 273.410156 105.6875 273.089844 105.796875 C 272.769531 105.90625 272.460938 106.046875 272.164062 106.21875 C 271.871094 106.386719 271.597656 106.585938 271.339844 106.808594 C 271.085938 107.035156 270.855469 107.28125 270.648438 107.550781 C 270.441406 107.824219 270.261719 108.109375 270.113281 108.414062 C 269.964844 108.71875 269.84375 109.039062 269.757812 109.367188 L 256.242188 159.796875 C 256.15625 160.125 256.101562 160.460938 256.078125 160.800781 C 256.058594 161.140625 256.066406 161.476562 256.113281 161.8125 C 256.15625 162.152344 256.234375 162.480469 256.34375 162.804688 C 256.457031 163.125 256.59375 163.433594 256.765625 163.726562 C 256.9375 164.019531 257.132812 164.296875 257.359375 164.550781 C 257.582031 164.808594 257.832031 165.039062 258.101562 165.246094 C 258.371094 165.449219 258.660156 165.628906 258.964844 165.78125 C 259.269531 165.929688 259.585938 166.046875 259.914062 166.136719 C 260.242188 166.222656 260.578125 166.277344 260.917969 166.300781 C 261.257812 166.320312 261.59375 166.308594 261.933594 166.265625 C 262.269531 166.21875 262.597656 166.140625 262.921875 166.03125 C 263.242188 165.921875 263.550781 165.78125 263.84375 165.613281 C 264.140625 165.441406 264.414062 165.242188 264.667969 165.019531 C 264.925781 164.792969 265.15625 164.546875 265.363281 164.277344 C 265.570312 164.007812 265.746094 163.71875 265.898438 163.414062 C 266.046875 163.109375 266.164062 162.789062 266.253906 162.460938 Z M 286.628906 258.203125 L 20.203125 258.203125 L 20.203125 111.128906 L 150.824219 111.128906 L 150.824219 91.128906 L 13.089844 91.128906 C 12.242188 91.128906 11.40625 91.214844 10.574219 91.378906 C 9.746094 91.546875 8.941406 91.792969 8.160156 92.117188 C 7.378906 92.441406 6.636719 92.835938 5.933594 93.308594 C 5.226562 93.777344 4.578125 94.308594 3.976562 94.90625 C 3.378906 95.503906 2.84375 96.15625 2.375 96.859375 C 1.902344 97.5625 1.503906 98.304688 1.179688 99.082031 C 0.851562 99.863281 0.605469 100.667969 0.4375 101.5 C 0.269531 102.328125 0.183594 103.164062 0.183594 104.011719 L 0.183594 284.164062 C 0.183594 285.011719 0.269531 285.847656 0.4375 286.679688 C 0.605469 287.507812 0.851562 288.3125 1.175781 289.09375 C 1.503906 289.875 1.902344 290.617188 2.371094 291.320312 C 2.84375 292.023438 3.378906 292.671875 3.976562 293.269531 C 4.578125 293.867188 5.226562 294.402344 5.929688 294.871094 C 6.632812 295.34375 7.378906 295.738281 8.160156 296.0625 C 8.941406 296.386719 9.746094 296.632812 10.574219 296.800781 C 11.40625 296.964844 12.242188 297.050781 13.089844 297.050781 L 122.03125 297.050781 L 122.03125 336.003906 L 99.769531 336.003906 C 93.28125 336.003906 87.972656 340.285156 87.972656 345.53125 L 87.972656 353.671875 L 218.863281 353.671875 L 218.863281 345.53125 C 218.863281 340.285156 213.554688 336.003906 207.070312 336.003906 L 184.804688 336.003906 L 184.804688 297.050781 L 293.746094 297.050781 C 294.589844 297.050781 295.429688 296.964844 296.257812 296.800781 C 297.085938 296.632812 297.894531 296.386719 298.675781 296.0625 C 299.457031 295.738281 300.199219 295.34375 300.902344 294.871094 C 301.605469 294.402344 302.257812 293.867188 302.855469 293.269531 C 303.453125 292.671875 303.988281 292.023438 304.460938 291.320312 C 304.929688 290.617188 305.328125 289.875 305.65625 289.09375 C 305.980469 288.3125 306.226562 287.507812 306.394531 286.679688 C 306.5625 285.847656 306.648438 285.011719 306.652344 284.164062 L 306.652344 224.6875 L 286.632812 224.6875 Z M 92.945312 221.308594 L 44.042969 221.308594 C 43.703125 221.308594 43.367188 221.34375 43.035156 221.410156 C 42.703125 221.476562 42.378906 221.574219 42.0625 221.703125 C 41.75 221.832031 41.453125 221.992188 41.171875 222.183594 C 40.886719 222.371094 40.625 222.585938 40.386719 222.824219 C 40.144531 223.066406 39.929688 223.328125 39.742188 223.609375 C 39.554688 223.890625 39.394531 224.191406 39.265625 224.503906 C 39.132812 224.816406 39.035156 225.140625 38.96875 225.472656 C 38.902344 225.808594 38.871094 226.144531 38.871094 226.484375 C 38.871094 226.824219 38.902344 227.160156 38.96875 227.492188 C 39.035156 227.824219 39.132812 228.148438 39.265625 228.464844 C 39.394531 228.777344 39.554688 229.074219 39.742188 229.359375 C 39.929688 229.640625 40.144531 229.902344 40.386719 230.140625 C 40.625 230.382812 40.886719 230.597656 41.171875 230.785156 C 41.453125 230.972656 41.75 231.132812 42.0625 231.261719 C 42.378906 231.394531 42.703125 231.492188 43.035156 231.558594 C 43.367188 231.625 43.703125 231.65625 44.042969 231.65625 L 92.945312 231.65625 C 93.285156 231.65625 93.621094 231.625 93.953125 231.558594 C 94.285156 231.492188 94.609375 231.394531 94.921875 231.261719 C 95.238281 231.132812 95.535156 230.972656 95.816406 230.785156 C 96.101562 230.597656 96.363281 230.382812 96.601562 230.140625 C 96.84375 229.902344 97.054688 229.640625 97.246094 229.359375 C 97.433594 229.074219 97.59375 228.777344 97.722656 228.464844 C 97.851562 228.148438 97.953125 227.824219 98.015625 227.492188 C 98.082031 227.160156 98.117188 226.824219 98.117188 226.484375 C 98.117188 226.144531 98.082031 225.808594 98.015625 225.472656 C 97.953125 225.140625 97.851562 224.816406 97.722656 224.503906 C 97.59375 224.191406 97.433594 223.890625 97.246094 223.609375 C 97.054688 223.328125 96.84375 223.066406 96.601562 222.824219 C 96.363281 222.585938 96.101562 222.371094 95.816406 222.183594 C 95.535156 221.992188 95.238281 221.832031 94.921875 221.703125 C 94.609375 221.574219 94.285156 221.476562 93.953125 221.410156 C 93.621094 221.34375 93.285156 221.308594 92.945312 221.308594 Z M 92.945312 200.382812 L 44.042969 200.382812 C 43.707031 200.386719 43.371094 200.425781 43.042969 200.492188 C 42.710938 200.5625 42.390625 200.664062 42.078125 200.796875 C 41.769531 200.925781 41.472656 201.089844 41.191406 201.277344 C 40.914062 201.46875 40.65625 201.683594 40.417969 201.921875 C 40.179688 202.164062 39.96875 202.425781 39.78125 202.707031 C 39.59375 202.988281 39.4375 203.285156 39.308594 203.597656 C 39.179688 203.910156 39.085938 204.230469 39.019531 204.5625 C 38.953125 204.894531 38.921875 205.230469 38.921875 205.566406 C 38.921875 205.90625 38.953125 206.238281 39.019531 206.570312 C 39.085938 206.902344 39.179688 207.222656 39.308594 207.535156 C 39.4375 207.847656 39.59375 208.148438 39.78125 208.429688 C 39.96875 208.710938 40.179688 208.972656 40.417969 209.210938 C 40.65625 209.453125 40.914062 209.667969 41.191406 209.855469 C 41.472656 210.046875 41.769531 210.207031 42.078125 210.339844 C 42.390625 210.472656 42.710938 210.570312 43.042969 210.640625 C 43.371094 210.710938 43.707031 210.746094 44.042969 210.75 L 92.945312 210.75 C 93.28125 210.746094 93.617188 210.710938 93.945312 210.640625 C 94.277344 210.570312 94.597656 210.472656 94.910156 210.339844 C 95.21875 210.207031 95.515625 210.046875 95.792969 209.855469 C 96.074219 209.667969 96.332031 209.453125 96.570312 209.210938 C 96.808594 208.972656 97.019531 208.710938 97.207031 208.429688 C 97.390625 208.148438 97.550781 207.847656 97.679688 207.535156 C 97.808594 207.222656 97.902344 206.902344 97.96875 206.570312 C 98.035156 206.238281 98.066406 205.90625 98.066406 205.566406 C 98.066406 205.230469 98.035156 204.894531 97.96875 204.5625 C 97.902344 204.230469 97.808594 203.910156 97.679688 203.597656 C 97.550781 203.285156 97.390625 202.988281 97.207031 202.707031 C 97.019531 202.425781 96.808594 202.164062 96.570312 201.921875 C 96.332031 201.683594 96.074219 201.46875 95.792969 201.277344 C 95.515625 201.089844 95.21875 200.925781 94.910156 200.796875 C 94.597656 200.664062 94.277344 200.5625 93.945312 200.492188 C 93.617188 200.425781 93.28125 200.386719 92.945312 200.382812 Z M 92.945312 137.675781 L 44.042969 137.675781 C 43.707031 137.679688 43.371094 137.714844 43.042969 137.785156 C 42.710938 137.855469 42.390625 137.957031 42.078125 138.085938 C 41.769531 138.21875 41.472656 138.378906 41.195312 138.570312 C 40.914062 138.761719 40.65625 138.976562 40.417969 139.214844 C 40.179688 139.457031 39.96875 139.714844 39.78125 140 C 39.597656 140.28125 39.4375 140.578125 39.308594 140.890625 C 39.183594 141.203125 39.085938 141.523438 39.019531 141.855469 C 38.953125 142.1875 38.921875 142.523438 38.921875 142.859375 C 38.921875 143.195312 38.953125 143.53125 39.019531 143.863281 C 39.085938 144.195312 39.183594 144.515625 39.308594 144.828125 C 39.4375 145.140625 39.597656 145.4375 39.78125 145.71875 C 39.96875 146.003906 40.179688 146.261719 40.417969 146.503906 C 40.65625 146.742188 40.914062 146.957031 41.195312 147.148438 C 41.472656 147.339844 41.769531 147.5 42.078125 147.632812 C 42.390625 147.761719 42.710938 147.863281 43.042969 147.933594 C 43.371094 148.003906 43.707031 148.039062 44.042969 148.042969 L 92.945312 148.042969 C 93.28125 148.039062 93.617188 148.003906 93.945312 147.933594 C 94.277344 147.863281 94.597656 147.761719 94.910156 147.632812 C 95.21875 147.5 95.515625 147.339844 95.792969 147.148438 C 96.074219 146.957031 96.332031 146.742188 96.570312 146.503906 C 96.808594 146.261719 97.019531 146.003906 97.207031 145.71875 C 97.390625 145.4375 97.550781 145.140625 97.675781 144.828125 C 97.804688 144.515625 97.902344 144.195312 97.96875 143.863281 C 98.035156 143.53125 98.066406 143.195312 98.066406 142.859375 C 98.066406 142.523438 98.035156 142.1875 97.96875 141.855469 C 97.902344 141.523438 97.804688 141.203125 97.675781 140.890625 C 97.550781 140.578125 97.390625 140.28125 97.207031 140 C 97.019531 139.714844 96.808594 139.457031 96.570312 139.214844 C 96.332031 138.976562 96.074219 138.761719 95.792969 138.570312 C 95.515625 138.378906 95.21875 138.21875 94.910156 138.085938 C 94.597656 137.957031 94.277344 137.855469 93.945312 137.785156 C 93.617188 137.714844 93.28125 137.679688 92.945312 137.675781 Z M 92.945312 158.578125 L 44.042969 158.578125 C 43.707031 158.582031 43.371094 158.617188 43.042969 158.6875 C 42.710938 158.757812 42.390625 158.859375 42.078125 158.992188 C 41.769531 159.121094 41.472656 159.285156 41.195312 159.472656 C 40.914062 159.664062 40.65625 159.878906 40.417969 160.117188 C 40.179688 160.359375 39.96875 160.621094 39.78125 160.902344 C 39.59375 161.183594 39.4375 161.480469 39.308594 161.792969 C 39.179688 162.105469 39.085938 162.425781 39.019531 162.757812 C 38.953125 163.089844 38.921875 163.425781 38.921875 163.761719 C 38.921875 164.101562 38.953125 164.433594 39.019531 164.765625 C 39.085938 165.097656 39.179688 165.417969 39.308594 165.730469 C 39.4375 166.042969 39.59375 166.339844 39.78125 166.625 C 39.96875 166.90625 40.179688 167.164062 40.417969 167.40625 C 40.65625 167.648438 40.914062 167.863281 41.195312 168.050781 C 41.472656 168.242188 41.769531 168.402344 42.078125 168.535156 C 42.390625 168.664062 42.710938 168.765625 43.042969 168.835938 C 43.371094 168.90625 43.707031 168.941406 44.042969 168.945312 L 92.945312 168.945312 C 93.28125 168.941406 93.617188 168.90625 93.945312 168.835938 C 94.277344 168.765625 94.597656 168.664062 94.910156 168.535156 C 95.21875 168.402344 95.515625 168.242188 95.792969 168.050781 C 96.074219 167.863281 96.332031 167.648438 96.570312 167.40625 C 96.808594 167.164062 97.019531 166.90625 97.207031 166.625 C 97.390625 166.339844 97.550781 166.042969 97.679688 165.730469 C 97.804688 165.417969 97.902344 165.097656 97.96875 164.765625 C 98.035156 164.433594 98.066406 164.101562 98.066406 163.761719 C 98.066406 163.425781 98.035156 163.089844 97.96875 162.757812 C 97.902344 162.425781 97.804688 162.105469 97.679688 161.792969 C 97.550781 161.480469 97.390625 161.183594 97.207031 160.902344 C 97.019531 160.621094 96.808594 160.359375 96.570312 160.117188 C 96.332031 159.878906 96.074219 159.664062 95.792969 159.472656 C 95.515625 159.285156 95.21875 159.121094 94.910156 158.992188 C 94.597656 158.859375 94.277344 158.757812 93.945312 158.6875 C 93.617188 158.617188 93.28125 158.582031 92.945312 158.578125 Z M 92.945312 179.480469 L 44.042969 179.480469 C 43.703125 179.480469 43.367188 179.515625 43.03125 179.582031 C 42.699219 179.648438 42.375 179.746094 42.058594 179.875 C 41.746094 180.007812 41.449219 180.167969 41.164062 180.355469 C 40.882812 180.542969 40.621094 180.757812 40.378906 181 C 40.136719 181.242188 39.921875 181.503906 39.734375 181.785156 C 39.546875 182.070312 39.386719 182.367188 39.253906 182.683594 C 39.125 182.996094 39.027344 183.320312 38.960938 183.652344 C 38.894531 183.988281 38.859375 184.324219 38.859375 184.664062 C 38.859375 185.003906 38.894531 185.34375 38.960938 185.675781 C 39.027344 186.011719 39.125 186.335938 39.253906 186.648438 C 39.386719 186.964844 39.546875 187.261719 39.734375 187.546875 C 39.921875 187.828125 40.136719 188.089844 40.378906 188.332031 C 40.621094 188.570312 40.882812 188.785156 41.164062 188.976562 C 41.449219 189.164062 41.746094 189.324219 42.058594 189.453125 C 42.375 189.585938 42.699219 189.683594 43.03125 189.75 C 43.367188 189.816406 43.703125 189.847656 44.042969 189.847656 L 92.945312 189.847656 C 93.285156 189.847656 93.621094 189.816406 93.953125 189.75 C 94.289062 189.683594 94.613281 189.585938 94.925781 189.453125 C 95.242188 189.324219 95.539062 189.164062 95.824219 188.976562 C 96.105469 188.785156 96.367188 188.570312 96.609375 188.332031 C 96.851562 188.089844 97.066406 187.828125 97.253906 187.546875 C 97.441406 187.261719 97.601562 186.964844 97.734375 186.648438 C 97.863281 186.335938 97.960938 186.011719 98.027344 185.675781 C 98.09375 185.34375 98.128906 185.003906 98.128906 184.664062 C 98.128906 184.324219 98.09375 183.988281 98.027344 183.652344 C 97.960938 183.320312 97.863281 182.996094 97.734375 182.683594 C 97.601562 182.367188 97.441406 182.070312 97.253906 181.785156 C 97.066406 181.503906 96.851562 181.242188 96.609375 181 C 96.367188 180.757812 96.105469 180.542969 95.824219 180.355469 C 95.539062 180.167969 95.242188 180.007812 94.925781 179.875 C 94.613281 179.746094 94.289062 179.648438 93.953125 179.582031 C 93.621094 179.515625 93.285156 179.480469 92.945312 179.480469 Z M 92.945312 179.480469 "/></g></g></svg>