<svg xmlns="http://www.w3.org/2000/svg" xmlns:xlink="http://www.w3.org/1999/xlink" width="500" zoomAndPan="magnify" viewBox="0 0 375 374.999991" height="500" preserveAspectRatio="xMidYMid meet" version="1.2"><defs><clipPath id="32317ffefd"><path d="M 69 16.875 L 363 16.875 L 363 219 L 69 219 Z M 69 16.875 "/></clipPath></defs><g id="d16ac39c1a"><path style=" stroke:none;fill-rule:nonzero;fill:#f49617;fill-opacity:1;" d="M 53.632812 188.910156 C 58.523438 183.746094 65.132812 180.898438 72.246094 180.898438 C 78.824219 180.898438 85.078125 183.390625 89.859375 187.917969 C 100.117188 197.628906 100.5625 213.878906 90.851562 224.140625 L 88.644531 226.476562 C 91.582031 225.324219 94.738281 224.695312 98.011719 224.695312 C 104.585938 224.695312 110.84375 227.183594 115.621094 231.707031 C 122.328125 238.054688 124.8125 247.191406 123.035156 255.625 C 127 253.203125 131.546875 251.886719 136.339844 251.886719 C 142.914062 251.886719 149.171875 254.378906 153.949219 258.898438 C 155.769531 260.625 157.265625 262.5625 158.46875 264.628906 C 159.628906 264.085938 161.050781 264.257812 162.050781 265.179688 L 175.34375 277.464844 C 178.019531 277.535156 180.628906 278.023438 183.105469 278.882812 C 186.484375 280.0625 189.613281 281.925781 192.277344 284.449219 C 196.757812 288.691406 199.488281 294.28125 200.121094 300.355469 L 234.378906 332.003906 C 242.765625 339.75 255.890625 339.226562 263.636719 330.84375 C 267.390625 326.78125 269.335938 321.5 269.121094 315.976562 C 268.902344 310.449219 266.546875 305.335938 262.480469 301.585938 L 208.339844 251.570312 C 207.023438 250.347656 206.941406 248.292969 208.160156 246.976562 C 209.042969 246.019531 210.359375 245.726562 211.523438 246.09375 C 212.589844 245.757812 213.796875 245.984375 214.679688 246.796875 C 214.691406 246.808594 214.707031 246.816406 214.714844 246.824219 L 285.113281 313.644531 C 289.144531 317.367188 294.421875 319.3125 299.949219 319.097656 C 305.476562 318.878906 310.585938 316.519531 314.339844 312.457031 C 322.085938 304.070312 321.566406 290.945312 313.183594 283.199219 L 242.789062 216.375 L 241.894531 217.34375 L 240.851562 216.375 C 239.535156 215.160156 239.449219 213.105469 240.667969 211.785156 C 241.550781 210.828125 242.871094 210.53125 244.035156 210.898438 C 244.648438 210.710938 245.304688 210.707031 245.921875 210.890625 C 246.394531 211.03125 246.84375 211.269531 247.226562 211.632812 L 302.027344 263.652344 C 310.339844 269.160156 321.679688 268.015625 328.664062 260.460938 C 336.40625 252.074219 335.890625 238.949219 327.5 231.203125 L 273.363281 181.1875 C 273.03125 180.882812 272.777344 180.519531 272.601562 180.128906 L 203.832031 115.5625 C 197.898438 115.359375 191.644531 114.335938 185.089844 112.257812 C 175.46875 118.765625 120.011719 155.164062 84.5625 155.167969 C 79.519531 155.171875 74.882812 154.433594 70.839844 152.769531 C 64.78125 150.273438 61.886719 144.988281 62.691406 137.890625 C 64.480469 122.105469 85.523438 94.769531 116.300781 68.242188 C 121.65625 63.621094 127.050781 59.253906 132.4375 55.144531 C 120.835938 48.453125 110.414062 45.460938 99.808594 45.460938 C 79.992188 45.460938 58.605469 56.296875 30.464844 80.59375 C 10.898438 97.492188 0.796875 116.890625 0.4375 138.257812 C 0.046875 161.605469 11.761719 186.734375 33.65625 210.015625 L 53.632812 188.910156 "/><path style=" stroke:none;fill-rule:nonzero;fill:#f49617;fill-opacity:1;" d="M 199.625 308.746094 C 198.625 313.179688 196.476562 317.285156 193.269531 320.671875 L 173.789062 341.253906 L 183.679688 350.390625 C 192.066406 358.136719 205.191406 357.613281 212.9375 349.230469 C 220.683594 340.84375 220.164062 327.71875 211.78125 319.972656 L 199.625 308.746094 "/><path style=" stroke:none;fill-rule:nonzero;fill:#f49617;fill-opacity:1;" d="M 167.011719 278.613281 L 161.628906 273.640625 C 162 276.074219 162.019531 278.554688 161.6875 281 C 163.371094 280.007812 165.148438 279.195312 167.011719 278.613281 "/><path style=" stroke:none;fill-rule:nonzero;fill:#f49617;fill-opacity:1;" d="M 85.390625 192.636719 C 81.824219 189.257812 77.15625 187.402344 72.246094 187.402344 C 66.9375 187.402344 62 189.523438 58.351562 193.378906 L 26.449219 227.082031 C 19.203125 234.738281 19.535156 246.867188 27.191406 254.121094 C 30.757812 257.496094 35.425781 259.355469 40.335938 259.355469 C 45.644531 259.355469 50.582031 257.234375 54.230469 253.375 L 86.132812 219.671875 C 93.378906 212.015625 93.046875 199.882812 85.390625 192.636719 "/><path style=" stroke:none;fill-rule:nonzero;fill:#f49617;fill-opacity:1;" d="M 128.867188 323.613281 C 121.621094 331.269531 121.953125 343.398438 129.609375 350.652344 C 133.175781 354.027344 137.84375 355.886719 142.753906 355.886719 C 148.066406 355.886719 153 353.765625 156.652344 349.90625 L 188.550781 316.203125 C 192.066406 312.496094 193.921875 307.640625 193.78125 302.53125 C 193.640625 297.425781 191.519531 292.679688 187.808594 289.167969 C 184.242188 285.789062 179.574219 283.929688 174.667969 283.929688 C 169.355469 283.929688 164.421875 286.054688 160.773438 289.910156 L 128.867188 323.613281 "/><path style=" stroke:none;fill-rule:nonzero;fill:#f49617;fill-opacity:1;" d="M 98.011719 231.195312 C 92.699219 231.195312 87.765625 233.3125 84.117188 237.167969 L 52.214844 270.871094 C 44.964844 278.53125 45.296875 290.660156 52.953125 297.910156 C 56.523438 301.289062 61.191406 303.148438 66.101562 303.148438 C 71.410156 303.148438 76.34375 301.023438 79.996094 297.167969 L 111.898438 263.464844 C 119.144531 255.804688 118.8125 243.675781 111.15625 236.429688 C 107.589844 233.050781 102.917969 231.195312 98.011719 231.195312 "/><path style=" stroke:none;fill-rule:nonzero;fill:#f49617;fill-opacity:1;" d="M 136.339844 258.386719 C 131.027344 258.386719 126.09375 260.507812 122.445312 264.363281 L 90.542969 298.070312 C 87.03125 301.777344 85.171875 306.632812 85.3125 311.742188 C 85.453125 316.847656 87.570312 321.59375 91.28125 325.101562 C 94.847656 328.480469 99.519531 330.339844 104.425781 330.339844 C 109.738281 330.339844 114.671875 328.21875 118.320312 324.363281 L 150.222656 290.660156 C 157.472656 283 157.140625 270.871094 149.480469 263.621094 C 145.914062 260.242188 141.246094 258.386719 136.339844 258.386719 "/><g clip-rule="nonzero" clip-path="url(#32317ffefd)"><path style=" stroke:none;fill-rule:nonzero;fill:#f49617;fill-opacity:1;" d="M 69.148438 138.621094 C 68.53125 144.0625 71.050781 145.828125 73.3125 146.757812 C 104.582031 159.636719 181.960938 106.539062 182.738281 106 C 183.582031 105.414062 184.65625 105.265625 185.632812 105.597656 C 234.496094 122.195312 265.726562 74.152344 266.035156 73.664062 C 266.136719 73.503906 266.253906 73.363281 266.378906 73.226562 C 267.421875 72.078125 269.167969 71.804688 270.523438 72.667969 C 272.035156 73.628906 272.484375 75.636719 271.519531 77.152344 C 271.25 77.578125 249.320312 111.296875 212.96875 115.226562 L 300.71875 197.609375 C 300.71875 197.613281 300.71875 197.613281 300.71875 197.617188 L 323.691406 218.839844 C 324.1875 218.40625 324.6875 217.980469 325.171875 217.535156 C 372.023438 174.25 374.925781 100.914062 331.640625 54.0625 C 309.808594 30.433594 278.828125 16.878906 246.640625 16.878906 C 234.335938 16.878906 222.273438 18.84375 210.824219 22.570312 L 210.445312 22.230469 C 209.972656 22.75 209.335938 23.128906 208.589844 23.257812 C 185.199219 27.144531 152.285156 45.800781 120.542969 73.164062 C 91.394531 98.289062 70.742188 124.597656 69.148438 138.621094 "/></g></g></svg>