<svg xmlns="http://www.w3.org/2000/svg" xmlns:xlink="http://www.w3.org/1999/xlink" width="500" zoomAndPan="magnify" viewBox="0 0 375 374.999991" height="500" preserveAspectRatio="xMidYMid meet" version="1.2"><defs><clipPath id="84af0f2642"><path d="M 0 2 L 372 2 L 372 375 L 0 375 Z M 0 2 "/></clipPath></defs><g id="f1c31079ae"><g clip-rule="nonzero" clip-path="url(#84af0f2642)"><path style=" stroke:none;fill-rule:nonzero;fill:#f49617;fill-opacity:1;" d="M 372.269531 188.335938 C 372.269531 191.382812 372.195312 194.425781 372.046875 197.46875 C 371.894531 200.511719 371.671875 203.546875 371.375 206.578125 C 371.074219 209.609375 370.703125 212.632812 370.253906 215.648438 C 369.808594 218.660156 369.289062 221.660156 368.691406 224.648438 C 368.097656 227.636719 367.429688 230.605469 366.691406 233.5625 C 365.949219 236.515625 365.140625 239.453125 364.253906 242.367188 C 363.371094 245.28125 362.414062 248.175781 361.390625 251.042969 C 360.363281 253.910156 359.265625 256.75 358.101562 259.566406 C 356.933594 262.378906 355.699219 265.164062 354.398438 267.917969 C 353.097656 270.671875 351.726562 273.390625 350.289062 276.078125 C 348.855469 278.765625 347.355469 281.414062 345.789062 284.027344 C 344.222656 286.640625 342.59375 289.214844 340.898438 291.746094 C 339.207031 294.277344 337.453125 296.769531 335.640625 299.214844 C 333.824219 301.664062 331.953125 304.0625 330.019531 306.417969 C 328.085938 308.773438 326.097656 311.078125 324.050781 313.335938 C 322.003906 315.59375 319.90625 317.796875 317.75 319.953125 C 315.597656 322.105469 313.390625 324.207031 311.136719 326.253906 C 308.878906 328.296875 306.570312 330.285156 304.21875 332.21875 C 301.863281 334.152344 299.460938 336.027344 297.015625 337.839844 C 294.566406 339.65625 292.078125 341.410156 289.546875 343.101562 C 287.011719 344.792969 284.441406 346.421875 281.828125 347.988281 C 279.214844 349.554688 276.566406 351.054688 273.878906 352.492188 C 271.191406 353.925781 268.472656 355.296875 265.71875 356.597656 C 262.964844 357.902344 260.179688 359.136719 257.367188 360.300781 C 254.550781 361.46875 251.710938 362.5625 248.839844 363.589844 C 245.972656 364.617188 243.082031 365.570312 240.167969 366.457031 C 237.25 367.339844 234.316406 368.152344 231.363281 368.890625 C 228.40625 369.632812 225.433594 370.300781 222.449219 370.894531 C 219.460938 371.488281 216.460938 372.007812 213.445312 372.457031 C 210.433594 372.902344 207.410156 373.273438 204.378906 373.574219 C 201.347656 373.871094 198.308594 374.097656 195.269531 374.246094 C 192.226562 374.394531 189.179688 374.46875 186.132812 374.46875 C 183.089844 374.46875 180.042969 374.394531 177 374.246094 C 173.957031 374.097656 170.921875 373.871094 167.890625 373.574219 C 164.859375 373.273438 161.835938 372.902344 158.824219 372.457031 C 155.808594 372.007812 152.808594 371.488281 149.820312 370.894531 C 146.832031 370.300781 143.863281 369.632812 140.90625 368.890625 C 137.953125 368.152344 135.019531 367.339844 132.101562 366.457031 C 129.1875 365.570312 126.296875 364.617188 123.429688 363.589844 C 120.558594 362.5625 117.71875 361.46875 114.902344 360.300781 C 112.089844 359.136719 109.304688 357.902344 106.550781 356.597656 C 103.796875 355.296875 101.078125 353.925781 98.390625 352.492188 C 95.703125 351.054688 93.054688 349.554688 90.441406 347.988281 C 87.828125 346.421875 85.257812 344.792969 82.722656 343.101562 C 80.191406 341.410156 77.699219 339.65625 75.253906 337.839844 C 72.808594 336.027344 70.40625 334.152344 68.050781 332.21875 C 65.699219 330.285156 63.390625 328.296875 61.132812 326.253906 C 58.878906 324.207031 56.671875 322.105469 54.519531 319.953125 C 52.363281 317.796875 50.265625 315.59375 48.21875 313.335938 C 46.171875 311.078125 44.183594 308.773438 42.25 306.417969 C 40.316406 304.0625 38.445312 301.664062 36.628906 299.214844 C 34.816406 296.769531 33.0625 294.277344 31.371094 291.746094 C 29.675781 289.214844 28.046875 286.640625 26.480469 284.027344 C 24.914062 281.414062 23.414062 278.765625 21.980469 276.078125 C 20.542969 273.390625 19.171875 270.671875 17.871094 267.917969 C 16.570312 265.164062 15.335938 262.378906 14.167969 259.566406 C 13.003906 256.75 11.90625 253.910156 10.878906 251.042969 C 9.855469 248.175781 8.898438 245.28125 8.015625 242.367188 C 7.128906 239.453125 6.320312 236.515625 5.578125 233.5625 C 4.839844 230.605469 4.171875 227.636719 3.578125 224.648438 C 2.980469 221.660156 2.460938 218.660156 2.015625 215.648438 C 1.566406 212.632812 1.195312 209.609375 0.894531 206.578125 C 0.597656 203.546875 0.375 200.511719 0.222656 197.46875 C 0.0742188 194.425781 0 191.382812 0 188.335938 C 0 185.289062 0.0742188 182.246094 0.222656 179.203125 C 0.375 176.160156 0.597656 173.121094 0.894531 170.089844 C 1.195312 167.058594 1.566406 164.035156 2.015625 161.023438 C 2.460938 158.011719 2.980469 155.011719 3.578125 152.023438 C 4.171875 149.035156 4.839844 146.0625 5.578125 143.109375 C 6.320312 140.152344 7.128906 137.21875 8.015625 134.304688 C 8.898438 131.386719 9.855469 128.496094 10.878906 125.628906 C 11.90625 122.761719 13.003906 119.917969 14.167969 117.105469 C 15.335938 114.289062 16.570312 111.507812 17.871094 108.753906 C 19.171875 106 20.542969 103.277344 21.980469 100.59375 C 23.414062 97.90625 24.914062 95.253906 26.480469 92.644531 C 28.046875 90.03125 29.675781 87.457031 31.371094 84.925781 C 33.0625 82.390625 34.816406 79.902344 36.628906 77.453125 C 38.445312 75.007812 40.316406 72.605469 42.25 70.253906 C 44.183594 67.898438 46.171875 65.59375 48.21875 63.335938 C 50.265625 61.078125 52.363281 58.871094 54.519531 56.71875 C 56.671875 54.5625 58.878906 52.464844 61.132812 50.417969 C 63.390625 48.371094 65.699219 46.382812 68.050781 44.449219 C 70.40625 42.519531 72.808594 40.644531 75.253906 38.832031 C 77.699219 37.015625 80.191406 35.261719 82.722656 33.570312 C 85.257812 31.878906 87.828125 30.25 90.441406 28.683594 C 93.054688 27.117188 95.703125 25.613281 98.390625 24.179688 C 101.078125 22.742188 103.796875 21.375 106.550781 20.070312 C 109.304688 18.769531 112.089844 17.535156 114.902344 16.371094 C 117.71875 15.203125 120.558594 14.109375 123.429688 13.082031 C 126.296875 12.054688 129.1875 11.101562 132.101562 10.214844 C 135.019531 9.332031 137.953125 8.519531 140.90625 7.777344 C 143.863281 7.039062 146.832031 6.371094 149.820312 5.777344 C 152.808594 5.183594 155.808594 4.664062 158.824219 4.214844 C 161.835938 3.769531 164.859375 3.394531 167.890625 3.097656 C 170.921875 2.796875 173.957031 2.574219 177 2.425781 C 180.042969 2.273438 183.089844 2.199219 186.132812 2.199219 C 189.179688 2.199219 192.226562 2.273438 195.269531 2.425781 C 198.308594 2.574219 201.347656 2.796875 204.378906 3.097656 C 207.410156 3.394531 210.433594 3.769531 213.445312 4.214844 C 216.460938 4.664062 219.460938 5.183594 222.449219 5.777344 C 225.433594 6.371094 228.40625 7.039062 231.363281 7.777344 C 234.316406 8.519531 237.25 9.332031 240.167969 10.214844 C 243.082031 11.101562 245.972656 12.054688 248.839844 13.082031 C 251.710938 14.109375 254.550781 15.203125 257.367188 16.371094 C 260.179688 17.535156 262.964844 18.769531 265.71875 20.070312 C 268.472656 21.375 271.191406 22.742188 273.878906 24.179688 C 276.566406 25.613281 279.214844 27.117188 281.828125 28.683594 C 284.441406 30.25 287.011719 31.878906 289.546875 33.570312 C 292.078125 35.261719 294.566406 37.015625 297.015625 38.832031 C 299.460938 40.644531 301.863281 42.519531 304.21875 44.449219 C 306.570312 46.382812 308.878906 48.371094 311.136719 50.417969 C 313.390625 52.464844 315.597656 54.5625 317.75 56.71875 C 319.90625 58.871094 322.003906 61.078125 324.050781 63.335938 C 326.097656 65.59375 328.085938 67.898438 330.019531 70.253906 C 331.953125 72.605469 333.824219 75.007812 335.640625 77.453125 C 337.453125 79.902344 339.207031 82.390625 340.898438 84.925781 C 342.59375 87.457031 344.222656 90.03125 345.789062 92.644531 C 347.355469 95.253906 348.855469 97.90625 350.289062 100.59375 C 351.726562 103.277344 353.097656 106 354.398438 108.753906 C 355.699219 111.507812 356.933594 114.289062 358.101562 117.105469 C 359.265625 119.917969 360.363281 122.761719 361.390625 125.628906 C 362.414062 128.496094 363.371094 131.386719 364.253906 134.304688 C 365.140625 137.21875 365.949219 140.152344 366.691406 143.109375 C 367.429688 146.0625 368.097656 149.035156 368.691406 152.023438 C 369.289062 155.011719 369.808594 158.011719 370.253906 161.023438 C 370.703125 164.035156 371.074219 167.058594 371.375 170.089844 C 371.671875 173.121094 371.894531 176.160156 372.046875 179.203125 C 372.195312 182.246094 372.269531 185.289062 372.269531 188.335938 Z M 372.269531 188.335938 "/></g><path style=" stroke:none;fill-rule:nonzero;fill:#0d1b4c;fill-opacity:1;" d="M 265.214844 188.335938 C 265.214844 189.628906 265.183594 190.921875 265.117188 192.214844 C 265.054688 193.507812 264.960938 194.796875 264.832031 196.085938 C 264.707031 197.375 264.546875 198.660156 264.359375 199.9375 C 264.167969 201.21875 263.945312 202.496094 263.695312 203.765625 C 263.441406 205.03125 263.160156 206.296875 262.84375 207.550781 C 262.53125 208.804688 262.183594 210.054688 261.808594 211.292969 C 261.433594 212.53125 261.027344 213.757812 260.589844 214.976562 C 260.15625 216.195312 259.691406 217.402344 259.195312 218.597656 C 258.699219 219.796875 258.175781 220.976562 257.621094 222.148438 C 257.066406 223.316406 256.484375 224.472656 255.875 225.613281 C 255.265625 226.757812 254.628906 227.882812 253.960938 228.992188 C 253.296875 230.101562 252.605469 231.195312 251.886719 232.273438 C 251.167969 233.347656 250.421875 234.40625 249.652344 235.445312 C 248.878906 236.484375 248.082031 237.503906 247.261719 238.503906 C 246.441406 239.507812 245.597656 240.484375 244.726562 241.445312 C 243.859375 242.402344 242.964844 243.339844 242.050781 244.257812 C 241.136719 245.171875 240.199219 246.0625 239.238281 246.933594 C 238.28125 247.800781 237.300781 248.648438 236.300781 249.46875 C 235.300781 250.289062 234.28125 251.085938 233.242188 251.855469 C 232.199219 252.628906 231.144531 253.371094 230.066406 254.089844 C 228.992188 254.808594 227.898438 255.503906 226.789062 256.167969 C 225.675781 256.832031 224.550781 257.472656 223.410156 258.082031 C 222.269531 258.691406 221.113281 259.273438 219.941406 259.828125 C 218.773438 260.378906 217.589844 260.902344 216.394531 261.398438 C 215.199219 261.894531 213.992188 262.359375 212.773438 262.796875 C 211.554688 263.230469 210.324219 263.636719 209.085938 264.015625 C 207.847656 264.390625 206.601562 264.734375 205.347656 265.050781 C 204.089844 265.363281 202.828125 265.648438 201.558594 265.898438 C 200.289062 266.152344 199.015625 266.375 197.734375 266.5625 C 196.453125 266.753906 195.167969 266.910156 193.882812 267.039062 C 192.59375 267.164062 191.304688 267.261719 190.011719 267.324219 C 188.71875 267.386719 187.425781 267.417969 186.128906 267.417969 C 184.835938 267.417969 183.542969 267.386719 182.25 267.324219 C 180.957031 267.261719 179.667969 267.164062 178.378906 267.039062 C 177.089844 266.910156 175.804688 266.753906 174.527344 266.5625 C 173.246094 266.375 171.972656 266.152344 170.703125 265.898438 C 169.433594 265.648438 168.167969 265.363281 166.914062 265.050781 C 165.660156 264.734375 164.410156 264.390625 163.171875 264.015625 C 161.933594 263.636719 160.707031 263.230469 159.488281 262.796875 C 158.269531 262.359375 157.0625 261.894531 155.867188 261.398438 C 154.671875 260.902344 153.488281 260.378906 152.316406 259.828125 C 151.148438 259.273438 149.992188 258.691406 148.851562 258.082031 C 147.707031 257.472656 146.582031 256.832031 145.472656 256.167969 C 144.363281 255.503906 143.269531 254.808594 142.195312 254.089844 C 141.117188 253.371094 140.058594 252.628906 139.019531 251.855469 C 137.980469 251.085938 136.960938 250.289062 135.960938 249.46875 C 134.960938 248.648438 133.980469 247.800781 133.019531 246.933594 C 132.0625 246.0625 131.125 245.171875 130.210938 244.257812 C 129.292969 243.339844 128.402344 242.402344 127.53125 241.445312 C 126.664062 240.484375 125.820312 239.507812 124.996094 238.503906 C 124.175781 237.503906 123.378906 236.484375 122.609375 235.445312 C 121.839844 234.40625 121.09375 233.347656 120.375 232.273438 C 119.65625 231.195312 118.960938 230.101562 118.296875 228.992188 C 117.632812 227.882812 116.996094 226.757812 116.382812 225.613281 C 115.773438 224.472656 115.191406 223.316406 114.640625 222.148438 C 114.085938 220.976562 113.5625 219.796875 113.066406 218.597656 C 112.570312 217.402344 112.105469 216.195312 111.667969 214.976562 C 111.234375 213.757812 110.828125 212.53125 110.453125 211.292969 C 110.074219 210.054688 109.730469 208.804688 109.417969 207.550781 C 109.101562 206.296875 108.816406 205.03125 108.566406 203.765625 C 108.3125 202.496094 108.09375 201.21875 107.902344 199.9375 C 107.710938 198.660156 107.554688 197.375 107.425781 196.085938 C 107.300781 194.796875 107.203125 193.507812 107.140625 192.214844 C 107.078125 190.921875 107.046875 189.628906 107.046875 188.335938 C 107.046875 187.039062 107.078125 185.746094 107.140625 184.453125 C 107.203125 183.160156 107.300781 181.871094 107.425781 180.582031 C 107.554688 179.296875 107.710938 178.011719 107.902344 176.730469 C 108.09375 175.449219 108.3125 174.175781 108.566406 172.90625 C 108.816406 171.636719 109.101562 170.375 109.417969 169.121094 C 109.730469 167.863281 110.074219 166.617188 110.453125 165.378906 C 110.828125 164.140625 111.234375 162.910156 111.667969 161.691406 C 112.105469 160.472656 112.570312 159.265625 113.066406 158.070312 C 113.5625 156.875 114.085938 155.691406 114.640625 154.523438 C 115.191406 153.351562 115.773438 152.195312 116.382812 151.054688 C 116.996094 149.914062 117.632812 148.789062 118.296875 147.679688 C 118.960938 146.566406 119.65625 145.476562 120.375 144.398438 C 121.09375 143.324219 121.839844 142.265625 122.609375 141.226562 C 123.378906 140.183594 124.175781 139.164062 124.996094 138.164062 C 125.820312 137.164062 126.664062 136.183594 127.53125 135.226562 C 128.402344 134.265625 129.292969 133.328125 130.210938 132.414062 C 131.125 131.5 132.0625 130.605469 133.019531 129.738281 C 133.980469 128.867188 134.960938 128.023438 135.960938 127.203125 C 136.960938 126.382812 137.980469 125.585938 139.019531 124.8125 C 140.058594 124.042969 141.117188 123.296875 142.195312 122.578125 C 143.269531 121.859375 144.363281 121.167969 145.472656 120.503906 C 146.582031 119.835938 147.707031 119.199219 148.851562 118.589844 C 149.992188 117.980469 151.148438 117.398438 152.316406 116.84375 C 153.488281 116.289062 154.671875 115.765625 155.867188 115.269531 C 157.0625 114.777344 158.269531 114.308594 159.488281 113.875 C 160.707031 113.4375 161.933594 113.03125 163.171875 112.65625 C 164.410156 112.28125 165.660156 111.9375 166.914062 111.621094 C 168.167969 111.308594 169.433594 111.023438 170.703125 110.769531 C 171.972656 110.519531 173.246094 110.296875 174.527344 110.105469 C 175.804688 109.917969 177.089844 109.757812 178.378906 109.632812 C 179.667969 109.503906 180.957031 109.410156 182.25 109.347656 C 183.542969 109.28125 184.835938 109.25 186.128906 109.25 C 187.425781 109.25 188.71875 109.28125 190.011719 109.347656 C 191.304688 109.410156 192.59375 109.503906 193.882812 109.632812 C 195.167969 109.757812 196.453125 109.917969 197.734375 110.105469 C 199.015625 110.296875 200.289062 110.519531 201.558594 110.769531 C 202.828125 111.023438 204.089844 111.308594 205.347656 111.621094 C 206.601562 111.9375 207.847656 112.28125 209.085938 112.65625 C 210.324219 113.03125 211.554688 113.4375 212.773438 113.875 C 213.992188 114.308594 215.199219 114.777344 216.394531 115.269531 C 217.589844 115.765625 218.773438 116.289062 219.941406 116.84375 C 221.113281 117.398438 222.269531 117.980469 223.410156 118.589844 C 224.550781 119.199219 225.675781 119.835938 226.789062 120.503906 C 227.898438 121.167969 228.992188 121.859375 230.066406 122.578125 C 231.144531 123.296875 232.199219 124.042969 233.242188 124.8125 C 234.28125 125.585938 235.300781 126.382812 236.300781 127.203125 C 237.300781 128.023438 238.28125 128.867188 239.238281 129.738281 C 240.199219 130.605469 241.136719 131.5 242.050781 132.414062 C 242.964844 133.328125 243.859375 134.265625 244.726562 135.226562 C 245.597656 136.183594 246.441406 137.164062 247.261719 138.164062 C 248.082031 139.164062 248.878906 140.183594 249.652344 141.226562 C 250.421875 142.265625 251.167969 143.324219 251.886719 144.398438 C 252.605469 145.476562 253.296875 146.566406 253.960938 147.679688 C 254.628906 148.789062 255.265625 149.914062 255.875 151.054688 C 256.484375 152.195312 257.066406 153.351562 257.621094 154.523438 C 258.175781 155.691406 258.699219 156.875 259.195312 158.070312 C 259.691406 159.265625 260.15625 160.472656 260.589844 161.691406 C 261.027344 162.910156 261.433594 164.140625 261.808594 165.378906 C 262.183594 166.617188 262.53125 167.863281 262.84375 169.121094 C 263.160156 170.375 263.441406 171.636719 263.695312 172.90625 C 263.945312 174.175781 264.167969 175.449219 264.359375 176.730469 C 264.546875 178.011719 264.707031 179.296875 264.832031 180.582031 C 264.960938 181.871094 265.054688 183.160156 265.117188 184.453125 C 265.183594 185.746094 265.214844 187.039062 265.214844 188.335938 Z M 265.214844 188.335938 "/><path style=" stroke:none;fill-rule:nonzero;fill:#f49617;fill-opacity:1;" d="M 232.667969 188.335938 C 232.667969 189.859375 232.59375 191.378906 232.445312 192.894531 C 232.296875 194.414062 232.070312 195.917969 231.773438 197.414062 C 231.476562 198.910156 231.105469 200.386719 230.664062 201.84375 C 230.222656 203.300781 229.710938 204.734375 229.125 206.144531 C 228.542969 207.550781 227.890625 208.925781 227.171875 210.269531 C 226.457031 211.613281 225.671875 212.921875 224.824219 214.1875 C 223.980469 215.457031 223.074219 216.679688 222.105469 217.855469 C 221.140625 219.035156 220.117188 220.160156 219.039062 221.238281 C 217.960938 222.316406 216.832031 223.339844 215.65625 224.304688 C 214.476562 225.273438 213.253906 226.179688 211.988281 227.027344 C 210.71875 227.875 209.414062 228.65625 208.070312 229.375 C 206.726562 230.09375 205.351562 230.742188 203.941406 231.328125 C 202.535156 231.910156 201.101562 232.421875 199.644531 232.867188 C 198.183594 233.308594 196.707031 233.675781 195.214844 233.976562 C 193.71875 234.273438 192.210938 234.496094 190.695312 234.644531 C 189.179688 234.792969 187.660156 234.867188 186.132812 234.867188 C 184.609375 234.867188 183.089844 234.792969 181.574219 234.644531 C 180.058594 234.496094 178.550781 234.273438 177.054688 233.976562 C 175.5625 233.675781 174.085938 233.308594 172.625 232.867188 C 171.167969 232.421875 169.734375 231.910156 168.328125 231.328125 C 166.917969 230.742188 165.542969 230.09375 164.199219 229.375 C 162.855469 228.65625 161.550781 227.875 160.28125 227.027344 C 159.015625 226.179688 157.792969 225.273438 156.613281 224.304688 C 155.4375 223.339844 154.308594 222.316406 153.230469 221.238281 C 152.152344 220.160156 151.128906 219.035156 150.164062 217.855469 C 149.195312 216.679688 148.289062 215.457031 147.445312 214.1875 C 146.597656 212.921875 145.8125 211.613281 145.09375 210.269531 C 144.378906 208.925781 143.726562 207.550781 143.144531 206.144531 C 142.558594 204.734375 142.046875 203.300781 141.605469 201.84375 C 141.164062 200.386719 140.792969 198.910156 140.496094 197.414062 C 140.199219 195.917969 139.972656 194.414062 139.824219 192.894531 C 139.675781 191.378906 139.601562 189.859375 139.601562 188.335938 C 139.601562 186.8125 139.675781 185.289062 139.824219 183.773438 C 139.972656 182.257812 140.199219 180.75 140.496094 179.257812 C 140.792969 177.761719 141.164062 176.285156 141.605469 174.828125 C 142.046875 173.367188 142.558594 171.9375 143.144531 170.527344 C 143.726562 169.121094 144.378906 167.742188 145.09375 166.398438 C 145.8125 165.054688 146.597656 163.75 147.445312 162.484375 C 148.289062 161.214844 149.195312 159.992188 150.164062 158.816406 C 151.128906 157.636719 152.152344 156.507812 153.230469 155.429688 C 154.308594 154.351562 155.4375 153.332031 156.613281 152.363281 C 157.792969 151.398438 159.015625 150.492188 160.28125 149.644531 C 161.550781 148.796875 162.855469 148.015625 164.199219 147.296875 C 165.542969 146.578125 166.917969 145.925781 168.328125 145.34375 C 169.734375 144.761719 171.167969 144.246094 172.625 143.804688 C 174.085938 143.363281 175.5625 142.992188 177.054688 142.695312 C 178.550781 142.398438 180.058594 142.175781 181.574219 142.027344 C 183.089844 141.875 184.609375 141.800781 186.132812 141.800781 C 187.660156 141.800781 189.179688 141.875 190.695312 142.027344 C 192.210938 142.175781 193.71875 142.398438 195.214844 142.695312 C 196.707031 142.992188 198.183594 143.363281 199.644531 143.804688 C 201.101562 144.246094 202.535156 144.761719 203.941406 145.34375 C 205.351562 145.925781 206.726562 146.578125 208.070312 147.296875 C 209.414062 148.015625 210.71875 148.796875 211.988281 149.644531 C 213.253906 150.492188 214.476562 151.398438 215.65625 152.363281 C 216.832031 153.332031 217.960938 154.351562 219.039062 155.429688 C 220.117188 156.507812 221.140625 157.636719 222.105469 158.816406 C 223.074219 159.992188 223.980469 161.214844 224.824219 162.484375 C 225.671875 163.75 226.457031 165.054688 227.171875 166.398438 C 227.890625 167.742188 228.542969 169.121094 229.125 170.527344 C 229.710938 171.9375 230.222656 173.367188 230.664062 174.828125 C 231.105469 176.285156 231.476562 177.761719 231.773438 179.257812 C 232.070312 180.75 232.296875 182.257812 232.445312 183.773438 C 232.59375 185.289062 232.667969 186.8125 232.667969 188.335938 Z M 232.667969 188.335938 "/><path style=" stroke:none;fill-rule:nonzero;fill:#0d1b4c;fill-opacity:1;" d="M 197.988281 180.679688 L 172.5 206.167969 L 168.3125 201.980469 L 193.796875 176.492188 L 171.335938 176.492188 L 171.335938 170.566406 L 203.910156 170.566406 L 203.910156 203.144531 L 197.988281 203.144531 Z M 197.988281 180.679688 "/><path style=" stroke:none;fill-rule:nonzero;fill:#0d1b4c;fill-opacity:1;" d="M 188.625 61.34375 L 190.125 39.890625 L 204.378906 40.886719 L 204.136719 44.34375 L 193.800781 43.621094 L 193.414062 49.121094 L 203.175781 49.804688 L 202.933594 53.257812 L 193.171875 52.574219 L 192.78125 58.160156 L 203.117188 58.882812 L 202.878906 62.339844 Z M 188.625 61.34375 "/><path style=" stroke:none;fill-rule:nonzero;fill:#0d1b4c;fill-opacity:1;" d="M 204.542969 62.4375 L 213.761719 53.398438 L 209.257812 41.457031 L 213.652344 42.433594 L 217.335938 52.210938 L 215.308594 51.761719 L 222.753906 44.453125 L 227.152344 45.429688 L 218.046875 54.347656 L 222.546875 66.4375 L 218.152344 65.460938 L 214.464844 55.5625 L 216.492188 56.015625 L 208.9375 63.414062 Z M 204.542969 62.4375 "/><path style=" stroke:none;fill-rule:nonzero;fill:#0d1b4c;fill-opacity:1;" d="M 225.835938 67.585938 L 233.679688 47.5625 L 241.148438 50.488281 C 242.511719 51.023438 243.613281 51.742188 244.457031 52.652344 C 245.324219 53.550781 245.867188 54.589844 246.085938 55.769531 C 246.3125 56.933594 246.160156 58.1875 245.636719 59.53125 C 245.117188 60.859375 244.363281 61.875 243.386719 62.585938 C 242.429688 63.285156 241.332031 63.683594 240.097656 63.777344 C 238.859375 63.875 237.5625 63.652344 236.199219 63.121094 L 232.382812 61.625 L 229.488281 69.015625 Z M 233.648438 58.402344 L 237.515625 59.917969 C 238.179688 60.175781 238.804688 60.277344 239.386719 60.214844 C 239.972656 60.136719 240.492188 59.914062 240.945312 59.554688 C 241.394531 59.195312 241.742188 58.710938 241.980469 58.101562 C 242.226562 57.472656 242.300781 56.882812 242.207031 56.328125 C 242.121094 55.757812 241.886719 55.253906 241.5 54.8125 C 241.125 54.355469 240.601562 53.996094 239.9375 53.734375 L 236.070312 52.21875 Z M 233.648438 58.402344 "/><path style=" stroke:none;fill-rule:nonzero;fill:#0d1b4c;fill-opacity:1;" d="M 243.207031 74.828125 L 253.71875 56.070312 L 257.144531 57.988281 L 248.324219 73.726562 L 256.355469 78.226562 L 254.664062 81.25 Z M 243.207031 74.828125 "/><path style=" stroke:none;fill-rule:nonzero;fill:#0d1b4c;fill-opacity:1;" d="M 265.191406 89.496094 C 263.949219 88.527344 262.957031 87.402344 262.222656 86.121094 C 261.488281 84.839844 261.027344 83.492188 260.835938 82.078125 C 260.648438 80.660156 260.738281 79.242188 261.113281 77.828125 C 261.511719 76.40625 262.195312 75.074219 263.164062 73.828125 C 264.144531 72.570312 265.273438 71.578125 266.539062 70.859375 C 267.808594 70.140625 269.152344 69.699219 270.570312 69.535156 C 271.988281 69.375 273.402344 69.5 274.8125 69.914062 C 276.234375 70.3125 277.574219 71.003906 278.835938 71.988281 C 280.09375 72.96875 281.089844 74.097656 281.828125 75.378906 C 282.558594 76.660156 283.023438 78.007812 283.214844 79.421875 C 283.414062 80.824219 283.320312 82.226562 282.933594 83.632812 C 282.558594 85.050781 281.882812 86.386719 280.902344 87.648438 C 279.933594 88.894531 278.800781 89.875 277.503906 90.597656 C 276.222656 91.308594 274.871094 91.742188 273.449219 91.90625 C 272.03125 92.066406 270.609375 91.949219 269.191406 91.550781 C 267.785156 91.160156 266.453125 90.476562 265.191406 89.496094 Z M 267.390625 86.671875 C 268.226562 87.324219 269.105469 87.777344 270.027344 88.03125 C 270.964844 88.273438 271.894531 88.328125 272.824219 88.199219 C 273.773438 88.082031 274.664062 87.765625 275.503906 87.25 C 276.359375 86.746094 277.121094 86.066406 277.78125 85.21875 C 278.445312 84.367188 278.910156 83.472656 279.175781 82.535156 C 279.472656 81.59375 279.558594 80.652344 279.441406 79.707031 C 279.351562 78.757812 279.070312 77.867188 278.597656 77.035156 C 278.121094 76.203125 277.46875 75.460938 276.632812 74.808594 C 275.816406 74.171875 274.945312 73.722656 274.019531 73.46875 C 273.097656 73.210938 272.15625 73.152344 271.199219 73.285156 C 270.269531 73.414062 269.375 73.730469 268.519531 74.234375 C 267.679688 74.722656 266.925781 75.390625 266.261719 76.242188 C 265.601562 77.089844 265.128906 77.992188 264.847656 78.945312 C 264.570312 79.898438 264.480469 80.84375 264.582031 81.777344 C 264.699219 82.722656 264.992188 83.617188 265.453125 84.464844 C 265.925781 85.296875 266.574219 86.035156 267.390625 86.671875 Z M 267.390625 86.671875 "/><path style=" stroke:none;fill-rule:nonzero;fill:#0d1b4c;fill-opacity:1;" d="M 274.5 96.957031 L 290.292969 82.363281 L 295.71875 88.234375 C 296.710938 89.308594 297.386719 90.4375 297.75 91.625 C 298.136719 92.808594 298.175781 93.980469 297.855469 95.140625 C 297.550781 96.285156 296.867188 97.347656 295.808594 98.328125 C 294.722656 99.332031 293.554688 99.929688 292.308594 100.109375 C 291.074219 100.308594 289.871094 100.136719 288.691406 99.601562 L 285.707031 109.082031 L 282.6875 105.820312 L 286.035156 95.53125 L 286.65625 98.417969 L 282.992188 94.453125 L 277.164062 99.839844 Z M 285.535156 92.101562 L 288.335938 95.132812 C 288.820312 95.65625 289.335938 96.015625 289.886719 96.214844 C 290.453125 96.402344 291.015625 96.429688 291.582031 96.304688 C 292.144531 96.175781 292.664062 95.890625 293.144531 95.445312 C 293.640625 94.988281 293.964844 94.492188 294.125 93.953125 C 294.296875 93.402344 294.300781 92.84375 294.148438 92.277344 C 294.007812 91.699219 293.695312 91.152344 293.214844 90.628906 L 290.410156 87.597656 Z M 285.535156 92.101562 "/><path style=" stroke:none;fill-rule:nonzero;fill:#0d1b4c;fill-opacity:1;" d="M 287.109375 111.160156 L 304.832031 98.984375 L 312.921875 110.761719 L 310.066406 112.722656 L 304.199219 104.183594 L 299.65625 107.304688 L 305.195312 115.371094 L 302.339844 117.332031 L 296.800781 109.265625 L 292.183594 112.4375 L 298.050781 120.976562 L 295.195312 122.9375 Z M 287.109375 111.160156 "/><path style=" stroke:none;fill-rule:nonzero;fill:#0d1b4c;fill-opacity:1;" d="M 301.046875 133.277344 L 321.164062 125.683594 L 322.488281 129.195312 L 315.101562 140.59375 L 314.46875 138.917969 L 327.484375 142.425781 L 328.808594 145.9375 L 308.691406 153.53125 L 307.296875 149.832031 L 323.226562 143.816406 L 323.417969 145.378906 L 310.351562 141.582031 L 310.1875 141.148438 L 317.554688 129.855469 L 318.363281 130.9375 L 302.433594 136.949219 Z M 301.046875 133.277344 "/><path style=" stroke:none;fill-rule:nonzero;fill:#0d1b4c;fill-opacity:1;" d="M 311.246094 168.914062 C 310.988281 167.359375 311.019531 165.863281 311.34375 164.421875 C 311.671875 162.984375 312.242188 161.675781 313.0625 160.507812 C 313.878906 159.335938 314.90625 158.355469 316.140625 157.5625 C 317.394531 156.789062 318.800781 156.269531 320.355469 156.007812 C 321.933594 155.746094 323.429688 155.777344 324.851562 156.105469 C 326.269531 156.433594 327.558594 157.019531 328.714844 157.859375 C 329.871094 158.699219 330.824219 159.75 331.582031 161.007812 C 332.359375 162.265625 332.875 163.679688 333.140625 165.253906 C 333.40625 166.832031 333.375 168.335938 333.046875 169.777344 C 332.722656 171.21875 332.152344 172.523438 331.332031 173.691406 C 330.535156 174.859375 329.515625 175.832031 328.277344 176.605469 C 327.046875 177.394531 325.640625 177.921875 324.066406 178.1875 C 322.507812 178.445312 321.011719 178.402344 319.566406 178.058594 C 318.144531 177.714844 316.851562 177.117188 315.699219 176.277344 C 314.542969 175.4375 313.578125 174.390625 312.800781 173.132812 C 312.03125 171.898438 311.511719 170.492188 311.246094 168.914062 Z M 314.78125 168.324219 C 314.953125 169.371094 315.292969 170.296875 315.800781 171.109375 C 316.328125 171.921875 316.972656 172.59375 317.746094 173.125 C 318.523438 173.679688 319.394531 174.050781 320.359375 174.238281 C 321.332031 174.449219 322.351562 174.464844 323.414062 174.285156 C 324.476562 174.109375 325.425781 173.765625 326.253906 173.253906 C 327.109375 172.761719 327.8125 172.125 328.363281 171.351562 C 328.941406 170.589844 329.335938 169.746094 329.550781 168.8125 C 329.765625 167.878906 329.785156 166.890625 329.609375 165.84375 C 329.441406 164.820312 329.101562 163.902344 328.59375 163.089844 C 328.089844 162.277344 327.4375 161.59375 326.644531 161.046875 C 325.871094 160.511719 325 160.140625 324.027344 159.929688 C 323.074219 159.71875 322.066406 159.703125 321.003906 159.878906 C 319.941406 160.058594 318.984375 160.402344 318.132812 160.917969 C 317.28125 161.429688 316.582031 162.0625 316.023438 162.820312 C 315.46875 163.597656 315.078125 164.453125 314.84375 165.386719 C 314.628906 166.320312 314.605469 167.300781 314.78125 168.324219 Z M 314.78125 168.324219 "/><path style=" stroke:none;fill-rule:nonzero;fill:#0d1b4c;fill-opacity:1;" d="M 313.039062 180.792969 L 334.542969 180.742188 L 334.5625 188.738281 C 334.566406 190.199219 334.300781 191.488281 333.761719 192.609375 C 333.246094 193.742188 332.480469 194.632812 331.460938 195.269531 C 330.460938 195.90625 329.238281 196.226562 327.796875 196.230469 C 326.316406 196.234375 325.054688 195.878906 324.015625 195.171875 C 322.972656 194.480469 322.203125 193.539062 321.695312 192.347656 L 313.078125 197.304688 L 313.070312 192.859375 L 322.496094 187.554688 L 321 190.097656 L 320.988281 184.699219 L 313.046875 184.71875 Z M 324.449219 184.691406 L 324.460938 188.820312 C 324.460938 189.53125 324.597656 190.148438 324.867188 190.667969 C 325.160156 191.183594 325.554688 191.589844 326.054688 191.875 C 326.554688 192.164062 327.132812 192.304688 327.789062 192.304688 C 328.460938 192.300781 329.039062 192.15625 329.519531 191.867188 C 330.015625 191.578125 330.402344 191.171875 330.671875 190.652344 C 330.957031 190.132812 331.101562 189.515625 331.097656 188.804688 L 331.089844 184.675781 Z M 324.449219 184.691406 "/><path style=" stroke:none;fill-rule:nonzero;fill:#0d1b4c;fill-opacity:1;" d="M 312.703125 199.890625 L 333.988281 202.933594 L 331.964844 217.078125 L 328.539062 216.585938 L 330.003906 206.328125 L 324.546875 205.546875 L 323.164062 215.234375 L 319.734375 214.746094 L 321.117188 205.058594 L 315.574219 204.265625 L 314.109375 214.523438 L 310.679688 214.035156 Z M 312.703125 199.890625 "/><path style=" stroke:none;fill-rule:nonzero;fill:#0d1b4c;fill-opacity:1;" d="M 316.378906 232.414062 L 318.777344 230.835938 L 320.730469 233.804688 L 322.933594 231.078125 L 325.171875 232.855469 L 322.992188 235.589844 L 326.460938 236.871094 L 325.460938 239.578125 L 321.996094 238.296875 L 321.875 241.792969 L 319.019531 241.691406 L 319.113281 238.1875 L 315.699219 239.179688 L 314.910156 236.394531 L 318.324219 235.40625 Z M 316.378906 232.414062 "/><path style=" stroke:none;fill-rule:nonzero;fill:#0d1b4c;fill-opacity:1;" d="M 296.988281 250.484375 L 315.15625 261.988281 L 307.515625 274.058594 L 304.589844 272.207031 L 310.128906 263.449219 L 305.472656 260.503906 L 300.238281 268.769531 L 297.3125 266.917969 L 302.546875 258.648438 L 297.816406 255.652344 L 292.273438 264.410156 L 289.347656 262.554688 Z M 296.988281 250.484375 "/><path style=" stroke:none;fill-rule:nonzero;fill:#0d1b4c;fill-opacity:1;" d="M 288.429688 264.035156 L 292.011719 276.441406 L 304.660156 278.144531 L 301.710938 281.550781 L 291.359375 280.152344 L 292.71875 278.582031 L 295.613281 288.601562 L 292.667969 292.007812 L 289.140625 279.761719 L 276.367188 277.984375 L 279.3125 274.578125 L 289.773438 276.03125 L 288.410156 277.601562 L 285.488281 267.441406 Z M 288.429688 264.035156 "/><path style=" stroke:none;fill-rule:nonzero;fill:#0d1b4c;fill-opacity:1;" d="M 273.824219 280.308594 L 287.765625 296.683594 L 281.65625 301.882812 C 280.539062 302.832031 279.382812 303.460938 278.183594 303.773438 C 276.984375 304.113281 275.808594 304.101562 274.664062 303.738281 C 273.535156 303.386719 272.5 302.660156 271.5625 301.5625 C 270.640625 300.480469 270.097656 299.335938 269.933594 298.136719 C 269.769531 296.960938 269.9375 295.808594 270.441406 294.675781 C 270.941406 293.539062 271.746094 292.5 272.859375 291.550781 L 275.980469 288.894531 L 270.835938 282.851562 Z M 278.226562 291.53125 L 275.0625 294.226562 C 274.519531 294.6875 274.136719 295.191406 273.914062 295.734375 C 273.707031 296.289062 273.65625 296.851562 273.761719 297.417969 C 273.863281 297.988281 274.128906 298.519531 274.554688 299.019531 C 274.992188 299.53125 275.476562 299.875 276.003906 300.054688 C 276.550781 300.25 277.105469 300.28125 277.679688 300.152344 C 278.261719 300.03125 278.824219 299.742188 279.363281 299.285156 L 282.527344 296.589844 Z M 278.226562 291.53125 "/><path style=" stroke:none;fill-rule:nonzero;fill:#0d1b4c;fill-opacity:1;" d="M 259.238281 292.183594 L 270.820312 310.300781 L 267.515625 312.414062 L 257.796875 297.21875 L 250.039062 302.175781 L 248.171875 299.261719 Z M 259.238281 292.183594 "/><path style=" stroke:none;fill-rule:nonzero;fill:#0d1b4c;fill-opacity:1;" d="M 235.917969 304.675781 C 237.359375 304.035156 238.816406 303.695312 240.292969 303.652344 C 241.769531 303.609375 243.171875 303.835938 244.511719 304.339844 C 245.847656 304.839844 247.054688 305.589844 248.128906 306.589844 C 249.191406 307.609375 250.042969 308.84375 250.679688 310.285156 C 251.332031 311.746094 251.671875 313.207031 251.707031 314.664062 C 251.742188 316.121094 251.496094 317.515625 250.96875 318.839844 C 250.441406 320.167969 249.664062 321.355469 248.632812 322.402344 C 247.609375 323.464844 246.367188 324.320312 244.90625 324.96875 C 243.445312 325.613281 241.976562 325.960938 240.503906 326.003906 C 239.027344 326.046875 237.621094 325.816406 236.285156 325.316406 C 234.953125 324.832031 233.761719 324.085938 232.707031 323.082031 C 231.632812 322.082031 230.773438 320.855469 230.125 319.394531 C 229.484375 317.949219 229.152344 316.488281 229.128906 315.003906 C 229.109375 313.542969 229.363281 312.144531 229.890625 310.816406 C 230.417969 309.488281 231.195312 308.292969 232.21875 307.230469 C 233.222656 306.171875 234.457031 305.320312 235.917969 304.675781 Z M 237.367188 307.949219 C 236.398438 308.375 235.582031 308.9375 234.921875 309.628906 C 234.269531 310.339844 233.78125 311.136719 233.453125 312.015625 C 233.109375 312.902344 232.96875 313.839844 233.027344 314.824219 C 233.066406 315.820312 233.304688 316.808594 233.742188 317.792969 C 234.175781 318.777344 234.746094 319.609375 235.445312 320.289062 C 236.136719 320.992188 236.925781 321.515625 237.816406 321.859375 C 238.695312 322.226562 239.609375 322.398438 240.570312 322.375 C 241.527344 322.351562 242.488281 322.125 243.457031 321.695312 C 244.40625 321.273438 245.210938 320.71875 245.871094 320.027344 C 246.535156 319.332031 247.035156 318.535156 247.367188 317.625 C 247.695312 316.746094 247.835938 315.808594 247.796875 314.816406 C 247.765625 313.839844 247.527344 312.863281 247.09375 311.878906 C 246.65625 310.890625 246.085938 310.050781 245.375 309.355469 C 244.667969 308.65625 243.878906 308.132812 243.007812 307.78125 C 242.121094 307.441406 241.191406 307.273438 240.226562 307.28125 C 239.269531 307.304688 238.316406 307.527344 237.367188 307.949219 Z M 237.367188 307.949219 "/><path style=" stroke:none;fill-rule:nonzero;fill:#0d1b4c;fill-opacity:1;" d="M 224.957031 309.335938 L 230.324219 330.160156 L 222.582031 332.15625 C 221.164062 332.519531 219.847656 332.582031 218.632812 332.335938 C 217.40625 332.117188 216.355469 331.59375 215.488281 330.761719 C 214.621094 329.953125 214.007812 328.847656 213.648438 327.453125 C 213.28125 326.015625 213.308594 324.707031 213.738281 323.523438 C 214.152344 322.34375 214.871094 321.363281 215.902344 320.582031 L 208.96875 313.457031 L 213.273438 312.347656 L 220.746094 320.167969 L 217.910156 319.347656 L 223.136719 318 L 221.15625 310.316406 Z M 224 321.355469 L 220.003906 322.386719 C 219.316406 322.5625 218.753906 322.847656 218.316406 323.238281 C 217.886719 323.648438 217.59375 324.128906 217.4375 324.6875 C 217.285156 325.246094 217.289062 325.835938 217.449219 326.472656 C 217.617188 327.125 217.902344 327.648438 218.300781 328.042969 C 218.707031 328.453125 219.195312 328.726562 219.765625 328.859375 C 220.339844 329.007812 220.972656 328.992188 221.660156 328.816406 L 225.65625 327.785156 Z M 224 321.355469 "/><path style=" stroke:none;fill-rule:nonzero;fill:#0d1b4c;fill-opacity:1;" d="M 206.535156 313.695312 L 208.839844 335.078125 L 194.632812 336.609375 L 194.261719 333.164062 L 204.5625 332.050781 L 203.972656 326.574219 L 194.246094 327.621094 L 193.875 324.175781 L 203.601562 323.128906 L 203 317.5625 L 192.699219 318.671875 L 192.328125 315.226562 Z M 206.535156 313.695312 "/><path style=" stroke:none;fill-rule:nonzero;fill:#0d1b4c;fill-opacity:1;" d="M 180.1875 315.46875 L 177.347656 336.785156 L 173.625 336.289062 L 167.089844 324.382812 L 168.863281 324.617188 L 159.609375 334.421875 L 155.886719 333.925781 L 158.730469 312.609375 L 162.648438 313.132812 L 160.398438 330.011719 L 158.933594 329.4375 L 168.464844 319.734375 L 168.925781 319.792969 L 175.382812 331.632812 L 174.046875 331.832031 L 176.296875 314.949219 Z M 180.1875 315.46875 "/><path style=" stroke:none;fill-rule:nonzero;fill:#0d1b4c;fill-opacity:1;" d="M 143.988281 307.574219 C 145.484375 308.082031 146.785156 308.824219 147.902344 309.789062 C 149.015625 310.757812 149.894531 311.878906 150.539062 313.15625 C 151.183594 314.429688 151.558594 315.796875 151.671875 317.257812 C 151.761719 318.730469 151.554688 320.214844 151.046875 321.710938 C 150.53125 323.222656 149.792969 324.527344 148.832031 325.621094 C 147.871094 326.71875 146.746094 327.574219 145.460938 328.195312 C 144.171875 328.8125 142.792969 329.160156 141.328125 329.230469 C 139.855469 329.320312 138.363281 329.105469 136.847656 328.59375 C 135.335938 328.078125 134.023438 327.339844 132.910156 326.371094 C 131.796875 325.402344 130.917969 324.28125 130.273438 323.007812 C 129.625 321.75 129.25 320.394531 129.15625 318.9375 C 129.042969 317.476562 129.242188 315.988281 129.757812 314.480469 C 130.261719 312.984375 131.011719 311.683594 131.996094 310.574219 C 132.976562 309.484375 134.109375 308.628906 135.398438 308.011719 C 136.683594 307.390625 138.066406 307.039062 139.539062 306.949219 C 140.992188 306.855469 142.476562 307.0625 143.988281 307.574219 Z M 142.835938 310.964844 C 141.835938 310.625 140.855469 310.484375 139.902344 310.546875 C 138.9375 310.625 138.039062 310.878906 137.203125 311.308594 C 136.347656 311.730469 135.609375 312.320312 134.984375 313.082031 C 134.339844 313.839844 133.847656 314.730469 133.5 315.75 C 133.152344 316.769531 133.007812 317.765625 133.0625 318.742188 C 133.09375 319.726562 133.320312 320.648438 133.742188 321.5 C 134.136719 322.367188 134.695312 323.117188 135.417969 323.75 C 136.136719 324.378906 137 324.863281 138 325.203125 C 138.984375 325.539062 139.953125 325.675781 140.910156 325.613281 C 141.867188 325.550781 142.773438 325.300781 143.632812 324.863281 C 144.46875 324.433594 145.210938 323.84375 145.855469 323.085938 C 146.492188 322.347656 146.980469 321.46875 147.328125 320.445312 C 147.675781 319.425781 147.824219 318.421875 147.773438 317.429688 C 147.726562 316.433594 147.5 315.515625 147.097656 314.667969 C 146.675781 313.8125 146.109375 313.0625 145.394531 312.414062 C 144.671875 311.78125 143.820312 311.300781 142.835938 310.964844 Z M 142.835938 310.964844 "/><path style=" stroke:none;fill-rule:nonzero;fill:#0d1b4c;fill-opacity:1;" d="M 132.746094 303.574219 L 122.585938 322.523438 L 115.539062 318.75 C 114.25 318.058594 113.242188 317.210938 112.511719 316.207031 C 111.757812 315.214844 111.34375 314.117188 111.265625 312.917969 C 111.175781 311.734375 111.476562 310.507812 112.15625 309.238281 C 112.855469 307.929688 113.765625 306.988281 114.882812 306.410156 C 115.984375 305.820312 117.179688 305.589844 118.46875 305.710938 L 118.195312 295.773438 L 122.113281 297.875 L 122.308594 308.6875 L 120.78125 306.164062 L 125.535156 308.714844 L 129.285156 301.71875 Z M 123.898438 311.765625 L 120.261719 309.816406 C 119.636719 309.480469 119.027344 309.308594 118.445312 309.300781 C 117.847656 309.308594 117.308594 309.464844 116.816406 309.769531 C 116.324219 310.074219 115.925781 310.515625 115.617188 311.089844 C 115.296875 311.6875 115.152344 312.261719 115.179688 312.820312 C 115.199219 313.398438 115.371094 313.929688 115.703125 314.414062 C 116.023438 314.914062 116.5 315.332031 117.125 315.667969 L 120.765625 317.617188 Z M 123.898438 311.765625 "/><path style=" stroke:none;fill-rule:nonzero;fill:#0d1b4c;fill-opacity:1;" d="M 116.210938 294.285156 L 103.429688 311.578125 L 91.9375 303.085938 L 94 300.300781 L 102.332031 306.457031 L 105.609375 302.027344 L 97.738281 296.210938 L 99.796875 293.425781 L 107.667969 299.242188 L 110.996094 294.738281 L 102.664062 288.578125 L 104.722656 285.792969 Z M 116.210938 294.285156 "/><path style=" stroke:none;fill-rule:nonzero;fill:#0d1b4c;fill-opacity:1;" d="M 85.828125 282.089844 L 86.085938 284.949219 L 82.550781 285.265625 L 83.910156 288.496094 L 81.285156 289.628906 L 79.90625 286.414062 L 77.140625 288.863281 L 75.226562 286.707031 L 77.992188 284.253906 L 74.96875 282.5 L 76.40625 280.027344 L 79.449219 281.765625 L 80.191406 278.292969 L 83.015625 278.914062 L 82.273438 282.386719 Z M 85.828125 282.089844 "/><path style=" stroke:none;fill-rule:nonzero;fill:#0d1b4c;fill-opacity:1;" d="M 79.058594 256.472656 L 60.347656 267.070312 L 53.304688 254.640625 L 56.320312 252.929688 L 61.425781 261.949219 L 66.222656 259.230469 L 61.402344 250.71875 L 64.414062 249.011719 L 69.238281 257.523438 L 74.109375 254.765625 L 69.003906 245.75 L 72.015625 244.039062 Z M 79.058594 256.472656 "/><path style=" stroke:none;fill-rule:nonzero;fill:#0d1b4c;fill-opacity:1;" d="M 71.152344 242.519531 L 58.527344 239.8125 L 51.046875 250.152344 L 49.4375 245.949219 L 55.566406 237.484375 L 56.308594 239.425781 L 46.105469 237.238281 L 44.496094 233.035156 L 56.957031 235.714844 L 64.5625 225.296875 L 66.167969 229.5 L 59.945312 238.035156 L 59.203125 236.09375 L 69.542969 238.316406 Z M 71.152344 242.519531 "/><path style=" stroke:none;fill-rule:nonzero;fill:#0d1b4c;fill-opacity:1;" d="M 63.691406 221.910156 L 42.660156 226.402344 L 40.984375 218.558594 C 40.679688 217.125 40.675781 215.808594 40.96875 214.605469 C 41.238281 213.386719 41.808594 212.359375 42.671875 211.527344 C 43.519531 210.695312 44.644531 210.128906 46.058594 209.828125 C 47.449219 209.53125 48.714844 209.597656 49.847656 210.023438 C 50.957031 210.433594 51.894531 211.128906 52.652344 212.109375 C 53.414062 213.089844 53.945312 214.292969 54.253906 215.722656 L 55.109375 219.730469 L 62.871094 218.074219 Z M 51.722656 220.453125 L 50.851562 216.390625 C 50.703125 215.695312 50.445312 215.121094 50.070312 214.667969 C 49.679688 214.21875 49.210938 213.90625 48.660156 213.730469 C 48.113281 213.550781 47.515625 213.53125 46.878906 213.667969 C 46.21875 213.808594 45.683594 214.070312 45.273438 214.453125 C 44.84375 214.839844 44.554688 215.316406 44.398438 215.878906 C 44.226562 216.449219 44.210938 217.082031 44.359375 217.777344 L 45.230469 221.839844 Z M 51.722656 220.453125 "/><path style=" stroke:none;fill-rule:nonzero;fill:#0d1b4c;fill-opacity:1;" d="M 60.1875 203.523438 L 38.746094 205.121094 L 38.453125 201.207031 L 56.441406 199.867188 L 55.757812 190.683594 L 59.210938 190.429688 Z M 60.1875 203.523438 "/><path style=" stroke:none;fill-rule:nonzero;fill:#0d1b4c;fill-opacity:1;" d="M 60.257812 176.839844 C 60.136719 178.414062 59.742188 179.859375 59.082031 181.179688 C 58.421875 182.5 57.550781 183.628906 56.476562 184.570312 C 55.402344 185.507812 54.167969 186.214844 52.78125 186.6875 C 51.375 187.140625 49.886719 187.304688 48.3125 187.183594 C 46.722656 187.058594 45.277344 186.667969 43.976562 186.007812 C 42.675781 185.351562 41.566406 184.472656 40.644531 183.378906 C 39.726562 182.285156 39.050781 181.035156 38.617188 179.632812 C 38.167969 178.226562 38.003906 176.730469 38.125 175.136719 C 38.25 173.546875 38.640625 172.089844 39.300781 170.769531 C 39.960938 169.449219 40.832031 168.320312 41.90625 167.378906 C 42.964844 166.4375 44.183594 165.742188 45.570312 165.289062 C 46.957031 164.816406 48.449219 164.640625 50.039062 164.765625 C 51.613281 164.886719 53.058594 165.285156 54.378906 165.96875 C 55.675781 166.644531 56.785156 167.53125 57.703125 168.625 C 58.625 169.71875 59.308594 170.96875 59.761719 172.375 C 60.214844 173.761719 60.378906 175.25 60.257812 176.839844 Z M 56.6875 176.566406 C 56.769531 175.511719 56.660156 174.527344 56.363281 173.617188 C 56.050781 172.707031 55.582031 171.898438 54.960938 171.195312 C 54.339844 170.472656 53.582031 169.902344 52.6875 169.484375 C 51.796875 169.050781 50.8125 168.789062 49.738281 168.707031 C 48.664062 168.625 47.660156 168.730469 46.730469 169.027344 C 45.785156 169.300781 44.949219 169.746094 44.226562 170.367188 C 43.484375 170.964844 42.898438 171.691406 42.464844 172.546875 C 42.03125 173.402344 41.773438 174.355469 41.695312 175.414062 C 41.613281 176.449219 41.722656 177.421875 42.019531 178.332031 C 42.316406 179.242188 42.785156 180.058594 43.421875 180.785156 C 44.042969 181.488281 44.800781 182.058594 45.695312 182.492188 C 46.566406 182.929688 47.542969 183.1875 48.617188 183.269531 C 49.691406 183.351562 50.703125 183.246094 51.652344 182.953125 C 52.597656 182.660156 53.433594 182.210938 54.15625 181.613281 C 54.878906 180.992188 55.46875 180.253906 55.917969 179.402344 C 56.351562 178.546875 56.609375 177.601562 56.6875 176.566406 Z M 56.6875 176.566406 "/><path style=" stroke:none;fill-rule:nonzero;fill:#0d1b4c;fill-opacity:1;" d="M 61.339844 165.007812 L 40.453125 159.882812 L 42.359375 152.117188 C 42.707031 150.699219 43.273438 149.511719 44.0625 148.554688 C 44.839844 147.578125 45.796875 146.898438 46.9375 146.527344 C 48.0625 146.148438 49.324219 146.128906 50.726562 146.472656 C 52.164062 146.828125 53.304688 147.472656 54.144531 148.414062 C 54.988281 149.332031 55.511719 150.429688 55.714844 151.710938 L 65.269531 148.972656 L 64.210938 153.289062 L 53.785156 156.171875 L 55.847656 154.0625 L 54.5625 159.304688 L 62.273438 161.195312 Z M 51.199219 158.476562 L 52.183594 154.46875 C 52.351562 153.777344 52.367188 153.148438 52.230469 152.578125 C 52.074219 152.003906 51.789062 151.519531 51.371094 151.121094 C 50.953125 150.71875 50.425781 150.441406 49.792969 150.285156 C 49.136719 150.125 48.542969 150.128906 48.007812 150.292969 C 47.453125 150.457031 46.980469 150.757812 46.597656 151.195312 C 46.191406 151.632812 45.90625 152.195312 45.734375 152.886719 L 44.753906 156.898438 Z M 51.199219 158.476562 "/><path style=" stroke:none;fill-rule:nonzero;fill:#0d1b4c;fill-opacity:1;" d="M 66.21875 146.679688 L 46.296875 138.582031 L 51.679688 125.34375 L 54.886719 126.648438 L 50.984375 136.25 L 56.089844 138.324219 L 59.777344 129.261719 L 62.984375 130.566406 L 59.300781 139.628906 L 64.488281 141.738281 L 68.390625 132.140625 L 71.597656 133.445312 Z M 66.21875 146.679688 "/><path style=" stroke:none;fill-rule:nonzero;fill:#0d1b4c;fill-opacity:1;" d="M 77.042969 122.847656 L 59.628906 110.230469 L 61.832031 107.191406 L 75.414062 107.089844 L 74.367188 108.539062 L 70.132812 95.738281 L 72.332031 92.699219 L 89.746094 105.316406 L 87.425781 108.519531 L 73.636719 98.527344 L 74.835938 97.507812 L 78.855469 110.507812 L 78.585938 110.882812 L 65.097656 110.945312 L 65.554688 109.675781 L 79.347656 119.667969 Z M 77.042969 122.847656 "/><path style=" stroke:none;fill-rule:nonzero;fill:#0d1b4c;fill-opacity:1;" d="M 101.167969 94.699219 C 100.015625 95.777344 98.746094 96.578125 97.367188 97.101562 C 95.988281 97.625 94.582031 97.871094 93.15625 97.832031 C 91.726562 97.796875 90.34375 97.484375 89.003906 96.894531 C 87.660156 96.273438 86.453125 95.386719 85.378906 94.234375 C 84.289062 93.066406 83.488281 91.800781 82.976562 90.433594 C 82.464844 89.070312 82.242188 87.671875 82.304688 86.246094 C 82.367188 84.816406 82.714844 83.441406 83.347656 82.113281 C 83.964844 80.773438 84.859375 79.558594 86.027344 78.472656 C 87.195312 77.382812 88.46875 76.574219 89.847656 76.050781 C 91.226562 75.527344 92.632812 75.28125 94.058594 75.320312 C 95.476562 75.339844 96.847656 75.652344 98.171875 76.257812 C 99.515625 76.847656 100.730469 77.730469 101.820312 78.898438 C 102.894531 80.050781 103.6875 81.324219 104.199219 82.714844 C 104.695312 84.09375 104.910156 85.5 104.847656 86.925781 C 104.785156 88.351562 104.445312 89.738281 103.824219 91.078125 C 103.222656 92.402344 102.335938 93.613281 101.167969 94.699219 Z M 98.726562 92.085938 C 99.5 91.363281 100.085938 90.566406 100.484375 89.695312 C 100.867188 88.808594 101.070312 87.898438 101.089844 86.957031 C 101.121094 86.007812 100.949219 85.074219 100.574219 84.164062 C 100.210938 83.238281 99.664062 82.382812 98.925781 81.59375 C 98.191406 80.804688 97.382812 80.207031 96.5 79.792969 C 95.613281 79.355469 94.695312 79.121094 93.746094 79.085938 C 92.792969 79.027344 91.871094 79.164062 90.972656 79.5 C 90.078125 79.835938 89.242188 80.367188 88.46875 81.089844 C 87.707031 81.796875 87.128906 82.585938 86.730469 83.457031 C 86.332031 84.328125 86.125 85.246094 86.105469 86.214844 C 86.085938 87.152344 86.257812 88.085938 86.621094 89.007812 C 86.96875 89.917969 87.511719 90.769531 88.246094 91.558594 C 88.984375 92.34375 89.800781 92.953125 90.695312 93.378906 C 91.59375 93.804688 92.511719 94.039062 93.449219 94.085938 C 94.402344 94.117188 95.332031 93.972656 96.242188 93.652344 C 97.136719 93.316406 97.964844 92.792969 98.726562 92.085938 Z M 98.726562 92.085938 "/><path style=" stroke:none;fill-rule:nonzero;fill:#0d1b4c;fill-opacity:1;" d="M 110.019531 86.679688 L 98.101562 68.78125 L 104.757812 64.347656 C 105.972656 63.539062 107.195312 63.046875 108.425781 62.878906 C 109.65625 62.679688 110.820312 62.832031 111.914062 63.328125 C 112.996094 63.808594 113.9375 64.648438 114.738281 65.851562 C 115.558594 67.082031 115.960938 68.328125 115.945312 69.589844 C 115.945312 70.839844 115.585938 72 114.871094 73.078125 L 123.761719 77.527344 L 120.0625 79.992188 L 110.433594 75.0625 L 113.382812 74.902344 L 108.890625 77.894531 L 113.289062 84.503906 Z M 106.96875 75.011719 L 110.40625 72.726562 C 110.996094 72.332031 111.433594 71.875 111.71875 71.363281 C 111.992188 70.835938 112.109375 70.285156 112.070312 69.707031 C 112.035156 69.132812 111.835938 68.570312 111.472656 68.027344 C 111.097656 67.464844 110.660156 67.066406 110.152344 66.824219 C 109.632812 66.570312 109.085938 66.472656 108.503906 66.535156 C 107.910156 66.582031 107.316406 66.804688 106.726562 67.199219 L 103.289062 69.488281 Z M 106.96875 75.011719 "/><path style=" stroke:none;fill-rule:nonzero;fill:#0d1b4c;fill-opacity:1;" d="M 126.015625 76.472656 L 116.808594 57.042969 L 129.71875 50.921875 L 131.199219 54.050781 L 121.835938 58.492188 L 124.199219 63.472656 L 133.039062 59.28125 L 134.523438 62.410156 L 125.683594 66.601562 L 128.082031 71.660156 L 137.445312 67.222656 L 138.925781 70.351562 Z M 126.015625 76.472656 "/><path style=" stroke:none;fill-rule:nonzero;fill:#0d1b4c;fill-opacity:1;" d="M 150.9375 55.554688 L 148.28125 54.472656 L 149.625 51.183594 L 146.128906 50.90625 L 146.332031 48.058594 L 149.816406 48.308594 L 148.914062 44.726562 L 151.710938 44.015625 L 152.617188 47.597656 L 155.566406 45.722656 L 157.097656 48.132812 L 154.15625 50.039062 L 156.898438 52.292969 L 155.050781 54.515625 L 152.308594 52.261719 Z M 150.9375 55.554688 "/></g></svg>