<svg xmlns="http://www.w3.org/2000/svg" xmlns:xlink="http://www.w3.org/1999/xlink" width="500" zoomAndPan="magnify" viewBox="0 0 375 374.999991" height="500" preserveAspectRatio="xMidYMid meet" version="1.2"><defs><clipPath id="1add4ddf87"><path d="M 11.03125 20 L 344 20 L 344 374 L 11.03125 374 Z M 11.03125 20 "/></clipPath></defs><g id="aa67dbf7d5"><g clip-rule="nonzero" clip-path="url(#1add4ddf87)"><path style=" stroke:none;fill-rule:nonzero;fill:#f49617;fill-opacity:1;" d="M 333.917969 238.238281 L 228.773438 197.148438 L 334.832031 156.058594 C 340.320312 154.230469 343.976562 147.839844 343.0625 142.359375 C 341.234375 130.488281 335.75 119.53125 329.347656 109.488281 C 323.859375 98.527344 316.546875 89.398438 307.40625 81.179688 C 302.832031 77.527344 296.433594 77.527344 291.859375 81.179688 L 203.171875 152.402344 L 221.460938 40.089844 C 223.289062 33.695312 219.632812 28.21875 214.144531 26.390625 C 203.171875 21.824219 190.375 20 178.488281 20.910156 C 166.601562 20 153.800781 21.824219 142.828125 26.390625 C 137.34375 28.21875 133.6875 34.609375 135.515625 40.089844 L 153.800781 152.402344 L 65.113281 81.179688 C 60.542969 76.613281 54.140625 76.613281 49.570312 81.179688 C 40.425781 88.484375 33.113281 98.527344 27.625 109.488281 C 20.3125 119.53125 15.742188 130.488281 12.996094 142.359375 C 12.082031 148.75 15.742188 154.230469 21.226562 156.058594 L 125.457031 197.148438 L 19.398438 238.238281 C 13.914062 240.066406 10.253906 246.457031 11.167969 251.9375 C 12.996094 263.808594 17.570312 274.765625 24.882812 284.808594 C 30.371094 295.765625 37.683594 304.898438 46.828125 313.117188 C 51.398438 316.769531 57.800781 316.769531 62.371094 313.117188 L 151.058594 241.890625 L 132.773438 354.207031 C 130.945312 360.601562 134.601562 366.078125 140.085938 368.820312 C 151.972656 372.472656 163.859375 374.296875 175.746094 373.386719 C 187.628906 374.296875 200.429688 372.472656 211.402344 368.820312 C 216.886719 366.992188 220.546875 360.601562 218.714844 354.207031 L 200.429688 241.890625 L 289.117188 313.117188 C 293.691406 316.769531 300.089844 316.769531 305.578125 313.117188 C 314.71875 305.8125 322.03125 296.679688 327.519531 285.722656 C 334.832031 275.679688 339.40625 264.71875 342.148438 252.851562 C 343.0625 245.542969 340.320312 240.066406 333.917969 238.238281 Z M 333.917969 238.238281 "/></g></g></svg>