<svg width="26" height="26" viewBox="0 0 26 26" fill="none" xmlns="http://www.w3.org/2000/svg">
<path d="M23.7914 18.3662C23.1086 17.7936 19.1039 15.2576 18.4383 15.374C18.1258 15.4295 17.8867 15.6959 17.2469 16.4592C16.951 16.8349 16.626 17.1867 16.275 17.5115C15.6319 17.3562 15.0093 17.1254 14.4203 16.824C12.1104 15.6994 10.2442 13.8327 9.12031 11.5225C8.81894 10.9335 8.58817 10.3109 8.43281 9.66777C8.7576 9.31676 9.10946 8.9918 9.48516 8.6959C10.2477 8.05606 10.5148 7.81855 10.5703 7.50449C10.6867 6.8373 8.14844 2.83418 7.57813 2.15137C7.33906 1.86855 7.12187 1.67871 6.84375 1.67871C6.0375 1.67871 2.39062 6.18809 2.39062 6.77246C2.39062 6.82012 2.46875 11.5146 8.39766 17.5467C14.4297 23.4756 19.1242 23.5537 19.1719 23.5537C19.7563 23.5537 24.2656 19.9068 24.2656 19.1006C24.2656 18.8225 24.0758 18.6053 23.7914 18.3662Z" fill="black"/>
<path d="M18.7969 11.835H20.3594C20.3575 10.1779 19.6984 8.5893 18.5267 7.4176C17.355 6.2459 15.7664 5.58682 14.1094 5.58496V7.14746C15.3522 7.1487 16.5438 7.64296 17.4226 8.52177C18.3014 9.40058 18.7956 10.5921 18.7969 11.835Z" fill="black"/>
<path d="M22.7031 11.835H24.2656C24.2625 9.14231 23.1915 6.56083 21.2875 4.65683C19.3835 2.75284 16.802 1.68181 14.1094 1.67871V3.24121C16.3878 3.2439 18.572 4.15017 20.1831 5.76123C21.7942 7.37229 22.7004 9.55658 22.7031 11.835Z" fill="black"/>
</svg>
