<svg width="60" height="61" viewBox="0 0 60 61" fill="none" xmlns="http://www.w3.org/2000/svg">
<path d="M20.6641 27.8962L27.1955 17.4562C27.4486 17.0435 27.8043 16.7035 28.2279 16.4692C28.6515 16.2348 29.1286 16.1142 29.6126 16.119V16.119C29.9939 16.1053 30.374 16.1681 30.7306 16.3037C31.0871 16.4394 31.4129 16.6452 31.6885 16.9088C31.9642 17.1725 32.1842 17.4888 32.3356 17.839C32.487 18.1892 32.5666 18.5661 32.5698 18.9476V26.4305H43.8583C44.2755 26.444 44.685 26.5457 45.06 26.7288C45.435 26.9119 45.7671 27.1723 46.0342 27.4929C46.3014 27.8136 46.4977 28.1871 46.6102 28.589C46.7227 28.9909 46.7488 29.412 46.6869 29.8248L44.6298 43.0933C44.542 43.8024 44.1983 44.4551 43.6632 44.9286C43.1282 45.4021 42.4386 45.6639 41.7241 45.6648H24.8555C24.0525 45.6679 23.2599 45.483 22.5412 45.1248L20.6898 44.199" stroke="#BFF747" stroke-width="1.5" stroke-linecap="round" stroke-linejoin="round"/>
<path d="M20.6641 27.8965V44.1222" stroke="#BFF747" stroke-width="1.5" stroke-linecap="round" stroke-linejoin="round"/>
<path d="M14.5709 27.8965H20.6652V44.1222H14.5709C14.2299 44.1222 13.9029 43.9867 13.6617 43.7456C13.4206 43.5045 13.2852 43.1775 13.2852 42.8365V29.1822C13.2852 28.8412 13.4206 28.5142 13.6617 28.2731C13.9029 28.0319 14.2299 27.8965 14.5709 27.8965V27.8965Z" stroke="#BFF747" stroke-width="1.5" stroke-linecap="round" stroke-linejoin="round"/>
</svg>
