<svg width="60" height="61" viewBox="0 0 60 61" fill="none" xmlns="http://www.w3.org/2000/svg">
<g clip-path="url(#clip0_1060_83)">
<path d="M25.2076 26.1906C28.403 26.1906 30.9933 23.6002 30.9933 20.4049C30.9933 17.2095 28.403 14.6191 25.2076 14.6191C22.0122 14.6191 19.4219 17.2095 19.4219 20.4049C19.4219 23.6002 22.0122 26.1906 25.2076 26.1906Z" stroke="#BFF747" stroke-width="1.5" stroke-linecap="round" stroke-linejoin="round"/>
<path d="M23.9224 45.4758H13.6367V41.6186C13.6572 39.6586 14.1741 37.7359 15.1391 36.0298C16.1042 34.3238 17.4859 32.8902 19.1552 31.8629C20.8245 30.8357 22.7269 30.2482 24.6848 30.1556C26.6427 30.0629 28.5921 30.4679 30.351 31.3329" stroke="#BFF747" stroke-width="1.5" stroke-linecap="round" stroke-linejoin="round"/>
<path d="M39.3516 32.6191V48.0477" stroke="#BFF747" stroke-width="1.5" stroke-linecap="round" stroke-linejoin="round"/>
<path d="M31.6367 40.334H47.0653" stroke="#BFF747" stroke-width="1.5" stroke-linecap="round" stroke-linejoin="round"/>
</g>
<defs>
<clipPath id="clip0_1060_83">
<rect width="36" height="36" fill="white" transform="translate(12.3516 13.334)"/>
</clipPath>
</defs>
</svg>
