<svg width="26" height="26" viewBox="0 0 26 26" fill="none" xmlns="http://www.w3.org/2000/svg">
<path d="M19.2827 4.09763C18.2021 3.2128 16.9385 2.57883 15.5832 2.24144C14.2279 1.90405 12.8146 1.87165 11.4452 2.14659C9.68453 2.50757 8.0647 3.36706 6.7787 4.62268C5.4927 5.8783 4.59474 7.47712 4.19178 9.22869C3.78882 10.9803 3.89785 12.8108 4.50588 14.5021C5.11391 16.1935 6.19532 17.6744 7.62127 18.7685C9.24932 19.96 10.6355 21.4509 11.7056 23.1612L12.4348 24.3737C12.5274 24.5277 12.6583 24.6551 12.8147 24.7436C12.9712 24.8321 13.1478 24.8786 13.3275 24.8786C13.5072 24.8786 13.6839 24.8321 13.8403 24.7436C13.9967 24.6551 14.1276 24.5277 14.2202 24.3737L14.9192 23.2091C15.8511 21.5709 17.1217 20.1504 18.6463 19.0424C19.8417 18.22 20.8296 17.1309 21.5321 15.8613C22.2346 14.5917 22.6325 13.1762 22.6943 11.7264C22.7561 10.2767 22.4802 8.83249 21.8884 7.50767C21.2965 6.18284 20.4048 5.01367 19.2838 4.09242L19.2827 4.09763ZM13.3265 15.5049C12.5024 15.5049 11.6968 15.2606 11.0116 14.8027C10.3264 14.3449 9.79235 13.6941 9.47698 12.9328C9.16162 12.1714 9.0791 11.3336 9.23987 10.5254C9.40065 9.71713 9.79748 8.9747 10.3802 8.39198C10.9629 7.80926 11.7053 7.41242 12.5136 7.25165C13.3219 7.09088 14.1596 7.17339 14.921 7.48876C15.6824 7.80412 16.3331 8.33818 16.7909 9.02338C17.2488 9.70859 17.4931 10.5142 17.4931 11.3383C17.4931 12.4433 17.0542 13.5031 16.2728 14.2845C15.4914 15.0659 14.4315 15.5049 13.3265 15.5049Z" fill="black"/>
</svg>
