<svg width="41" height="41" viewBox="0 0 41 41" fill="none" xmlns="http://www.w3.org/2000/svg">
<g clip-path="url(#clip0_1048_212)">
<path d="M15.7667 23.8652H3.62388C2.83491 23.8652 2.19531 24.5048 2.19531 25.2938V37.4367C2.19531 38.2256 2.83491 38.8652 3.62388 38.8652H15.7667C16.5557 38.8652 17.1953 38.2256 17.1953 37.4367V25.2938C17.1953 24.5048 16.5557 23.8652 15.7667 23.8652Z" stroke="#BFF747" stroke-width="1.5" stroke-linecap="round" stroke-linejoin="round"/>
<path d="M37.9074 23.8652H25.7645C24.9755 23.8652 24.3359 24.5048 24.3359 25.2938V37.4367C24.3359 38.2256 24.9755 38.8652 25.7645 38.8652H37.9074C38.6963 38.8652 39.3359 38.2256 39.3359 37.4367V25.2938C39.3359 24.5048 38.6963 23.8652 37.9074 23.8652Z" stroke="#BFF747" stroke-width="1.5" stroke-linecap="round" stroke-linejoin="round"/>
<path d="M26.8527 1.72266H14.7098C13.9208 1.72266 13.2812 2.36225 13.2812 3.15123V15.2941C13.2812 16.0831 13.9208 16.7227 14.7098 16.7227H26.8527C27.6417 16.7227 28.2812 16.0831 28.2812 15.2941V3.15123C28.2812 2.36225 27.6417 1.72266 26.8527 1.72266Z" stroke="#BFF747" stroke-width="1.5" stroke-linecap="round" stroke-linejoin="round"/>
</g>
<defs>
<clipPath id="clip0_1048_212">
<rect width="40" height="40" fill="white" transform="translate(0.765625 0.294922)"/>
</clipPath>
</defs>
</svg>
